<?xml version="1.0" standalone="no"?>
<!DOCTYPE svg PUBLIC "-//W3C//DTD SVG 1.1//EN" "http://www.w3.org/Graphics/SVG/1.1/DTD/svg11.dtd" >
<svg xmlns="http://www.w3.org/2000/svg" xmlns:xlink="http://www.w3.org/1999/xlink" version="1.1">
<metadata>
Created by FontForge 20170731 at Fri Oct 19 17:03:44 2018
 By Aleksey,,,
Copyright (c) 2018 by netmarble Co., Ltd. All rights reserved. Font designed by netmarble Co., Ltd.
</metadata>
<defs>
<font id="netmarbleL" horiz-adv-x="0" >
  <font-face 
    font-family="netmarble Light"
    font-weight="300"
    font-stretch="normal"
    units-per-em="1024"
    panose-1="2 2 4 3 2 1 1 2 1 1"
    ascent="819"
    descent="-205"
    x-height="523"
    cap-height="733"
    bbox="-108 -243 947 966"
    underline-thickness="25"
    underline-position="-149"
    unicode-range="U+0020-FFE6"
  />
<missing-glyph horiz-adv-x="1024" 
d="M102 -11v820h820v-820h-820zM154 41h716v716h-716v-716z" />
    <glyph glyph-name=".notdef" horiz-adv-x="1024" 
d="M102 -11v820h820v-820h-820zM154 41h716v716h-716v-716z" />
    <glyph glyph-name="glyph1" 
 />
    <glyph glyph-name="glyph2" horiz-adv-x="1024" 
 />
    <glyph glyph-name="space" unicode=" " horiz-adv-x="230" 
 />
    <glyph glyph-name="exclam" unicode="!" horiz-adv-x="346" 
d="M140 243l-11 543q-1 17 11 28t32 11q19 0 31.5 -11.5t11.5 -27.5l-11 -542q0 -13 -9 -22t-23 -9q-16 0 -24 9t-8 21zM174 82q25 0 43 -18t18 -43t-18 -43t-43 -18t-43 18t-18 43t18 43t43 18z" />
    <glyph glyph-name="quotedbl" unicode="&#x22;" horiz-adv-x="428" 
d="M294 862q23 0 40 -15.5t17 -44.5q0 -17 -6.5 -41.5t-17.5 -44.5q-8 -14 -20.5 -27t-15.5 -13q-4 0 -7 2t-2 5q12 30 7 47t-26 32q-15 11 -21 22.5t-6 25.5q0 23 17 37.5t41 14.5zM129 862q23 0 40 -15.5t17 -44.5q0 -17 -6.5 -41.5t-17.5 -44.5q-8 -14 -20.5 -27
t-15.5 -13q-4 0 -7 2t-2 5q12 30 7 47t-26 32q-15 11 -21 22.5t-6 25.5q0 23 17 37.5t41 14.5z" />
    <glyph glyph-name="numbersign" unicode="#" horiz-adv-x="716" 
d="M619 500h-88l-26 -210h102q18 0 26.5 -1.5t8.5 -8.5q0 -14 -11.5 -26t-35.5 -12h-96l-28 -224q-1 -7 -8.5 -12t-19.5 -5q-13 0 -18 5t-4 12l28 224h-215l-28 -225q-1 -7 -8 -12t-19 -5q-13 0 -18 5t-4 12l28 225h-104q-19 0 -26 3t-7 12q0 10 12 21.5t35 11.5h96l26 210
h-94q-19 0 -25.5 3t-6.5 12q0 10 12 21.5t35 11.5h85l28 224q1 6 8.5 12t19.5 6q14 0 18.5 -5t3.5 -11l-28 -226h214l28 224q1 6 8.5 12t19.5 6q14 0 18.5 -5t3.5 -11l-28 -226h94q18 0 26.5 -1.5t8.5 -8.5q0 -14 -11.5 -26t-35.5 -12zM455 290l26 210h-214l-27 -210h215z
" />
    <glyph glyph-name="dollar" unicode="$" horiz-adv-x="580" 
d="M293 879q12 0 18.5 -5t6.5 -12v-947q0 -9 -7.5 -14t-17.5 -5t-18 4.5t-8 13.5v947q0 7 7 12.5t19 5.5zM273 -12q-45 0 -92 12.5t-75 35.5q-21 17 -39.5 40.5t-13.5 38.5q4 18 19 18q8 0 29 -24t51 -37q25 -12 63 -18t73 -6q85 0 128 42.5t43 108.5q0 64 -41 102t-139 66
q-203 57 -203 215q0 95 65 153t153 58q46 0 95.5 -19.5t77.5 -43.5q22 -18 28 -30t0 -21q-14 -22 -27 -22q-11 0 -22 12q-25 28 -66.5 46t-89.5 18q-75 0 -109.5 -44.5t-34.5 -108.5q0 -52 34 -89.5t108 -58.5q72 -19 116.5 -42t70.5 -50q24 -25 39 -58t15 -76
q0 -98 -68.5 -158t-187.5 -60z" />
    <glyph glyph-name="percent" unicode="%" horiz-adv-x="868" 
d="M825 180q0 -69 -49 -118t-118 -49t-118 49t-49 118t49 118t118 49t118 -49t49 -118zM209 527q41 0 70 29t29 70t-29 70t-70 29t-70 -29t-29 -70t29 -70t70 -29zM584 799q12 0 14.5 -6t-0.5 -13l-275 -749q-8 -15 -19 -20.5t-21 -5.5q-13 0 -18 6.5t1 20.5l278 738
q7 18 15.5 23.5t24.5 5.5zM658 81q41 0 70 29t29 70t-29 70t-70 29t-70 -29t-29 -70t29 -70t70 -29zM376 626q0 -69 -49 -118t-118 -49t-118 49t-49 118t49 118t118 49t118 -49t49 -118z" />
    <glyph glyph-name="ampersand" unicode="&#x26;" horiz-adv-x="699" 
d="M658 55q12 -12 11 -19.5t-9 -15.5q-13 -11 -24.5 -11.5t-22.5 9.5l-98 98q-58 -64 -120 -93.5t-121 -29.5q-96 0 -160 53.5t-64 140.5q0 50 30 99t93 88l48 27q-58 58 -76 77.5t-32 41.5q-13 18 -19.5 41t-6.5 45q0 81 58 130t145 49q81 0 140.5 -49.5t59.5 -134.5
q0 -44 -27.5 -90.5t-90.5 -83.5l-56 -34l190 -189q35 47 50.5 76.5t23.5 44.5q10 19 20.5 21.5t18.5 -1.5q20 -10 23.5 -19.5t0.5 -15.5q-17 -34 -35 -65t-57 -84zM232 473l39 -39l78 47q37 25 54 55t17 58q0 58 -32 96t-99 38q-62 0 -97 -33.5t-35 -93.5q0 -36 22.5 -67.5
t52.5 -60.5zM280 58q54 0 102 23.5t91 72.5l-209 207l-66 -42q-46 -30 -62 -59.5t-16 -69.5q0 -56 40.5 -94t119.5 -38z" />
    <glyph glyph-name="quotesingle" unicode="'" horiz-adv-x="284" 
d="M110 762q-15 11 -21 22.5t-6 25.5q0 23 17 37.5t41 14.5q23 0 40 -15.5t17 -44.5q0 -17 -6.5 -41.5t-17.5 -44.5q-8 -14 -20.5 -27t-15.5 -13q-4 0 -7 2t-2 5q12 30 7 47t-26 32z" />
    <glyph glyph-name="parenleft" unicode="(" horiz-adv-x="376" 
d="M196 398q0 -134 21.5 -235t77.5 -222q11 -24 0 -36.5t-18 -12.5q-10 0 -32.5 25.5t-43.5 67.5q-38 77 -60 198.5t-22 214.5q0 84 20 205t62 213q20 43 43 68.5t33 25.5q6 0 17.5 -13.5t0.5 -36.5q-46 -94 -72.5 -204t-26.5 -258z" />
    <glyph glyph-name="parenright" unicode=")" horiz-adv-x="376" 
d="M183 398q0 148 -26.5 258t-72.5 204q-11 23 0.5 36.5t17.5 13.5q10 0 33 -25.5t43 -68.5q42 -92 62 -213t20 -205q0 -93 -22 -214.5t-60 -198.5q-21 -42 -43.5 -67.5t-32.5 -25.5q-7 0 -18 12.5t0 36.5q56 121 77.5 222t21.5 235z" />
    <glyph glyph-name="asterisk" unicode="*" horiz-adv-x="486" 
d="M422 670q3 -12 -3 -23t-18 -14l-112 -39l69 -95q7 -10 5.5 -22t-12.5 -20q-7 -6 -20 -6.5t-23 13.5l-69 95l-69 -95q-10 -14 -22 -14t-21 7q-11 8 -12.5 20t5.5 22l69 95l-112 39q-12 3 -17.5 14t-1.5 23q3 13 14.5 18t24.5 1l112 -36v106q0 25 8.5 34.5t21.5 9.5
q12 0 21.5 -9.5t9.5 -34.5v-107l112 36q13 4 24 -0.5t16 -17.5z" />
    <glyph glyph-name="plus" unicode="+" horiz-adv-x="680" 
d="M301 157v220h-185q-23 0 -34.5 3.5t-11.5 14.5q0 16 15 30t44 14h172v218q0 9 10 16t26 7t26 -7t10 -16v-218h197q25 0 31.5 -4t6.5 -12q0 -17 -15.5 -31.5t-37.5 -14.5h-182v-220q0 -9 -10 -16t-26 -7t-26 7t-10 16z" />
    <glyph glyph-name="comma" unicode="," horiz-adv-x="284" 
d="M103 35q-15 11 -21 22.5t-6 25.5q0 23 17 37.5t41 14.5q23 0 40 -15.5t17 -44.5q0 -17 -6.5 -41.5t-17.5 -44.5q-8 -14 -20.5 -27t-15.5 -13q-4 0 -7 2t-2 5q12 30 7 47t-26 32z" />
    <glyph glyph-name="hyphen" unicode="-" horiz-adv-x="728" 
d="M586 383h-441q-23 0 -34.5 3.5t-11.5 14.5q0 16 15 30t44 14h443q25 0 31.5 -4t6.5 -12q0 -17 -15.5 -31.5t-37.5 -14.5z" />
    <glyph glyph-name="period" unicode="." horiz-adv-x="320" 
d="M216 62q0 -25 -18 -43t-43 -18t-43 18t-18 43t18 43t43 18t43 -18t18 -43z" />
    <glyph glyph-name="slash" unicode="/" horiz-adv-x="475" 
d="M403 872l-255 -939q-4 -18 -19 -27t-34 -9q-13 0 -21.5 9.5t-4.5 26.5l255 939q5 17 21.5 24t26.5 7q17 0 26 -7t5 -24z" />
    <glyph glyph-name="zero" unicode="0" horiz-adv-x="650" 
d="M324 782q111 0 196 -95.5t85 -300.5t-85 -299.5t-196 -94.5t-195.5 94.5t-84.5 299.5t84.5 300.5t195.5 95.5zM324 54q96 0 151.5 84t55.5 249t-55.5 249t-151.5 84t-151.5 -84t-55.5 -249t55.5 -249t151.5 -84z" />
    <glyph glyph-name="one" unicode="1" horiz-adv-x="650" 
d="M156 604q-19 -17 -18.5 -30t15.5 -22q21 -12 38 -8t28 16l119 106v-622q0 -20 8.5 -27t28.5 -7t29 7.5t9 23.5v715q0 15 -8.5 22.5t-29.5 7.5q-11 0 -19.5 -3.5t-12.5 -7.5z" />
    <glyph glyph-name="two" unicode="2" horiz-adv-x="650" 
d="M481 1q30 0 45 16t15 31q0 8 -9.5 11.5t-35.5 3.5h-332l248 296q70 87 88 137.5t18 95.5q0 87 -55 138t-159 51q-56 0 -110 -25.5t-86 -69.5q-15 -23 6.5 -36t34.5 0q32 32 69 50t89 18q67 0 103 -38.5t36 -85.5q0 -51 -23.5 -97.5t-49.5 -78.5l-287 -345q-19 -24 -8 -48
t42 -24h361z" />
    <glyph glyph-name="three" unicode="3" horiz-adv-x="650" 
d="M399 410q62 -12 116 -62t54 -133q0 -99 -75.5 -161t-217.5 -62q-70 0 -133 21t-94 54q-2 4 0.5 12.5t12.5 19.5q7 6 17.5 8t25.5 -5q34 -18 81.5 -33t109.5 -15q84 0 142 40.5t58 113.5q0 78 -63.5 121.5t-180.5 43.5q-34 0 -52 10.5t-18 26.5q0 7 4.5 13t41.5 6
q39 0 85.5 11t81.5 33q35 21 57 51.5t22 74.5q0 56 -40 87.5t-116 31.5q-73 0 -120.5 -29.5t-54.5 -29.5q-13 0 -21 8.5t-6 15.5q7 29 68.5 63t132.5 34q114 0 171.5 -53t57.5 -132q0 -51 -36 -103t-111 -82z" />
    <glyph glyph-name="four" unicode="4" horiz-adv-x="650" 
d="M597 240q21 0 30 -4t9 -12q0 -16 -15.5 -31t-45.5 -15h-84v-156q0 -9 -10 -16t-26 -7t-26 7t-10 16v156h-307q-45 0 -53.5 22.5t5.5 44.5l274 480q19 33 37.5 45t72.5 12q23 0 33 -8t10 -25v-509h106zM142 240h277v479z" />
    <glyph glyph-name="five" unicode="5" horiz-adv-x="650" 
d="M477 717q37 0 55 15t18 32q0 9 -7.5 12t-34.5 3h-273q-23 0 -37 -8t-18 -29l-55 -287q-3 -17 6 -25.5t37 -8.5h115q112 0 169 -53t57 -130q0 -78 -58 -130.5t-147 -52.5q-45 0 -97 17.5t-75 36.5q-26 15 -43.5 -4t-14.5 -34q3 -14 68.5 -46t164.5 -32q125 0 200 71
t74 185q-1 102 -73 168t-222 66h-81l43 234h229z" />
    <glyph glyph-name="six" unicode="6" horiz-adv-x="650" 
d="M251 467q50 15 100.5 11t91.5 -24q54 -26 92 -83t38 -137q0 -103 -69 -171.5t-181 -68.5q-110 0 -179 67.5t-69 173.5q0 48 12.5 86.5t33.5 70.5l216 342q15 24 29 33.5t34 9.5q15 0 23 -10.5t-2 -26.5zM324 58q76 0 126.5 48t50.5 129q0 80 -48 130.5t-129 50.5
q-82 0 -129.5 -52t-47.5 -129q0 -83 49 -130t128 -47z" />
    <glyph glyph-name="seven" unicode="7" horiz-adv-x="650" 
d="M478 717h-353q-27 0 -39 3.5t-12 17.5q0 15 16 28t51 13h386q23 0 34.5 -13.5t2.5 -37.5l-284 -682q-11 -26 -25.5 -37t-34.5 -11q-15 0 -22.5 9.5t-0.5 27.5z" />
    <glyph glyph-name="eight" unicode="8" horiz-adv-x="650" 
d="M321 435q114 0 182 -65t68 -156q0 -97 -69 -158.5t-181 -61.5q-106 0 -177 60.5t-71 159.5q0 93 69 157t179 64zM321 56q75 0 126 41.5t51 116.5q0 63 -53.5 109t-123.5 46q-68 0 -121.5 -43.5t-53.5 -111.5q0 -70 49 -114t126 -44zM321 783q105 0 167.5 -59.5
t62.5 -145.5q0 -81 -60.5 -141.5t-169.5 -60.5q-98 0 -163 55.5t-65 146.5q0 89 64 147t164 58zM321 442q71 0 114.5 37t43.5 99t-43 102.5t-115 40.5q-71 0 -113.5 -40.5t-42.5 -102.5t43 -99t113 -37z" />
    <glyph glyph-name="nine" unicode="9" horiz-adv-x="650" 
d="M404 308q-35 -13 -87 -12t-93 19q-62 28 -102 86.5t-40 137.5q0 106 68.5 174t178.5 68q112 0 181.5 -67t69.5 -176q0 -43 -11.5 -81t-35.5 -75l-215 -341q-15 -24 -29 -33.5t-34 -9.5q-15 0 -23 10.5t2 26.5zM331 717q-79 0 -128 -50t-49 -128q0 -79 47.5 -129.5
t129.5 -50.5q81 0 129 50.5t48 129.5t-46.5 128.5t-130.5 49.5z" />
    <glyph glyph-name="colon" unicode=":" horiz-adv-x="380" 
d="M193 231q25 0 43 -18t18 -43t-18 -43t-43 -18t-43 18t-18 43t18 43t43 18zM194 550q-25 0 -43 18t-18 43t18 43t43 18t43 -18t18 -43t-18 -43t-43 -18z" />
    <glyph glyph-name="semicolon" unicode=";" horiz-adv-x="364" 
d="M185 560q-25 0 -43 18t-18 43t18 43t43 18t43 -18t18 -43t-18 -43t-43 -18zM185 238q23 0 40 -15.5t17 -44.5q0 -17 -6.5 -41.5t-17.5 -44.5q-8 -14 -20.5 -27t-15.5 -13q-4 0 -7 2t-2 5q12 30 7 47t-26 32q-15 11 -21 22.5t-6 25.5q0 23 17 37.5t41 14.5z" />
    <glyph glyph-name="less" unicode="&#x3c;" horiz-adv-x="484" 
d="M151 389l281 -449q10 -23 -0.5 -33.5t-30.5 -10.5q-15 0 -28.5 6t-25.5 26l-279 447q-8 15 -8 23t8 23l281 450q11 17 24 24t28 7q12 0 27.5 -10.5t3.5 -34.5l-281 -450q-4 -6 -4 -9.5t4 -8.5z" />
    <glyph glyph-name="equal" unicode="=" horiz-adv-x="627" 
d="M94 479q-23 0 -34.5 3.5t-11.5 14.5q0 16 15 30t44 14h443q25 0 31.5 -4t6.5 -12q0 -17 -15.5 -31.5t-37.5 -14.5h-441zM543 333q25 0 31.5 -4t6.5 -12q0 -17 -15.5 -31.5t-37.5 -14.5h-441q-23 0 -34.5 3.5t-11.5 14.5q0 16 15 30t44 14h443z" />
    <glyph glyph-name="greater" unicode="&#x3e;" horiz-adv-x="486" 
d="M338 389q4 5 4 8.5t-4 9.5l-281 450q-12 24 3.5 34.5t27.5 10.5q15 0 28 -7t24 -24l281 -450q8 -15 8 -23t-8 -23l-279 -447q-12 -20 -25.5 -26t-28.5 -6q-20 0 -30.5 10.5t-0.5 33.5z" />
    <glyph glyph-name="question" unicode="?" horiz-adv-x="474" 
d="M229 68q25 0 43 -18t18 -43t-18 -43t-43 -18t-43 18t-18 43t18 43t43 18zM234 803q81 0 142 -50t61 -137q0 -27 -9.5 -52.5t-24.5 -46.5q-23 -33 -68.5 -84t-61.5 -89q-10 -25 -11.5 -54t-1.5 -55q0 -18 -6.5 -27.5t-18.5 -9.5q-13 0 -21 9t-8 27q0 33 2 59.5t13 56.5
q18 44 80.5 118t62.5 155q0 50 -40 83.5t-95 33.5q-52 0 -84.5 -25.5t-44.5 -72.5q-3 -11 -12.5 -17.5t-19.5 -6.5q-14 0 -22 9.5t-8 26.5q0 63 58 106t138 43z" />
    <glyph glyph-name="at" unicode="@" horiz-adv-x="899" 
d="M451 798q170 0 291 -121.5t121 -284.5q0 -101 -46.5 -172.5t-112.5 -71.5q-36 0 -71 18t-62 61q-7 11 -9.5 18.5t-9.5 21.5q-36 -29 -72 -47t-91 -18q-81 0 -123 58.5t-26 137.5q20 101 88 152t143 51q76 0 120.5 -51t34.5 -130q-8 -59 -7 -92.5t9 -61.5q7 -23 27 -38.5
t46 -15.5q34 0 62 46t28 133q0 141 -101.5 243.5t-238.5 102.5q-138 0 -239.5 -100.5t-101.5 -245.5q0 -144 100.5 -244t240.5 -100q61 0 115 20q17 6 30 -0.5t20 -21.5q4 -8 -1 -17.5t-21 -17.5q-70 -23 -143 -23q-171 0 -292 120t-121 284q0 166 121.5 286.5t291.5 120.5z
M550 399q9 61 -14 101.5t-71 43.5t-91 -32.5t-59 -93.5q-19 -69 9.5 -114.5t73.5 -45.5q29 -2 59 9t48 32q20 20 29.5 45t15.5 55z" />
    <glyph glyph-name="A" unicode="A" horiz-adv-x="725" 
d="M666 56q11 -34 7.5 -45t-18.5 -12q-24 -2 -38 4t-26 35l-77 212h-327l-70 -206q-11 -28 -26 -36.5t-45 -8.5q-15 0 -17 10t5 33l240 685q8 23 18 37t31 14h59q19 0 26 -7t12 -21zM205 312h290l-145 414z" />
    <glyph glyph-name="B" unicode="B" horiz-adv-x="671" 
d="M359 -1h-243q-26 0 -39 9.5t-13 25.5v713q0 15 13 24t39 9h231q99 0 152 -57t53 -139q0 -40 -20 -82.5t-70 -75.5q68 -32 100.5 -87t32.5 -116q0 -90 -66.5 -157t-169.5 -67zM347 718h-211v-267h210q54 0 94 39t40 92q0 66 -34.5 101t-98.5 35zM353 61q81 0 125 51
t44 112q0 64 -44 114.5t-124 50.5h-218v-328h217z" />
    <glyph glyph-name="C" unicode="C" horiz-adv-x="744" 
d="M654 190q8 -2 15.5 -8t9.5 -15q4 -22 -9 -43.5t-34 -41.5q-37 -36 -99 -63.5t-154 -27.5q-147 0 -244.5 104t-97.5 289q0 192 97.5 294t243.5 102q90 0 154 -33.5t109 -88.5q10 -16 9.5 -32t-15.5 -28q-12 -8 -24.5 -5.5t-27.5 19.5q-33 45 -83 75t-122 30
q-126 0 -197 -95.5t-71 -237.5q0 -149 77 -239.5t196 -90.5q110 0 178 48t89 88z" />
    <glyph glyph-name="D" unicode="D" horiz-adv-x="740" 
d="M295 788q173 0 266 -104.5t92 -276.5q-1 -182 -93 -298t-272 -116q-62 0 -115 3.5t-70 6.5q-19 3 -29 11t-10 24v705q0 16 7.5 21.5t33.5 9.5q31 5 81 9.5t109 4.5zM308 55q126 0 199 103t73 249q0 141 -75.5 230t-187.5 89q-59 0 -92 -2.5t-89 -11.5v-647q40 -7 82 -8.5
t90 -1.5z" />
    <glyph glyph-name="E" unicode="E" horiz-adv-x="633" 
d="M480 0h-370q-20 0 -33 11.5t-13 25.5v703q0 14 12.5 26.5t37.5 12.5h387q25 0 31.5 -4t6.5 -12q0 -17 -15.5 -31.5t-37.5 -14.5h-350v-266h291q25 0 31.5 -4t6.5 -12q0 -17 -15.5 -31.5t-37.5 -14.5h-276v-327h359q25 0 31.5 -4t6.5 -12q0 -17 -15.5 -31.5t-37.5 -14.5z
" />
    <glyph glyph-name="F" unicode="F" horiz-adv-x="613" 
d="M114 780h387q25 0 31.5 -4t6.5 -12q0 -17 -15.5 -31.5t-37.5 -14.5h-350v-268h276q25 0 31.5 -4t6.5 -12q0 -17 -15.5 -31.5t-37.5 -14.5h-261v-365q0 -9 -10 -16t-26 -7t-26 7t-10 16v718q0 14 12.5 26.5t37.5 12.5z" />
    <glyph glyph-name="G" unicode="G" horiz-adv-x="754" 
d="M588 121v200h-156q-23 0 -31.5 4.5t-8.5 11.5q0 18 15 32t45 14h167q19 0 30 -8.5t11 -21.5v-216q0 -10 -5.5 -25t-14.5 -27q-20 -29 -83.5 -60.5t-170.5 -31.5q-170 0 -257.5 109t-87.5 285q0 194 95 296t248 102q94 0 158 -34t109 -89q5 -8 6.5 -15.5t1.5 -15.5
q-1 -18 -15.5 -28t-28.5 -8q-8 1 -16 7t-12 12q-37 47 -85.5 77.5t-117.5 30.5q-127 0 -198.5 -95.5t-71.5 -239.5q0 -141 70.5 -236t196.5 -95q60 0 111 13t96 52z" />
    <glyph glyph-name="H" unicode="H" horiz-adv-x="728" 
d="M583 782q16 0 27 -7t11 -16v-736q0 -9 -10 -16t-26 -7t-26 7t-10 16v369h-413v-369q0 -9 -10 -16t-26 -7t-26 7t-10 16v734q0 9 10 16t26 7t26 -7t10 -16v-303h413v305q0 9 9 16t25 7z" />
    <glyph glyph-name="I" unicode="I" horiz-adv-x="295" 
d="M74 23v734q0 9 10 16t26 7t26 -7t10 -16v-734q0 -9 -10 -16t-26 -7t-26 7t-10 16z" />
    <glyph glyph-name="J" unicode="J" horiz-adv-x="487" 
d="M340 757v-484q0 -70 -9.5 -119.5t-48.5 -92.5q-20 -22 -57 -42t-112 -20h-58q-21 0 -28.5 5t-7.5 15q0 17 17.5 30t48.5 13h55q40 0 65.5 17.5t38.5 39.5q15 26 19.5 63t4.5 94v481q0 9 10 16t26 7t26 -7t10 -16z" />
    <glyph glyph-name="K" unicode="K" horiz-adv-x="700" 
d="M64 23v735q0 9 10 16t26 7t26 -7t10 -16v-385l385 384q20 21 36.5 23t35.5 -11q15 -10 10 -21t-21 -28l-243 -251l290 -412q13 -19 14 -29t-9 -17q-6 -4 -18 -7.5t-19 -2.5q-11 2 -21 9.5t-20 22.5l-272 386l-148 -149v-247q0 -9 -10 -16t-26 -7t-26 7t-10 16z" />
    <glyph glyph-name="L" unicode="L" horiz-adv-x="585" 
d="M460 0h-360q-20 0 -33 11.5t-13 25.5v720q0 9 10 16t26 7t26 -7t10 -16v-695h349q25 0 31.5 -4t6.5 -12q0 -17 -15.5 -31.5t-37.5 -14.5z" />
    <glyph glyph-name="M" unicode="M" horiz-adv-x="846" 
d="M721 790q14 0 23.5 -6t9.5 -22v-738q0 -9 -10 -16t-26 -7t-26 7t-10 16v594l-228 -422q-8 -14 -18 -20.5t-23 -6.5q-11 0 -20.5 6.5t-16.5 19.5l-240 427v-598q0 -9 -10 -16t-26 -7t-26 7t-10 16v741q0 11 10 18t22 7q15 0 23.5 -6t12.5 -13l280 -488l273 487
q6 10 14.5 15t21.5 5z" />
    <glyph glyph-name="N" unicode="N" horiz-adv-x="730" 
d="M545 15l-404 620l-5 6v-618q0 -9 -10 -16t-26 -7t-26 7t-10 16v735q0 14 9 21t22 7q15 0 24.5 -4t13.5 -10l415 -632l-2 12v612q0 9 10 16t26 7t26 -7t10 -16v-736q0 -15 -10 -22t-24 -7q-13 0 -22.5 2.5t-16.5 13.5z" />
    <glyph glyph-name="O" unicode="O" horiz-adv-x="806" 
d="M381 788q151 0 246.5 -105t95.5 -294q0 -185 -94 -290.5t-248 -105.5t-247 102.5t-93 293.5q0 193 94 296t246 103zM381 56q138 0 203.5 98t65.5 235q0 158 -73 247t-196 89q-124 0 -195.5 -91.5t-71.5 -244.5q0 -137 66.5 -235t200.5 -98z" />
    <glyph glyph-name="P" unicode="P" horiz-adv-x="671" 
d="M114 780h246q106 0 169.5 -61.5t63.5 -166.5q0 -94 -67 -160t-187 -66h-203v-304q0 -9 -10 -16t-26 -7t-26 7t-10 16v719q0 16 10.5 27.5t39.5 11.5zM353 388q69 0 118 43.5t49 119.5q0 73 -44 120t-120 47h-220v-330h217z" />
    <glyph glyph-name="Q" unicode="Q" horiz-adv-x="811" 
d="M381 789q151 0 246.5 -105t95.5 -294q0 -185 -94 -291t-248 -106t-247 103t-93 294q0 193 94 296t246 103zM381 56q138 0 203.5 98.5t65.5 235.5q0 158 -73 247t-196 89q-124 0 -195.5 -91.5t-71.5 -244.5q0 -137 66.5 -235.5t200.5 -98.5zM718 84q22 -22 29 -33t7 -21
q0 -14 -13.5 -23t-26.5 -9q-14 0 -24.5 4.5t-20.5 14.5l-258 271q-10 11 -15.5 20.5t-5.5 18.5q0 11 12 17.5t25 6.5q12 0 21 -4.5t23 -17.5z" />
    <glyph glyph-name="R" unicode="R" horiz-adv-x="673" 
d="M116 780h243q119 0 176.5 -67t57.5 -157q0 -97 -69 -157t-179 -62q57 -50 119.5 -131.5t116.5 -146.5q16 -20 18 -27t0 -13q-3 -8 -10.5 -13.5t-23.5 -5.5q-14 0 -24.5 4.5t-20.5 14.5l-147 190q-33 43 -84 85t-115 42h-38v-313q0 -9 -10 -16t-26 -7t-26 7t-10 16v725
q0 16 8.5 24t43.5 8zM520 555q0 74 -41.5 118.5t-124.5 44.5h-218v-320h200q74 0 129 38.5t55 118.5z" />
    <glyph glyph-name="S" unicode="S" horiz-adv-x="662" 
d="M305 435q175 -44 225 -96.5t50 -128.5q0 -92 -75.5 -154t-210.5 -62q-58 0 -113.5 19t-85.5 40q-26 18 -42.5 35.5t-16.5 34.5q0 18 17 27.5t32 -3.5q40 -37 98 -63.5t119 -26.5q88 0 146.5 39.5t58.5 107.5q0 65 -58.5 103t-167.5 63q-107 24 -165 78t-58 137
q0 95 70 149.5t179 54.5q74 0 127 -21.5t81 -40.5q23 -15 30 -27t2 -20q-9 -11 -17 -16.5t-16 -5.5q-14 0 -42 17t-60 30q-22 9 -51.5 15t-54.5 6q-170 0 -175 -140q0 -62 51 -97.5t123 -53.5z" />
    <glyph glyph-name="T" unicode="T" horiz-adv-x="667" 
d="M76 780h490q25 0 31.5 -4t6.5 -12q0 -17 -15.5 -31.5t-37.5 -14.5h-209v-695q0 -9 -10 -16t-26 -7t-26 7t-10 16v695h-224q-21 0 -28.5 4.5t-7.5 14.5q0 17 17.5 30t48.5 13z" />
    <glyph glyph-name="U" unicode="U" horiz-adv-x="730" 
d="M584 790q16 0 26 -7t10 -16v-486q0 -146 -76.5 -217t-200.5 -71q-122 0 -200.5 67t-78.5 212v495q0 9 10 16t26 7t26 -7t10 -16v-492q0 -105 53 -162t154 -57q103 0 154 56.5t51 162.5v492q0 9 10 16t26 7z" />
    <glyph glyph-name="V" unicode="V" horiz-adv-x="721" 
d="M615 789q19 0 24.5 -6t2.5 -17l-236 -719q-8 -23 -28 -35.5t-46 -12.5q-24 0 -41 12.5t-24 34.5l-235 719q-3 10 4.5 17t22.5 7q23 0 34.5 -6t16.5 -17l226 -682l225 673q6 16 18.5 24t35.5 8z" />
    <glyph glyph-name="W" unicode="W" horiz-adv-x="891" 
d="M791 788q19 0 24.5 -6t2.5 -17l-170 -729q-4 -18 -18 -27t-33 -9q-20 0 -32.5 7.5t-17.5 26.5l-126 568l-123 -566q-4 -18 -18 -27t-33 -9q-20 0 -32.5 7.5t-17.5 26.5l-167 731q-3 10 4.5 17t22.5 7q23 0 34.5 -6t16.5 -17l140 -634l130 632q3 11 14 18.5t29 7.5
q16 0 28.5 -6.5t15.5 -17.5l133 -637l139 627q6 16 18.5 24t35.5 8z" />
    <glyph glyph-name="X" unicode="X" horiz-adv-x="676" 
d="M582 761l-472 -735q-7 -11 -17.5 -17t-33.5 -6q-15 0 -23 7t-4 17l472 735q7 11 17.5 17t33.5 6q15 0 23 -7t4 -17zM37 761q-4 10 4 17t23 7q23 0 32.5 -6.5t16.5 -17.5l475 -723q9 -14 2 -25.5t-33 -11.5q-19 0 -30 6.5t-18 17.5z" />
    <glyph glyph-name="Y" unicode="Y" horiz-adv-x="689" 
d="M285 310l-255 456q-4 10 4 17t23 7q23 0 33.5 -6t17.5 -17l215 -379l209 369q9 16 20 24t34 8q19 0 26 -6.5t1 -16.5l-256 -456v-287q0 -9 -10 -16t-26 -7t-26 7t-10 16v287z" />
    <glyph glyph-name="Z" unicode="Z" horiz-adv-x="585" 
d="M406 718h-310q-23 0 -34.5 3.5t-11.5 14.5q0 16 15 30t44 14h350q22 0 31.5 -4t12.5 -12q2 -5 0 -16.5t-10 -26.5l-371 -659h359q25 0 31.5 -4t6.5 -12q0 -17 -15.5 -31.5t-37.5 -14.5l-402 -1q-17 0 -26.5 4t-12.5 11q-4 8 -2.5 18t9.5 23z" />
    <glyph glyph-name="bracketleft" unicode="[" horiz-adv-x="353" 
d="M94 -77v945q0 15 10 26.5t34 11.5h128q26 0 33 -3t7 -11q0 -16 -15 -32t-45 -16h-80v-896h81q34 0 46.5 -13t12.5 -29q0 -10 -7 -14.5t-34 -4.5h-126q-23 0 -34 11t-11 25z" />
    <glyph glyph-name="backslash" unicode="\" horiz-adv-x="406" 
d="M36 865q-4 17 5 24t20 7q6 0 21.5 -7t20.5 -24l269 -927q4 -17 -4.5 -26.5t-17.5 -9.5q-13 0 -27 7t-18 25z" />
    <glyph glyph-name="bracketright" unicode="]" horiz-adv-x="352" 
d="M250 -77q0 -14 -11 -25t-34 -11h-126q-27 0 -34 4.5t-7 14.5q0 16 12.5 29t46.5 13h81v896h-80q-30 0 -45 16t-15 32q0 8 7 11t33 3h128q24 0 34 -11.5t10 -26.5v-945z" />
    <glyph glyph-name="asciicircum" unicode="^" horiz-adv-x="399" 
d="M371 592q16 -29 6.5 -39t-30.5 -10q-18 0 -27.5 6.5t-15.5 18.5l-107 219l-106 -223q-7 -12 -17.5 -18.5t-25.5 -6.5q-19 0 -28 8t2 30l136 264q15 26 41 25t38 -25z" />
    <glyph glyph-name="underscore" unicode="_" horiz-adv-x="558" 
d="M495 0h-453q-21 0 -30.5 3.5t-9.5 12.5q0 15 16 29t41 14h456q27 0 33.5 -3.5t6.5 -12.5q0 -18 -18 -30.5t-42 -12.5z" />
    <glyph glyph-name="grave" unicode="`" horiz-adv-x="277" 
d="M158 854l48 -167q6 -18 3 -28.5t-23 -10.5q-23 0 -35 8.5t-20 32.5l-62 179q-3 13 0.5 22t29.5 9t39 -12.5t20 -32.5z" />
    <glyph glyph-name="a" unicode="a" horiz-adv-x="642" 
d="M521 187q0 -31 14 -69t38 -70q5 -7 5.5 -12t-0.5 -10q-2 -7 -13 -15.5t-22 -8.5q-13 0 -29.5 19t-46.5 85q-29 -48 -83.5 -80.5t-128.5 -32.5q-99 0 -160 71.5t-61 184.5q0 120 78 197t182 77q96 0 162.5 -65.5t66.5 -191.5zM450 270q0 86 -36.5 138.5t-111.5 52.5
q-91 0 -143 -64t-52 -151q0 -84 40.5 -137.5t109.5 -53.5q80 0 136.5 57t56.5 158z" />
    <glyph glyph-name="b" unicode="b" horiz-adv-x="625" 
d="M325 524q100 0 158.5 -67t58.5 -179q0 -120 -73.5 -202.5t-192.5 -82.5q-92 0 -157 67.5t-65 198.5v508q0 9 10 16t26 7t26 -7t10 -16l1 -356q31 49 84.5 81t113.5 32zM469 287q0 73 -36.5 123.5t-110.5 50.5q-83 0 -139.5 -68.5t-56.5 -156.5q0 -79 40.5 -129.5
t113.5 -50.5q90 0 139.5 63t49.5 168z" />
    <glyph glyph-name="c" unicode="c" horiz-adv-x="590" 
d="M509 122q7 -6 10.5 -14t3.5 -18q0 -29 -61.5 -63t-153.5 -34q-126 0 -199.5 74.5t-73.5 189.5q0 123 75.5 194.5t189.5 71.5q76 0 142 -35.5t66 -56.5q0 -12 -4.5 -19.5t-12.5 -11.5q-7 -3 -15 -2.5t-13 4.5q-34 27 -70.5 43t-94.5 16q-77 0 -133.5 -53t-56.5 -151
q0 -95 53.5 -154.5t162.5 -59.5q58 0 109.5 24t75.5 55z" />
    <glyph glyph-name="d" unicode="d" horiz-adv-x="627" 
d="M486 790q16 0 26 -7t10 -16l3 -480q0 -128 -74.5 -211t-192.5 -83q-95 0 -159.5 67.5t-64.5 183.5q0 115 75.5 197.5t184.5 82.5q52 0 94.5 -21.5t61.5 -47.5v312q0 9 10 16t26 7zM451 276q0 84 -39.5 134.5t-108.5 50.5q-90 0 -143 -66t-53 -163q0 -83 41.5 -130
t112.5 -47q94 0 142 65t48 156z" />
    <glyph glyph-name="e" unicode="e" horiz-adv-x="617" 
d="M512 96q6 -3 10 -8.5t4 -15.5q-13 -30 -67 -54.5t-141 -24.5q-133 0 -208.5 76t-75.5 188q0 118 81.5 192.5t197.5 74.5q92 0 157 -46t65 -112q0 -77 -60 -119t-159 -42q-52 0 -106.5 16.5t-97.5 56.5q-1 -111 53.5 -173t168.5 -62q49 0 99.5 14.5t78.5 38.5zM314 461
q-52 0 -104 -28.5t-84 -97.5q39 -37 87 -55.5t103 -18.5q58 0 101 26t43 75q0 53 -45.5 76t-100.5 23z" />
    <glyph glyph-name="f" unicode="f" horiz-adv-x="420" 
d="M324 718q-56 0 -80.5 -18.5t-35.5 -46.5q-10 -24 -11.5 -49.5t-1.5 -82.5v-53h119q29 0 34.5 -5t5.5 -12q0 -19 -20 -32t-47 -13h-92v-383q0 -9 -10 -16t-26 -7t-26 7t-10 16v383h-88q-18 0 -25 3t-7 12q0 15 17.5 31t47.5 16h55v57q0 92 15.5 134.5t40.5 70.5t55.5 39
t67.5 11h56q22 0 27.5 -3t5.5 -9q0 -5 -4 -17t-10 -19q-8 -9 -19 -11.5t-34 -2.5z" />
    <glyph glyph-name="g" unicode="g" horiz-adv-x="627" 
d="M525 283v-220q0 -94 -16.5 -144.5t-48.5 -85.5q-31 -32 -76 -50.5t-102 -18.5q-64 0 -108 19t-44 40q0 15 10 23t37 0q29 -9 52 -14.5t52 -5.5q85 0 128.5 53t43.5 146v83q-26 -35 -80 -61t-116 -26q-95 0 -159 65t-64 176q0 112 76 186.5t187 74.5q107 0 167.5 -65.5
t60.5 -174.5zM258 84q77 0 135 53.5t58 154.5q0 75 -39 121.5t-110 46.5q-93 0 -144 -55.5t-51 -138.5q0 -96 44.5 -139t106.5 -43z" />
    <glyph glyph-name="h" unicode="h" horiz-adv-x="625" 
d="M54 23v735q0 9 10 16t26 7t26 -7t10 -16v-324q29 38 80.5 66t121.5 28q85 0 138 -54.5t53 -162.5v-288q0 -9 -10 -16t-26 -7t-26 7t-10 16v299q0 66 -32.5 104.5t-95.5 38.5q-78 0 -135.5 -51t-57.5 -142v-249q0 -9 -10 -16t-26 -7t-26 7t-10 16z" />
    <glyph glyph-name="i" unicode="i" horiz-adv-x="277" 
d="M93 524q16 0 26 -7t10 -16v-478q0 -9 -10 -16t-26 -7t-26 7t-10 16v478q0 9 10 16t26 7zM94 671q-25 0 -43 18t-18 43t18 43t43 18t43 -18t18 -43t-18 -43t-43 -18z" />
    <glyph glyph-name="j" unicode="j" horiz-adv-x="286" 
d="M118 669q-25 0 -43 18t-18 43t18 43t43 18t43 -18t18 -43t-18 -43t-43 -18zM84 7v493q0 9 10 16t26 7t26 -7t10 -16v-495q0 -86 -15 -127t-41 -68q-19 -19 -51.5 -33t-64.5 -14h-54q-24 0 -31 4t-7 12q0 11 13 28t37 18h40q38 0 61.5 19t30.5 42q6 19 8 52t2 69z" />
    <glyph glyph-name="k" unicode="k" horiz-adv-x="583" 
d="M498 51q12 -17 12.5 -27t-3.5 -14q-5 -5 -11.5 -7.5t-18.5 -2.5q-11 0 -20 2.5t-20 15.5l-188 279l-123 -104v-170q0 -9 -10 -16t-26 -7t-26 7t-10 16v735q0 9 10 16t26 7t26 -7t10 -16v-485l271 234q11 10 20.5 14t20.5 3q13 -1 22 -9t9 -18q0 -8 -5 -15t-13 -14
l-153 -133z" />
    <glyph glyph-name="l" unicode="l" horiz-adv-x="277" 
d="M100 781q16 0 26 -7t10 -16v-735q0 -9 -10 -16t-26 -7t-26 7t-10 16v735q0 9 10 16t26 7z" />
    <glyph glyph-name="m" unicode="m" horiz-adv-x="782" 
d="M518 526q80 0 128.5 -48.5t48.5 -147.5v-309q0 -9 -10 -16t-26 -7t-26 7t-10 16v329q0 54 -26.5 85.5t-77.5 31.5q-52 0 -80.5 -36t-28.5 -82v-327q0 -9 -10 -16t-26 -7t-26 7t-10 16v327q0 45 -25.5 81.5t-77.5 36.5q-51 0 -80 -31.5t-29 -85.5v-327q0 -9 -10 -16
t-26 -7t-26 7t-10 16v304q0 105 52.5 152t128.5 47q41 0 79 -19t61 -55q24 33 61 53.5t82 20.5z" />
    <glyph glyph-name="n" unicode="n" horiz-adv-x="626" 
d="M328 528q85 0 138 -54.5t53 -162.5v-288q0 -9 -10 -16t-26 -7t-26 7t-10 16v299q0 66 -32.5 104.5t-95.5 38.5q-78 0 -135.5 -51t-57.5 -142v-249q0 -9 -10 -16t-26 -7t-26 7t-10 16v473q0 9 10 16t26 7t26 -7t10 -16v-62q29 38 80.5 66t121.5 28z" />
    <glyph glyph-name="o" unicode="o" horiz-adv-x="648" 
d="M299 524q116 0 192.5 -71t76.5 -196q0 -119 -74 -191.5t-195 -72.5q-123 0 -194.5 74.5t-71.5 189.5q0 126 76 196.5t190 70.5zM299 56q87 0 141.5 53.5t54.5 147.5q0 93 -54 148.5t-142 55.5q-87 0 -140 -55.5t-53 -148.5q0 -94 53 -147.5t140 -53.5z" />
    <glyph glyph-name="p" unicode="p" horiz-adv-x="625" 
d="M314 523q103 0 165.5 -68t62.5 -191t-60.5 -193.5t-170.5 -70.5h-50q-44 0 -80.5 17t-54.5 40v-270q0 -9 -10 -16t-26 -7t-26 7t-10 16v538q0 98 50.5 148t138.5 50h71zM300 63q91 0 130.5 53t39.5 148q0 97 -42.5 146.5t-120.5 49.5h-61q-54 0 -87 -28.5t-33 -84.5v-153
q0 -58 39 -94.5t96 -36.5h39z" />
    <glyph glyph-name="q" unicode="q" horiz-adv-x="626" 
d="M34 264q0 128 65.5 193.5t160.5 65.5h71q87 0 139 -47t52 -167v-522q0 -9 -10 -16t-26 -7t-26 7t-10 16v269q-22 -25 -61 -41t-83 -16h-44q-104 0 -166 68.5t-62 196.5zM107 264q0 -105 42 -153.5t128 -48.5h33q59 0 99.5 36t40.5 99v140q1 63 -31 93t-90 30h-53
q-79 0 -124 -45.5t-45 -150.5z" />
    <glyph glyph-name="r" unicode="r" horiz-adv-x="393" 
d="M244 537q41 0 56 -13.5t14 -26.5q-78 1 -128 -46t-50 -170v-258q0 -9 -10 -16t-26 -7t-26 7t-10 16v270q0 121 57.5 182.5t122.5 61.5z" />
    <glyph glyph-name="s" unicode="s" horiz-adv-x="569" 
d="M253 290q141 -28 185 -60t44 -85q0 -63 -58 -107.5t-177 -44.5q-49 0 -107 16t-80 31q-48 30 -25 60q7 10 26 1q44 -21 92.5 -33.5t97.5 -12.5q80 0 119 23.5t39 60.5q0 42 -43.5 60t-157.5 44q-83 19 -120 52t-37 91q0 62 59.5 101t161.5 39q59 0 108.5 -15.5
t69.5 -29.5q17 -12 18.5 -20t-3.5 -17q-8 -14 -23 -16.5t-32 5.5q-27 12 -67.5 22t-81.5 10q-65 0 -102.5 -20.5t-37.5 -61.5q0 -44 38 -63t94 -30z" />
    <glyph glyph-name="t" unicode="t" horiz-adv-x="390" 
d="M278 522q24 0 29.5 -4t5.5 -11q0 -10 -13.5 -26t-36.5 -16h-132v-217q0 -38 2 -73.5t15 -63.5q31 -74 101 -74q6 0 15 2t16 5q0 -21 -15.5 -33t-46.5 -12q-34 0 -74 22.5t-64 80.5q-13 32 -17 77.5t-4 71.5v403q0 9 10 16t26 7t26 -7t10 -16v-132h147z" />
    <glyph glyph-name="u" unicode="u" horiz-adv-x="626" 
d="M486 524q20 0 28 -8t8 -22v-470q0 -9 -10 -16t-26 -7t-26 7t-10 16v86q-29 -47 -87 -78.5t-130 -31.5q-75 0 -127 49.5t-52 165.5v279q0 15 9 23t27 8q20 0 28 -8t8 -22v-301q0 -61 32 -96t93 -35q85 0 142 56.5t57 111.5v262q0 15 9 23t27 8z" />
    <glyph glyph-name="v" unicode="v" horiz-adv-x="531" 
d="M428 531q13 0 20 -5.5t4 -14.5l-176 -479q-6 -16 -16 -23.5t-26 -7.5t-25.5 7t-15.5 22l-175 481q-3 9 4 14.5t20 5.5q17 0 30 -5t20 -21l141 -393l146 393q7 16 19.5 21t29.5 5z" />
    <glyph glyph-name="w" unicode="w" horiz-adv-x="739" 
d="M665 531q13 0 19 -6t4 -15l-124 -479q-6 -16 -18 -23.5t-28 -7.5t-27.5 7t-17.5 22l-118 376l-122 -375q-6 -16 -17.5 -23.5t-27.5 -7.5t-28 7t-18 22l-121 481q-2 9 4 15.5t19 6.5q17 0 28.5 -6.5t15.5 -20.5l103 -411l126 409q5 15 14 22.5t25 7.5t25.5 -7t13.5 -22
l122 -408l102 407q3 16 16 22.5t30 6.5z" />
    <glyph glyph-name="x" unicode="x" horiz-adv-x="555" 
d="M417 24l-388 468q-8 9 -9.5 16.5t2.5 12.5q5 6 17.5 9t19.5 2q8 -1 16 -6.5t19 -17.5l382 -447q12 -13 16 -22t4 -15q0 -9 -8.5 -17t-28.5 -8q-10 0 -20.5 6t-21.5 19zM102 31q-12 -15 -24 -23t-23 -8q-16 0 -23.5 5.5t-7.5 16.5q0 6 4.5 13t14.5 19l372 453
q9 11 18.5 18.5t20.5 8.5q13 1 24.5 -3t16.5 -11q4 -6 1.5 -14t-10.5 -17z" />
    <glyph glyph-name="y" unicode="y" horiz-adv-x="563" 
d="M476 528q14 0 19 -9.5t-4 -32.5l-279 -685q-11 -25 -31.5 -32t-37.5 0q-11 4 -11.5 16t8.5 34l111 265l-223 405q-10 18 -3.5 28.5t20.5 10.5q21 0 34 -5.5t22 -22.5l185 -327l131 322q9 21 22 27t37 6z" />
    <glyph glyph-name="z" unicode="z" horiz-adv-x="519" 
d="M378 0h-298q-35 0 -46 19t7 46l274 396h-235q-18 0 -29.5 3t-11.5 14q0 22 17 33.5t47 11.5h291q21 0 25.5 -15.5t-5.5 -32.5l-286 -413h259q33 0 41.5 -5t8.5 -13q0 -16 -16 -30t-43 -14z" />
    <glyph glyph-name="braceleft" unicode="{" horiz-adv-x="348" 
d="M211 -11q0 -40 17.5 -65t9.5 -43q-4 -4 -10.5 -6.5t-8.5 -2.5q-7 0 -43.5 34t-36.5 85v250q0 44 -10 79.5t-33 51.5q-25 22 0 42q23 18 33 53t10 79v251q0 51 36.5 83.5t49.5 32.5q7 0 14 -11t-5 -30q-12 -18 -17.5 -37.5t-5.5 -40.5v-235q0 -52 -9.5 -93.5t-46.5 -71.5
q41 -32 48.5 -78t7.5 -87v-240z" />
    <glyph glyph-name="bar" unicode="|" horiz-adv-x="292" 
d="M109 -78v925q0 15 9 23t26 8q19 0 28 -8t9 -22v-926q0 -9 -11 -16t-26 -7t-25 7t-10 16z" />
    <glyph glyph-name="braceright" unicode="}" horiz-adv-x="348" 
d="M125 -11v240q0 41 7.5 87t48.5 78q-37 30 -46.5 71.5t-9.5 93.5v239q0 21 -5.5 38t-17.5 35q-12 19 -5 30t14 11q13 0 49.5 -32t36.5 -83v-251q0 -44 10 -79t33 -53q11 -13 11 -23t-11 -19q-23 -16 -33 -51.5t-10 -79.5v-250q0 -51 -36.5 -85t-43.5 -34q-2 0 -8.5 2.5
t-10.5 6.5q-8 18 9.5 43t17.5 65z" />
    <glyph glyph-name="asciitilde" unicode="~" horiz-adv-x="602" 
d="M533 438q21 9 32 -5t11 13q-3 -16 -12.5 -31.5t-27.5 -26.5q-41 -26 -115 -24t-120 33q-72 48 -122 54t-108 -20q-11 -3 -20 -2t-15 7q-3 5 1.5 17t30.5 29q48 31 129.5 25.5t164.5 -67.5q33 -25 82.5 -22t88.5 20z" />
    <glyph glyph-name="exclamdown" unicode="&#xa1;" horiz-adv-x="910" 
d="M405 596v91h92v-91h-92zM401 9l18 517h63l15 -517h-96z" />
    <glyph glyph-name="currency" unicode="&#xa4;" horiz-adv-x="910" 
d="M773 155l-150 141q-34 -22 -78 -39.5t-96 -17.5q-57 0 -100.5 15t-70.5 37l-140 -132l-41 40l134 141q-32 38 -46.5 81.5t-14.5 92.5q0 48 14.5 93.5t46.5 82.5l-138 139l45 40l140 -135q27 26 70.5 39t100.5 13q52 0 94 -13t76 -39l148 139l44 -39l-145 -149
q33 -35 48.5 -79t15.5 -87q0 -48 -15.5 -94.5t-43.5 -84.5l140 -145zM449 738q-53 0 -96.5 -18t-70.5 -52q-31 -31 -46 -73t-15 -85q0 -45 15 -86t46 -71q31 -31 72.5 -51.5t94.5 -20.5q48 0 89 20.5t72 51.5q32 30 49 71t17 86q0 43 -15 85t-48 73q-28 34 -70 52t-94 18z
" />
    <glyph glyph-name="section" unicode="&#xa7;" horiz-adv-x="910" 
d="M297 529q0 55 29 88q39 40 121 40q88 0 128 -40q28 -24 36 -63h-71l-20 23q-20 28 -73 28q-42 0 -62 -28q-20 -19 -20 -48q0 -36 43 -55l136 -52q71 -28 71 -96q0 -59 -55 -107q51 -28 51 -92q0 -47 -36 -79q-48 -47 -123 -47q-91 0 -131 40q-28 27 -32 67h72l20 -33
q8 -11 71 -11q52 0 72 16t20 47q0 40 -60 56q-96 32 -139 56q-52 28 -52 95q0 65 52 96l-19 20q-29 24 -29 79zM425 267q36 -16 84 -28q43 32 43 72t-43 59l-113 43q-39 -27 -39 -66q0 -28 20 -48q15 -16 48 -32z" />
    <glyph glyph-name="dieresis" unicode="&#xa8;" horiz-adv-x="910" 
d="M298 609q0 -25 -18 -43t-43 -18t-43 18t-18 43t18 43t43 18t43 -18t18 -43zM748 609q0 -25 -18 -43t-43 -18t-43 18t-18 43t18 43t43 18t43 -18t18 -43z" />
    <glyph glyph-name="ordfeminine" unicode="&#xaa;" horiz-adv-x="1024" 
d="M528 424q-20 -29 -56.5 -48t-66.5 -19q-85 0 -141 55.5t-56 151.5q0 81 54 143.5t143 62.5q33 0 67 -16t56 -58v43q0 26 5.5 28.5t26.5 2.5q25 0 32 -3.5t7 -24.5v-366q0 -10 -4.5 -14.5t-34.5 -4.5q-25 0 -28.5 1.5t-3.5 36.5v29zM528 593q0 41 -28 79t-93 38t-98.5 -45
t-33.5 -101q0 -72 37.5 -108t92.5 -36q63 0 93 29.5t30 76.5v67zM646 273q-8 -54 -57 -54h-343q-21 0 -23 1.5t-2 17.5q7 47 70 47h313q42 0 42 -12z" />
    <glyph glyph-name="uni00AD" unicode="&#xad;" horiz-adv-x="910" 
d="M595 365h-374v49h374v-49z" />
    <glyph glyph-name="registered" unicode="&#xae;" horiz-adv-x="910" 
d="M331 700h181q76 0 122 -39t46 -122q0 -69 -48 -108.5t-125 -48.5q42 -36 80.5 -72t90.5 -102q17 -21 20.5 -29.5t-5.5 -14.5q-28 -16 -46 -10.5t-35 24.5l-100 119q-27 33 -64.5 57.5t-84.5 24.5v-200q0 -10 -5.5 -16.5t-31.5 -6.5q-23 0 -29.5 6t-6.5 16v497q0 11 7 18
t34 7zM609 538q0 66 -27 87.5t-82 21.5h-137v-215h136q42 0 76 24t34 82zM898 440q0 -193 -125.5 -322t-314.5 -129q-184 0 -313.5 129t-129.5 322q0 185 127.5 315t315.5 130q189 0 314.5 -130t125.5 -315zM856 439q0 170 -114 286.5t-284 116.5q-171 0 -286.5 -116.5
t-115.5 -286.5t115.5 -288t286.5 -118q170 0 284 118t114 288z" />
    <glyph glyph-name="degree" unicode="&#xb0;" horiz-adv-x="910" 
d="M337 661q0 26 9.5 49t25.5 40q16 16 38 26.5t46 10.5q26 0 48 -10.5t38 -27.5t25.5 -39.5t9.5 -48.5q0 -25 -9.5 -48t-25.5 -40t-38 -27.5t-48 -10.5q-50 0 -84 37q-16 17 -25.5 39.5t-9.5 49.5v0zM385 661q0 -33 20.5 -54.5t50.5 -21.5q31 0 52 21.5t21 54.5t-21 54.5
t-52 21.5q-30 0 -50.5 -21.5t-20.5 -54.5v0z" />
    <glyph glyph-name="plusminus" unicode="&#xb1;" horiz-adv-x="910" 
d="M420 637h63v-180h196v-58h-196v-176h-63v176h-196v58h196v180zM224 159h455v-59h-455v59z" />
    <glyph glyph-name="uni00B2" unicode="&#xb2;" horiz-adv-x="910" 
d="M35 813q0 60 37.5 102.5t117.5 42.5q66 0 102.5 -34t36.5 -96q0 -47 -27 -84.5t-88 -70.5q-47 -29 -66.5 -45.5t-20.5 -23.5h181q25 -3 25 -37t-24 -38h-283q2 79 37 125q27 33 76.5 64.5l49.5 31.5q52 34 52 81q0 29 -14.5 43.5t-37.5 14.5q-28 0 -47.5 -17t-19.5 -59
q-3 -31 -42 -30q-42 0 -45 30z" />
    <glyph glyph-name="uni00B3" unicode="&#xb3;" horiz-adv-x="910" 
d="M30 838q2 51 36 86q39 38 116 38q71 0 110 -39q29 -33 29 -84q0 -30 -12.5 -54.5t-24.5 -29.5q19 -10 34.5 -39.5t15.5 -59.5q0 -55 -39 -95q-50 -40 -121 -40q-81 0 -117 30.5t-36 88.5q4 28 45 28q23 0 34.5 -7.5t11.5 -22.5q0 -25 13.5 -35t47.5 -10q31 0 50 17.5
t19 49.5q0 28 -15 42t-46 14h-17q-27 4 -27 38q0 31 27 38h12q26 0 42 12.5t16 37.5q0 20 -15 32.5t-41 12.5q-29 0 -45.5 -14t-16.5 -42q-7 -28 -43 -28q-42 2 -43 35z" />
    <glyph glyph-name="acute" unicode="&#xb4;" horiz-adv-x="910" 
d="M449 668h-62l62 192h82z" />
    <glyph glyph-name="paragraph" unicode="&#xb6;" horiz-adv-x="910" 
d="M514 94v691h-65v-691h-154v48q27 0 44.5 4.5t21.5 12.5q9 4 11 19.5t2 37.5v244q-87 0 -135.5 51t-48.5 134q0 101 55 142.5t160 41.5h271v-44q-30 0 -46.5 -4.5t-22.5 -8.5q-9 -8 -9 -22v-34v-504v-35t9 -18q3 -8 21 -12.5t48 -8.5v-44h-162z" />
    <glyph glyph-name="periodcentered" unicode="&#xb7;" horiz-adv-x="910" 
d="M515 402q0 -25 -18 -43t-43 -18t-43 18t-18 43t18 43t43 18t43 -18t18 -43z" />
    <glyph glyph-name="cedilla" unicode="&#xb8;" horiz-adv-x="910" 
d="M422 -64q-30 0 -47.5 9t-40.5 23l19 40q17 -15 30 -19.5t27 -4.5q16 0 36.5 12t20.5 37q0 17 -9 22t-36 5h-17h-18l-17 4l44 118h49l-19 -70h11.5h19.5q32 0 53.5 -20t21.5 -59q0 -40 -31.5 -68.5t-96.5 -28.5z" />
    <glyph glyph-name="uni00B9" unicode="&#xb9;" horiz-adv-x="910" 
d="M247 905v-361q0 -30 -43 -30q-44 0 -44 29v303l-40 -20q-32 -15 -56 19q-17 41 11 59l74 39q34 17 69 10q29 -14 29 -48z" />
    <glyph glyph-name="ordmasculine" unicode="&#xba;" horiz-adv-x="910" 
d="M646 272q-8 -54 -57 -54h-343q-21 0 -23 1.5t-2 17.5q7 47 70 47h313q42 0 42 -12zM615 561q0 -101 -55 -150t-130 -49q-89 0 -143.5 51.5t-54.5 147.5q0 94 56 152.5t138 58.5q80 0 134.5 -56.5t54.5 -154.5zM543 561q0 73 -32.5 110.5t-84.5 37.5q-50 0 -86 -38
t-36 -110t35.5 -105t89.5 -33q48 0 81 32t33 106z" />
    <glyph glyph-name="onequarter" unicode="&#xbc;" horiz-adv-x="910" 
d="M62 886h40q39 4 60 25q19 15 19 47h53v-422h-72v287h-100v63zM638 540h81v-270h59v-60h-59v-92h-69v92h-211v60zM512 270h138v191zM682 911l37 -17l-652 -776l-32 25z" />
    <glyph glyph-name="onehalf" unicode="&#xbd;" horiz-adv-x="910" 
d="M67 894h35q43 4 61 22t22 46h49v-422h-68v291h-99v63zM686 934l36 -32l-643 -772l-44 28zM476 389q0 68 38 107.5t110 39.5q62 0 98 -35q36 -32 36 -76q0 -56 -24 -92q-18 -35 -80 -68q-34 -15 -60.5 -39t-26.5 -45h191v-63h-286q0 73 40 116q24 28 90 72q44 27 64 53
t20 58q0 23 -18 37.5t-40 14.5q-33 0 -56.5 -18t-23.5 -62h-72z" />
    <glyph glyph-name="threequarters" unicode="&#xbe;" horiz-adv-x="910" 
d="M23 838q0 60 42 92t108 32q61 0 96 -28t35 -75v-17q0 -35 -17.5 -57t-41.5 -26q36 -16 52 -42.5t16 -65.5q0 -44 -40 -79q-39 -40 -103 -40q-63 0 -103 24q-44 32 -53 108h71q0 -44 26 -57q22 -15 59 -15q28 0 49.5 20t21.5 44q0 34 -20 52.5t-48 18.5h-32v60h36
q21 0 36.5 18t15.5 41q0 25 -17.5 40.5t-41.5 15.5q-37 0 -59 -24q-14 -11 -22 -40h-66zM624 540h83v-270h51v-60h-51v-92h-71v92h-211v60zM496 270h140v187zM682 911l37 -17l-652 -776l-32 25z" />
    <glyph glyph-name="questiondown" unicode="&#xbf;" horiz-adv-x="910" 
d="M405 597v91h87v-91h-87zM431 1q-39 0 -72 11.5t-59 32.5q-27 22 -40 55t-13 81q0 43 13 74t35 56q18 28 44.5 52t47.5 55q14 25 20.5 49.5t6.5 59.5h68q0 -35 -3.5 -61.5t-15.5 -47.5q-9 -23 -25 -42.5t-33 -41.5q-39 -38 -57 -69.5t-18 -83.5q0 -54 28.5 -81.5
t76.5 -27.5q19 0 35.5 2.5t36.5 5.5q16 5 33.5 9t38.5 9v-74q-38 -9 -73.5 -16t-74.5 -7z" />
    <glyph glyph-name="AE" unicode="&#xc6;" horiz-adv-x="910" 
d="M838 7l-306 1q-39 0 -61 19t-22 58v143h-254l-77 -190q-7 -24 -14 -35.5t-48 -0.5q-25 9 -26 18.5t9 39.5l286 684q7 25 15 34t48 9h465q25 0 31.5 -4t6.5 -12q0 -17 -15.5 -31.5t-37.5 -14.5h-310v-300h303q25 0 31.5 -4t6.5 -12q0 -17 -15.5 -31.5t-37.5 -14.5h-288
v-258q0 -19 9.5 -27.5t30.5 -8.5h285q25 0 31.5 -4t6.5 -12q0 -17 -15.5 -31.5t-37.5 -14.5zM449 290v432h-47l-183 -432h230z" />
    <glyph glyph-name="Eth" unicode="&#xd0;" horiz-adv-x="910" 
d="M407 758q173 -1 266 -105t92 -276q-1 -182 -93 -298t-272 -116q-86 0 -126.5 4t-58.5 4q-19 0 -29 9.5t-10 25.5v712q0 16 7.5 22.5t33.5 8.5q31 4 75 6.5t115 2.5zM430 25q124 0 193 106.5t69 245.5q0 145 -71 232t-192 87q-63 0 -94 -3.5t-87 -12.5v-639q55 -12 87 -14
t95 -2zM444 342h-376q-15 0 -22 3.5t-7 13.5q0 17 10 30.5t30 13.5h380q19 0 23.5 -5.5t4.5 -14.5q0 -15 -8.5 -28t-34.5 -13z" />
    <glyph glyph-name="multiply" unicode="&#xd7;" horiz-adv-x="910" 
d="M238 554l45 39l165 -167l172 167l44 -43l-167 -168l167 -175l-39 -40l-172 167l-179 -178l-40 44l175 182z" />
    <glyph glyph-name="Oslash" unicode="&#xd8;" horiz-adv-x="910" 
d="M461 788q151 0 246.5 -105t95.5 -294q0 -185 -94 -290.5t-248 -105.5t-247 102.5t-93 293.5q0 193 94 296t246 103zM461 56q138 0 203.5 98t65.5 235q0 158 -73 247t-196 89q-124 0 -195.5 -91.5t-71.5 -244.5q0 -137 66.5 -235t200.5 -98zM778 759l-620 -772
q-22 -25 -46 -10q-22 16 0 49l612 767q21 19 44 6q23 -16 10 -40z" />
    <glyph glyph-name="Thorn" unicode="&#xde;" horiz-adv-x="910" 
d="M471 256q62 0 108 47t46 113q0 62 -36 112t-119 50h-201v-322h202zM198 761q0 16 7.5 22t27.5 6q21 0 28.5 -6t7.5 -26v-117h190q133 0 185.5 -66t52.5 -156q0 -91 -60.5 -156t-174.5 -65h-193v-162q0 -18 -6.5 -23.5t-29.5 -5.5q-22 0 -28.5 5t-6.5 21v729z" />
    <glyph glyph-name="germandbls" unicode="&#xdf;" horiz-adv-x="824" 
d="M709 261q-1 -103 -67.5 -167t-202.5 -64h-14q-24 5 -21.5 35t48.5 30h13q75 0 122.5 45t48.5 116q-1 68 -54 116t-151 48q-25 0 -30.5 8t-5.5 24t4.5 22t24.5 7q51 0 104 32t53 106q0 54 -37 85.5t-100 31.5t-104 -32t-41 -102v-556q0 -57 -37 -57t-37 55v532
q0 127 57.5 173.5t163.5 46.5q103 0 156.5 -45t53.5 -121q0 -68 -37 -111t-106 -63q101 -1 148.5 -68t47.5 -127z" />
    <glyph glyph-name="ae" unicode="&#xe6;" horiz-adv-x="910" 
d="M236 0q-88 0 -150.5 72t-62.5 189q0 111 63.5 186.5t146.5 75.5q53 0 91 -30.5t63 -74.5q7 38 19 65t21 34q19 15 43.5 5t13.5 -39q-20 -55 -28.5 -100.5t-8.5 -121.5q0 -52 7 -105.5t26 -116.5q8 -27 -25 -33.5t-46 26.5l-21 73q-20 -49 -65.5 -77t-86.5 -28zM375 265
q0 79 -44 137.5t-99 58.5q-59 0 -101.5 -58.5t-42.5 -137.5q0 -80 43 -141.5t100 -61.5q62 0 103 64t41 139zM806 95q6 -3 9.5 -8.5t3.5 -15.5q-9 -31 -59 -55t-132 -24q-118 0 -185 77.5t-67 186.5q0 118 73.5 192.5t177.5 74.5q83 0 141.5 -46t58.5 -112q0 -77 -54 -119
t-143 -42q-47 0 -95.5 16.5t-87.5 56.5q-1 -111 52.5 -173t152.5 -62q45 0 91.5 15.5t62.5 37.5zM628 460q-47 0 -92 -25t-77 -101q35 -37 78 -55.5t93 -18.5q52 0 91 26t39 75q0 53 -41 76t-91 23z" />
    <glyph glyph-name="eth" unicode="&#xf0;" horiz-adv-x="910" 
d="M456 524q116 0 192.5 -71t76.5 -196q0 -119 -74 -191.5t-195 -72.5q-123 0 -194.5 74.5t-71.5 189.5q0 126 76 196.5t190 70.5zM456 56q87 0 141.5 53.5t54.5 147.5q0 93 -54 148.5t-142 55.5q-87 0 -140 -55.5t-53 -148.5q0 -94 53 -147.5t140 -53.5zM572 497l-34 51
t-57 67q-69 -46 -145 -86q-26 -15 -44 7.5t8 43.5q73 38 134 79q-46 37 -88 74q-16 17 4 41.5t58 3.5q22 -12 88 -79q63 39 108 68q21 11 40.5 -12.5t3.5 -35.5q-38 -31 -102 -66q66 -86 110 -183t45 -136z" />
    <glyph glyph-name="divide" unicode="&#xf7;" horiz-adv-x="910" 
d="M403 661h100v-99h-100v99zM213 410h480v-59h-480v59zM403 207h100v-103h-100v103z" />
    <glyph glyph-name="oslash" unicode="&#xf8;" horiz-adv-x="910" 
d="M456 524q116 0 192.5 -71t76.5 -196q0 -119 -74 -191.5t-195 -72.5q-123 0 -194.5 74.5t-71.5 189.5q0 126 76 196.5t190 70.5zM456 56q87 0 141.5 53.5t54.5 147.5q0 93 -54 148.5t-142 55.5q-87 0 -140 -55.5t-53 -148.5q0 -94 53 -147.5t140 -53.5zM738 517l-533 -516
q-26 -20 -50 -5q-22 16 4 44l525 511q26 20 49 7q23 -16 5 -41z" />
    <glyph glyph-name="thorn" unicode="&#xfe;" horiz-adv-x="910" 
d="M510 523q105 0 157 -72t52 -187q0 -117 -64.5 -190.5t-166.5 -73.5h-59q-40 0 -74 18.5t-51 48.5v-280q0 -9 -10 -16t-26 -7t-26 7t-10 16v538q0 61 16.5 100.5t38.5 59.5q26 23 57 30.5t65 7.5h101zM477 63q87 0 128.5 56t41.5 145t-34.5 142.5t-104.5 53.5h-96
q-47 0 -77.5 -28t-30.5 -84v-171q0 -57 43 -85.5t82 -28.5h48zM268 777q16 0 26 -7t10 -16v-499q0 -9 -10 -16t-26 -7t-26 7t-10 16v499q0 9 10 16t26 7z" />
    <glyph glyph-name="dcroat" unicode="&#x111;" horiz-adv-x="910" 
d="M639 790q16 0 26 -7t10 -16l3 -480q0 -128 -75 -211t-193 -83q-97 0 -160 71.5t-63 184.5q0 115 75.5 195t184.5 80q52 0 94.5 -22t61.5 -48v313q0 9 10 16t26 7zM604 276q0 84 -39.5 134.5t-108.5 50.5q-97 0 -146.5 -71.5t-49.5 -157.5q0 -65 42 -121t112 -56
q103 0 146.5 70.5t43.5 150.5zM771 605h-411q-15 0 -22 3.5t-7 13.5q0 17 10 30.5t30 13.5h415q19 0 23.5 -5.5t4.5 -14.5q0 -15 -8.5 -28t-34.5 -13z" />
    <glyph glyph-name="Hbar" unicode="&#x126;" horiz-adv-x="910" 
d="M710 782q16 0 27 -7t11 -16v-736q0 -9 -10 -16t-26 -7t-26 7t-10 16v341h-413v-341q0 -9 -10 -16t-26 -7t-26 7t-10 16v734q0 9 10 16t26 7t26 -7t10 -16v-331h413v333q0 9 9 16t25 7zM816 592h-728q-15 0 -22 3.5t-7 13.5q0 17 10 30.5t30 13.5h732q19 0 23.5 -5.5
t4.5 -14.5q0 -15 -8.5 -28t-34.5 -13z" />
    <glyph glyph-name="hbar" unicode="&#x127;" horiz-adv-x="910" 
d="M237 23v752q0 9 10 16t26 7t26 -7t10 -16v-372q36 51 87 85.5t129 34.5q80 0 129 -51t49 -165v-284q0 -9 -10 -16t-26 -7t-26 7t-10 16v307q0 55 -29 92.5t-103 37.5q-68 0 -129 -61t-61 -163v-213q0 -9 -10 -16t-26 -7t-26 7t-10 16zM552 613h-411q-15 0 -22 3.5
t-7 13.5q0 17 10 30.5t30 13.5h415q19 0 23.5 -5.5t4.5 -14.5q0 -15 -8.5 -28t-34.5 -13z" />
    <glyph glyph-name="dotlessi" unicode="&#x131;" horiz-adv-x="910" 
d="M457 524q16 0 26 -7t10 -16v-478q0 -9 -10 -16t-26 -7t-26 7t-10 16v478q0 9 10 16t26 7z" />
    <glyph glyph-name="IJ" unicode="&#x132;" horiz-adv-x="910" 
d="M254 23v734q0 9 10 16t26 7t26 -7t10 -16v-734q0 -9 -10 -16t-26 -7t-26 7t-10 16zM673 757v-484q0 -70 -9.5 -119.5t-48.5 -92.5q-20 -22 -57 -42t-112 -20h-58q-21 0 -28.5 5t-7.5 15q0 17 17.5 30t48.5 13h55q40 0 65.5 17.5t38.5 39.5q15 26 19.5 63t4.5 94v481
q0 9 10 16t26 7t26 -7t10 -16z" />
    <glyph glyph-name="ij" unicode="&#x133;" horiz-adv-x="910" 
d="M337 524q16 0 26 -7t10 -16v-478q0 -9 -10 -16t-26 -7t-26 7t-10 16v478q0 9 10 16t26 7zM338 671q-25 0 -43 18t-18 43t18 43t43 18t43 -18t18 -43t-18 -43t-43 -18zM565 669q-25 0 -43 18t-18 43t18 43t43 18t43 -18t18 -43t-18 -43t-43 -18zM531 7v493q0 9 10 16t26 7
t26 -7t10 -16v-495q0 -86 -15 -127t-41 -68q-19 -19 -51.5 -33t-64.5 -14h-54q-24 0 -32 4t-8 12q0 11 14 28t38 18h40q38 0 61.5 19t30.5 42q6 19 8 52t2 69z" />
    <glyph glyph-name="kgreenlandic" unicode="&#x138;" horiz-adv-x="910" 
d="M558 399l-46 41q13 12 44.5 37t67.5 25q51 0 86 -47.5t23 -61.5q-8 -11 -25 -12.5t-17 -0.5q-10 8 -22.5 35t-38.5 27q-18 0 -43.5 -20t-28.5 -23zM681 51q12 -17 14 -26.5t-2 -13.5q-5 -5 -11.5 -7.5t-18.5 -2.5q-11 0 -20 2.5t-20 15.5l-190 276l-121 -104v-167
q0 -9 -10 -16t-26 -7t-26 7t-10 16l-1 482q0 9 10 16t26 7t26 -7t10 -16l1 -232l230 192l40 -47l-98 -84z" />
    <glyph glyph-name="Ldot" unicode="&#x13f;" horiz-adv-x="910" 
d="M651 0h-360q-20 0 -33 11.5t-13 25.5v720q0 9 10 16t26 7t26 -7t10 -16v-695h349q25 0 31.5 -4t6.5 -12q0 -17 -15.5 -31.5t-37.5 -14.5zM598 401q0 -25 -18 -43t-43 -18t-43 18t-18 43t18 43t43 18t43 -18t18 -43z" />
    <glyph glyph-name="ldot" unicode="&#x140;" horiz-adv-x="910" 
d="M340 781q16 0 26 -7t10 -16v-735q0 -9 -10 -16t-26 -7t-26 7t-10 16v735q0 9 10 16t26 7zM612 401q0 -25 -18 -43t-43 -18t-43 18t-18 43t18 43t43 18t43 -18t18 -43z" />
    <glyph glyph-name="Lslash" unicode="&#x141;" horiz-adv-x="910" 
d="M644 0h-360q-20 0 -33 11.5t-13 25.5v720q0 9 10 16t26 7t26 -7t10 -16v-695h349q25 0 31.5 -4t6.5 -12q0 -17 -15.5 -31.5t-37.5 -14.5zM529 606l-429 -378q-26 -20 -50 -5q-22 16 4 44l421 373q26 20 49 7q23 -16 5 -41z" />
    <glyph glyph-name="lslash" unicode="&#x142;" horiz-adv-x="910" 
d="M450 781q16 0 26 -7t10 -16v-735q0 -9 -10 -16t-26 -7t-26 7t-10 16v735q0 9 10 16t26 7zM690 613l-429 -378q-26 -20 -50 -5q-22 16 4 44l421 373q26 20 49 7q23 -16 5 -41z" />
    <glyph glyph-name="napostrophe" unicode="&#x149;" horiz-adv-x="910" 
d="M505 529q85 0 133.5 -54.5t48.5 -162.5v-288q0 -9 -10 -16t-26 -7t-26 7t-10 16v309q0 56 -31.5 94.5t-94.5 38.5q-70 0 -132.5 -61.5t-62.5 -162.5v-218q0 -9 -10 -16t-26 -7t-26 7t-10 16v473q0 9 10 16t26 7t26 -7t10 -16v-95q32 55 85.5 91t125.5 36zM184 583
q0 -34 -17 -62.5t-48 -50.5q-11 -7 -19 0t-4 11q25 24 35.5 40t10.5 65q-21 -17 -27.5 -18.5t-17.5 -1.5q-15 0 -24.5 12t-9.5 34q0 21 16.5 36t41.5 15q32 0 47 -23.5t16 -56.5v0z" />
    <glyph glyph-name="Eng" unicode="&#x14a;" horiz-adv-x="910" 
d="M736 -69q0 -68 -30 -99t-94 -31q-24 0 -29 5t-5 25q0 11 8.5 21t32.5 11q27 0 35 20t8 58l1 74l-409 626v-618q0 -9 -10 -16t-26 -7t-26 7t-10 16v735q0 14 9 21t22 7q15 0 24.5 -4t13.5 -10l413 -620v612q0 9 10 16t26 7t26 -7t10 -16v-833z" />
    <glyph glyph-name="eng" unicode="&#x14b;" horiz-adv-x="910" 
d="M485 528q85 0 133.5 -54.5t48.5 -162.5v-288q0 -9 -10 -16t-26 -7t-26 7t-10 16v309q0 56 -31.5 94.5t-94.5 38.5q-70 0 -132.5 -61.5t-62.5 -162.5v-218q0 -9 -10 -16t-26 -7t-26 7t-10 16v473q0 9 10 16t26 7t26 -7t10 -16v-95q32 55 85.5 91t125.5 36zM667 84v-58
q0 -46 -5.5 -76t-20.5 -60q-32 -44 -110 -44q-23 0 -38 6t-15 27q0 24 3.5 27t21.5 3q70 0 81 28.5t11 100.5v46h72z" />
    <glyph glyph-name="OE" unicode="&#x152;" horiz-adv-x="910" 
d="M417 716h-16q-110 -1 -187.5 -80t-76.5 -246q-1 -186 83.5 -255t164.5 -69h32v650zM868 47q0 -17 -15.5 -31.5t-37.5 -14.5h-401q-172 0 -263.5 106t-91.5 283q4 188 99.5 285.5t245.5 98.5h417q25 0 31.5 -4t6.5 -12q0 -17 -15.5 -31.5t-37.5 -14.5h-311v-294h302
q25 0 31.5 -4t6.5 -12q0 -17 -15.5 -31.5t-37.5 -14.5h-287v-293h335q25 0 31.5 -4t6.5 -12z" />
    <glyph glyph-name="oe" unicode="&#x153;" horiz-adv-x="910" 
d="M274 524q104 0 173 -71t69 -196q0 -119 -66.5 -191.5t-175.5 -72.5q-111 0 -174.5 74.5t-63.5 189.5q0 126 67.5 196.5t170.5 70.5zM275 56q74 0 120.5 53.5t46.5 147.5q0 93 -46 148.5t-121 55.5q-74 0 -119.5 -55.5t-45.5 -148.5q0 -94 45.5 -147.5t119.5 -53.5z
M880 95q6 -3 9.5 -8.5t3.5 -15.5q-9 -31 -59 -55t-132 -24q-118 0 -185 77.5t-67 186.5q0 118 73.5 192.5t177.5 74.5q83 0 141.5 -46t58.5 -112q0 -77 -54 -119t-143 -42q-47 0 -95.5 16.5t-87.5 56.5q-1 -111 52.5 -173t152.5 -62q45 0 91.5 15.5t62.5 37.5zM702 460
q-47 0 -92 -25t-77 -101q35 -37 78 -55.5t93 -18.5q52 0 91 26t39 75q0 53 -41 76t-91 23z" />
    <glyph glyph-name="Tbar" unicode="&#x166;" horiz-adv-x="910" 
d="M223 780h490q25 0 31.5 -4t6.5 -12q0 -17 -15.5 -31.5t-37.5 -14.5h-209v-695q0 -9 -10 -16t-26 -7t-26 7t-10 16v695h-224q-21 0 -28.5 4.5t-7.5 14.5q0 17 17.5 30t48.5 13zM651 387h-411q-15 0 -22 3.5t-7 13.5q0 17 10 30.5t30 13.5h415q19 0 23.5 -5.5t4.5 -14.5
q0 -15 -8.5 -28t-34.5 -13z" />
    <glyph glyph-name="tbar" unicode="&#x167;" horiz-adv-x="910" 
d="M552 476q24 0 29.5 -4t5.5 -11q0 -10 -13.5 -26t-36.5 -16h-132v-171q0 -43 1.5 -75.5t14.5 -60.5q30 -75 102 -75q6 0 15 2t16 5q0 -21 -15.5 -33t-46.5 -12q-29 0 -64.5 18t-74.5 93q-15 36 -17.5 75.5t-2.5 65.5v403q0 9 10 16t26 7t26 -7t10 -16v-178h147zM602 537
h-387q-15 0 -22 3.5t-7 13.5q0 17 10 30.5t30 13.5h391q19 0 23.5 -5.5t4.5 -14.5q0 -15 -8.5 -28t-34.5 -13z" />
    <glyph glyph-name="caron" unicode="&#x2c7;" horiz-adv-x="910" 
d="M317 859q15 24 -6 44q-13 11 -27 13t-27 -6l-66 -50q-21 -11 -40 1l-70 51q-17 6 -31 4q-12 -5 -23 -17q-21 -20 -2 -39l97 -68q19 -14 49.5 -16.5t60.5 18.5z" />
    <glyph glyph-name="uni02D0" unicode="&#x2d0;" horiz-adv-x="910" 
d="M454 558h-10l-83 154h170zM357 247l87 150h10l81 -150h-178z" />
    <glyph glyph-name="breve" unicode="&#x2d8;" horiz-adv-x="910" 
d="M166 845q69 0 93 52q10 20 44 9q14 -4 20 -15q7 -11 2 -27q-13 -39 -55 -63q-42 -25 -104 -25t-103 25q-43 24 -56 63q-4 17 2 27q6 11 20 15q34 11 44 -9q24 -52 93 -52z" />
    <glyph glyph-name="dotaccent" unicode="&#x2d9;" horiz-adv-x="910" 
d="M449 746q-27 0 -47 20t-20 46t20 46t47 20q26 0 45.5 -20t19.5 -46t-19.5 -46t-45.5 -20z" />
    <glyph glyph-name="ring" unicode="&#x2da;" horiz-adv-x="910" 
d="M259 851q0 -38 -25 -59.5t-64 -21.5q-41 0 -66 22t-25 59t25 59.5t66 22.5q37 0 63 -24t26 -58zM216 851q0 17 -12.5 29.5t-33.5 12.5q-24 0 -36 -12.5t-12 -29.5t12.5 -29.5t35.5 -12.5q20 0 33 12.5t13 29.5z" />
    <glyph glyph-name="ogonek" unicode="&#x2db;" horiz-adv-x="910" 
d="M470 -20q-44 0 -66 22t-22 70q0 31 20 64t47 42h62q-29 -27 -43 -49t-14 -48q0 -13 10.5 -24.5t14.5 -11.5q3 0 10.5 2.5t17.5 8.5q7 4 15.5 10t22.5 15l25 -21q-20 -36 -46.5 -58t-53.5 -22z" />
    <glyph glyph-name="hungarumlaut" unicode="&#x2dd;" horiz-adv-x="910" 
d="M497 668h-59l54 192h93zM361 668h-61l61 192h83z" />
    <glyph glyph-name="Alpha" unicode="&#x391;" horiz-adv-x="910" 
d="M767 56q11 -34 7.5 -45t-18.5 -12q-24 -2 -38 4t-26 35l-77 212h-327l-70 -206q-11 -28 -26 -36.5t-45 -8.5q-15 0 -17 10t5 33l240 685q8 23 18 37t31 14h59q19 0 26 -7t12 -21zM306 312h290l-145 414z" />
    <glyph glyph-name="Beta" unicode="&#x392;" horiz-adv-x="910" 
d="M500 -1h-243q-26 0 -39 9.5t-13 25.5v713q0 15 13 24t39 9h233q98 0 150.5 -58.5t52.5 -137.5q0 -37 -20 -75t-72 -83q66 -34 100.5 -91.5t34.5 -111.5q0 -90 -66.5 -157t-169.5 -67zM488 718h-211v-267h210q54 0 94 39t40 92q0 66 -34.5 101t-98.5 35zM494 61
q81 0 125 51t44 112q0 64 -44 114.5t-124 50.5h-218v-328h217z" />
    <glyph glyph-name="Gamma" unicode="&#x393;" horiz-adv-x="910" 
d="M344 715v-695q0 -9 -10 -16t-26 -7t-26 7t-10 16v718q0 14 12.5 26.5t37.5 12.5h387q25 0 31.5 -4t6.5 -12q0 -17 -15.5 -31.5t-37.5 -14.5h-350z" />
    <glyph glyph-name="uni0394" unicode="&#x394;" horiz-adv-x="910" 
d="M452 714l-229 -653h465zM179 -1q-29 0 -39.5 15.5t-2.5 43.5l244 668q8 21 17.5 35.5t33.5 14.5h39q20 0 33 -8t17 -20l254 -691q7 -30 -2 -44t-26 -14h-568z" />
    <glyph glyph-name="Epsilon" unicode="&#x395;" horiz-adv-x="910" 
d="M642 0h-370q-20 0 -33 11.5t-13 25.5v703q0 14 12.5 26.5t37.5 12.5h387q25 0 31.5 -4t6.5 -12q0 -17 -15.5 -31.5t-37.5 -14.5h-350v-266h291q25 0 31.5 -4t6.5 -12q0 -17 -15.5 -31.5t-37.5 -14.5h-276v-327h359q25 0 31.5 -4t6.5 -12q0 -17 -15.5 -31.5t-37.5 -14.5z
" />
    <glyph glyph-name="Zeta" unicode="&#x396;" horiz-adv-x="910" 
d="M585 718h-310q-23 0 -34.5 3.5t-11.5 14.5q0 16 15 30t44 14h350q29 0 35 -4t9 -12q2 -5 0 -16.5t-10 -26.5l-371 -659h359q25 0 31.5 -4t6.5 -12q0 -17 -15.5 -31.5t-37.5 -14.5l-402 -1q-28 0 -33 3t-6 9q-4 8 -2 18.5t9 25.5z" />
    <glyph glyph-name="Eta" unicode="&#x397;" horiz-adv-x="910" 
d="M706 782q16 0 27 -7t11 -16v-736q0 -9 -10 -16t-26 -7t-26 7t-10 16v369h-413v-369q0 -9 -10 -16t-26 -7t-26 7t-10 16v734q0 9 10 16t26 7t26 -7t10 -16v-303h413v305q0 9 9 16t25 7z" />
    <glyph glyph-name="Theta" unicode="&#x398;" horiz-adv-x="910" 
d="M590 371h-254q-26 0 -37.5 2.5t-11.5 12.5q0 17 12.5 31t43.5 14h262q24 0 32 -3.5t8 -11.5q0 -19 -16.5 -32t-38.5 -13zM461 788q151 0 246.5 -105t95.5 -294q0 -185 -94 -290.5t-248 -105.5t-247 102.5t-93 293.5q0 193 94 296t246 103zM461 56q138 0 203.5 98
t65.5 235q0 158 -73 247t-196 89q-124 0 -195.5 -91.5t-71.5 -244.5q0 -137 66.5 -235t200.5 -98z" />
    <glyph glyph-name="Iota" unicode="&#x399;" horiz-adv-x="910" 
d="M417 23v734q0 9 10 16t26 7t26 -7t10 -16v-734q0 -9 -10 -16t-26 -7t-26 7t-10 16z" />
    <glyph glyph-name="Kappa" unicode="&#x39a;" horiz-adv-x="910" 
d="M212 23v735q0 9 10 16t26 7t26 -7t10 -16v-385l385 384q20 21 36.5 23t35.5 -11q15 -10 10 -21t-21 -28l-243 -251l290 -412q13 -19 14 -29t-9 -17q-6 -4 -18 -7.5t-19 -2.5q-11 2 -21 9.5t-20 22.5l-272 386l-148 -149v-247q0 -9 -10 -16t-26 -7t-26 7t-10 16z" />
    <glyph glyph-name="Lambda" unicode="&#x39b;" horiz-adv-x="910" 
d="M454 726l-233 -682q-11 -28 -26 -36.5t-45 -8.5q-15 0 -17 10t5 33l240 685q8 23 18 37t31 14h59q19 0 26 -7t12 -21l246 -694q11 -34 7.5 -45t-18.5 -12q-24 -2 -36.5 2t-24.5 33z" />
    <glyph glyph-name="Mu" unicode="&#x39c;" horiz-adv-x="910" 
d="M778 790q14 0 23.5 -6t9.5 -22v-738q0 -9 -10 -16t-26 -7t-26 7t-10 16v594l-228 -422q-8 -14 -18 -20.5t-23 -6.5q-11 0 -20.5 6.5t-16.5 19.5l-240 427v-598q0 -9 -10 -16t-26 -7t-26 7t-10 16v741q0 11 10 18t22 7q15 0 23.5 -6t12.5 -13l280 -488l273 487
q6 10 14.5 15t21.5 5z" />
    <glyph glyph-name="Nu" unicode="&#x39d;" horiz-adv-x="910" 
d="M663 15l-404 620l-5 6v-618q0 -9 -10 -16t-26 -7t-26 7t-10 16v735q0 14 9 21t22 7q15 0 24.5 -4t13.5 -10l415 -632l-2 12v612q0 9 10 16t26 7t26 -7t10 -16v-736q0 -15 -10 -22t-24 -7q-13 0 -22.5 2.5t-16.5 13.5z" />
    <glyph glyph-name="Xi" unicode="&#x39e;" horiz-adv-x="910" 
d="M246 84v42q0 9 -10 16t-26 7t-26 -7t-10 -16v-82q0 -19 12.5 -31.5t38.5 -12.5h503q23 0 32 10t9 26v92q0 9 -10 16t-26 7t-26 -7t-10 -16v-51q0 -8 -3 -12.5t-12 -4.5h-418q-9 0 -13.5 6.5t-4.5 17.5zM246 693v-42q0 -9 -10 -16t-26 -7t-26 7t-10 16v82q0 19 12.5 31.5
t38.5 12.5h503q23 0 32 -10t9 -26v-92q0 -9 -10 -16t-26 -7t-26 7t-10 16v51q0 8 -3 12.5t-12 4.5h-418q-9 0 -13.5 -6.5t-4.5 -17.5zM638 380h-356q-26 0 -37.5 2.5t-11.5 12.5q0 17 12.5 31t43.5 14h364q24 0 32 -3.5t8 -11.5q0 -19 -16.5 -32t-38.5 -13z" />
    <glyph glyph-name="Omicron" unicode="&#x39f;" horiz-adv-x="910" 
d="M461 795q151 0 246.5 -105t95.5 -294q0 -185 -94 -290.5t-248 -105.5t-247 102.5t-93 293.5q0 193 94 296t246 103zM461 63q138 0 203.5 98t65.5 235q0 158 -73 247t-196 89q-124 0 -195.5 -91.5t-71.5 -244.5q0 -137 66.5 -235t200.5 -98z" />
    <glyph glyph-name="Pi" unicode="&#x3a0;" horiz-adv-x="910" 
d="M654 779q39 0 57 -16.5t18 -48.5v-691q0 -9 -10 -16t-26 -7t-26 7t-10 16l-1 688h-399v-688q0 -9 -10 -16t-26 -7t-26 7t-10 16l-1 689q0 29 19.5 48t55.5 19h395z" />
    <glyph glyph-name="Rho" unicode="&#x3a1;" horiz-adv-x="910" 
d="M240 780h246q106 0 169.5 -61.5t63.5 -166.5q0 -94 -67 -160t-187 -66h-203v-304q0 -9 -10 -16t-26 -7t-26 7t-10 16v719q0 16 10.5 27.5t39.5 11.5zM479 388q69 0 118 43.5t49 119.5q0 73 -44 120t-120 47h-220v-330h217z" />
    <glyph glyph-name="Sigma" unicode="&#x3a3;" horiz-adv-x="910" 
d="M519 415q5 -8 5.5 -14t-5.5 -18q-29 -49 -67.5 -122t-113.5 -199h369q25 0 31.5 -4t6.5 -12q0 -17 -15.5 -31.5t-37.5 -14.5l-410 -1q-25 0 -31.5 3t-9.5 7q-3 8 -0.5 17.5t8.5 22.5l196 345l-192 329q-12 28 -10 57q0 4 5.5 8.5t42.5 4.5h394q25 0 31.5 -4t6.5 -12
q0 -17 -15.5 -31.5t-37.5 -14.5h-332q94 -170 181 -316z" />
    <glyph glyph-name="Tau" unicode="&#x3a4;" horiz-adv-x="910" 
d="M206 780h490q25 0 31.5 -4t6.5 -12q0 -17 -15.5 -31.5t-37.5 -14.5h-209v-695q0 -9 -10 -16t-26 -7t-26 7t-10 16v695h-224q-21 0 -28.5 4.5t-7.5 14.5q0 17 17.5 30t48.5 13z" />
    <glyph glyph-name="Upsilon" unicode="&#x3a5;" horiz-adv-x="910" 
d="M424 310l-255 456q-4 10 4 17t23 7q23 0 33.5 -6t17.5 -17l215 -379l209 369q9 16 20 24t34 8q19 0 26 -6.5t1 -16.5l-256 -456v-287q0 -9 -10 -16t-26 -7t-26 7t-10 16v287z" />
    <glyph glyph-name="Phi" unicode="&#x3a6;" horiz-adv-x="910" 
d="M451 678q160 0 245 -76t85 -193q0 -119 -83 -194.5t-247 -75.5q-159 0 -242.5 73.5t-83.5 196.5t86 196t240 73zM450 202q129 0 188 59t59 150q0 85 -60.5 145.5t-186.5 60.5q-130 0 -185.5 -60.5t-55.5 -145.5q0 -91 58.5 -150t182.5 -59zM417 23v734q0 9 10 16t26 7
t26 -7t10 -16v-734q0 -9 -10 -16t-26 -7t-26 7t-10 16z" />
    <glyph glyph-name="Chi" unicode="&#x3a7;" horiz-adv-x="910" 
d="M716 774l-475 -736q-7 -11 -19.5 -17t-35.5 -6q-15 0 -23 7t-4 17l476 736q7 11 19 17t35 6q15 0 23 -7t4 -17zM197 774q-4 10 4 17t23 7q23 0 37 -6t21 -17l472 -736q4 -10 -4 -17t-23 -7q-23 0 -35.5 6t-19.5 17z" />
    <glyph glyph-name="Psi" unicode="&#x3a8;" horiz-adv-x="910" 
d="M713 733q16 0 26 -7t10 -16l-1 -321q0 -101 -81.5 -147.5t-218.5 -46.5q-140 0 -217.5 46.5t-77.5 147.5v322q0 9 10 16t26 7t26 -7t10 -16l-1 -333q0 -58 60 -87.5t163 -29.5q99 0 164 26t65 89l1 334q0 9 10 16t26 7zM417 23v753q0 9 10 16t26 7t26 -7t10 -16v-753
q0 -9 -10 -16t-26 -7t-26 7t-10 16z" />
    <glyph glyph-name="uni03A9" unicode="&#x3a9;" horiz-adv-x="910" 
d="M453 795q155 0 238.5 -93t83.5 -240q0 -94 -45.5 -159t-105.5 -113v-131h71q21 0 33.5 -11.5t12.5 -30.5q0 -11 -6 -14.5t-13 -3.5h-157q-6 0 -9.5 3t-3.5 8v171q0 18 3.5 30t27.5 32q41 35 79.5 94.5t38.5 135.5q0 124 -71.5 192t-175.5 68q-105 0 -176.5 -65
t-71.5 -204q0 -74 30 -127.5t86 -94.5q22 -16 27 -26.5t5 -26.5v-176q0 -6 -4 -10t-11 -4h-154q-11 0 -18 4.5t-7 13.5q0 16 13 29.5t35 13.5h74v122q-57 43 -103.5 108t-46.5 171q0 148 82.5 241t238.5 93z" />
    <glyph glyph-name="alpha" unicode="&#x3b1;" horiz-adv-x="910" 
d="M413 0q-98 0 -167.5 72t-69.5 189q0 111 70.5 186.5t162.5 75.5q59 0 101.5 -30.5t70.5 -74.5q7 38 20.5 65t23.5 34q21 15 48.5 5t14.5 -39q-22 -55 -31.5 -100.5t-9.5 -121.5q0 -52 8 -105.5t29 -116.5q9 -27 -28 -33.5t-51 26.5l-23 73q-23 -49 -73.5 -77t-95.5 -28z
M567 265q0 79 -49 137.5t-110 58.5q-65 0 -112.5 -58.5t-47.5 -137.5q0 -80 48 -141.5t111 -61.5q69 0 114.5 64t45.5 139z" />
    <glyph glyph-name="beta" unicode="&#x3b2;" horiz-adv-x="910" 
d="M674 235q0 -98 -65 -156.5t-149 -58.5q-44 0 -88 13.5t-74 32.5v-200q0 -43 -36 -42.5t-36 45.5v678q-1 102 60 163t158 61q80 0 140 -44t60 -123q0 -65 -45.5 -113.5t-122.5 -66.5q106 -11 152 -65t46 -124zM602 238q0 34 -17.5 70t-40.5 50q-20 12 -48 21t-76 9h-12v64
h2q161 31 161 141q0 54 -35.5 85t-87.5 31q-78 -2 -114 -39t-36 -125v-405q31 -31 72 -44.5t79 -13.5q66 0 109.5 45t43.5 111z" />
    <glyph glyph-name="gamma" unicode="&#x3b3;" horiz-adv-x="910" 
d="M654 464l-159 -408q78 -105 78 -174t-36.5 -97t-89.5 -28q-56 0 -88.5 32t-32.5 89q0 53 81 183q-28 77 -66 185t-80 235l-64 -97q-11 -18 -20.5 -21.5t-21.5 7.5q-16 15 -17 30.5t16 39.5l40 53q13 19 30 29t35 10q28 0 43.5 -6.5t25.5 -30.5l128 -369l149 391
q5 13 15 16t29 -5q13 -6 15.5 -17.5t-10.5 -46.5zM450 -2q-53 -75 -53 -123q0 -22 11.5 -41t37.5 -19q33 0 44.5 14.5t11.5 45.5q0 39 -52 123z" />
    <glyph glyph-name="delta" unicode="&#x3b4;" horiz-adv-x="910" 
d="M654 286q0 -130 -68.5 -204.5t-166.5 -74.5q-96 0 -162 74.5t-66 195.5q0 102 67.5 179.5t146.5 112.5q-79 79 -141 144v66h347q34 0 34 -31t-36 -31h-247q62 -62 169 -160q69 -67 96 -132.5t27 -138.5zM582 286q0 62 -35.5 128t-88.5 102q-89 -32 -141.5 -99t-52.5 -156
t41.5 -140.5t113.5 -51.5q70 -1 116.5 61t46.5 156z" />
    <glyph glyph-name="epsilon" unicode="&#x3b5;" horiz-adv-x="910" 
d="M190 165q0 43 17 69t44 45q-31 35 -44 64t-13 57q0 47 46 92.5t150 47.5q90 0 144 -35.5t67 -87.5q8 -40 -32 -52q-25 -4 -37 32q-12 34 -45 57t-95 23q-65 -1 -95 -26.5t-30 -49.5q0 -49 33.5 -69t87.5 -20h40q41 3 41 -30q0 -32 -41 -32h-40q-54 0 -90 -22.5t-36 -60.5
q0 -52 39 -77.5t95 -25.5q57 0 92.5 21t54.5 80q8 22 42 16q28 -4 23 -39q-7 -66 -63 -103t-149 -37q-84 0 -145 44.5t-61 118.5z" />
    <glyph glyph-name="zeta" unicode="&#x3b6;" horiz-adv-x="910" 
d="M390 -122q78 -13 117 12t39 65q0 38 -34 74t-97 36q-115 0 -177 42.5t-62 163.5q0 118 80.5 227.5t230.5 204.5h-216q-34 0 -34 36q0 43 33 38h358v-78q-182 -94 -279 -199.5t-97 -228.5q0 -84 44.5 -107.5t124.5 -23.5q93 0 145.5 -55.5t52.5 -124.5q0 -92 -66 -133
t-164 -26q-18 6 -26 17.5t-6 28.5q3 21 11.5 27t21.5 4z" />
    <glyph glyph-name="eta" unicode="&#x3b7;" horiz-adv-x="910" 
d="M593 -136v424q0 80 -39.5 131.5t-128.5 51.5q-67 0 -119 -61t-51 -132v-237q0 -43 -36 -43t-36 42v443q0 43 37 43t37 -33v-57q41 49 87.5 74t98.5 25q98 0 160 -63.5t62 -160.5v-449q-1 -39 -37 -41t-35 43z" />
    <glyph glyph-name="theta" unicode="&#x3b8;" horiz-adv-x="910" 
d="M601 390q0 146 -50.5 241.5t-133.5 95.5q-82 0 -130 -101.5t-48 -233.5q0 -134 52.5 -228t129.5 -94q79 0 129 93.5t51 226.5zM422 6q-110 -1 -183 98t-73 287q0 194 70 297t181 103t184 -110t73 -292q0 -178 -75.5 -280.5t-176.5 -102.5zM617 366h-395q-22 0 -21 33
q-4 30 23 29h393q30 -2 30 -30q1 -33 -30 -32z" />
    <glyph glyph-name="iota" unicode="&#x3b9;" horiz-adv-x="910" 
d="M402 498v-314q0 -66 31 -90t79 -24q17 0 35.5 2.5t53.5 16.5q18 6 30.5 -24.5t-31.5 -46.5q-21 -8 -46 -10t-51 -2q-75 0 -124 42t-49 116v335q0 44 37 44q35 0 35 -45z" />
    <glyph glyph-name="kappa" unicode="&#x3ba;" horiz-adv-x="910" 
d="M648 77q30 -25 6 -49t-54 -3l-255 221v-205q0 -42 -39 -42q-33 0 -33 39v456q0 44 36 44t36 -47v-188l150 177q18 21 40 33t55 12q13 0 30 -1t33 -8q27 -19 17.5 -45t-26.5 -19t-26.5 8t-26.5 1q-21 0 -36 -14.5t-28 -29.5l-120 -142z" />
    <glyph glyph-name="lambda" unicode="&#x3bb;" horiz-adv-x="910" 
d="M413 466l-174 -425q-17 -43 -48 -31t-23 50l209 493q-18 48 -57 119q-24 37 -65 37h-37q-41 0 -38.5 35.5t36.5 35.5h43q66 0 102 -40t71 -133l185 -494q17 -41 62 -41q44 0 45 98q0 45 38 45t38 -46q0 -90 -36.5 -125t-77.5 -35q-57 0 -88.5 26t-49.5 72z" />
    <glyph glyph-name="uni03BC" unicode="&#x3bc;" horiz-adv-x="910" 
d="M279 -90q0 -17 -7.5 -23t-29.5 -6q-23 0 -29 3.5t-6 21.5v595q0 18 9 25.5t29 7.5t27 -6t7 -25v-312q0 -33 38 -76t112 -43q77 0 117.5 40.5t40.5 83.5v302q0 25 7.5 30.5t24.5 5.5q26 0 33 -6t7 -30v-460q0 -14 -9 -22t-25 -8q-17 0 -28 12.5t-10 62.5
q-18 -27 -58.5 -49.5t-99.5 -22.5q-58 0 -93 23.5t-57 56.5v-181z" />
    <glyph glyph-name="nu" unicode="&#x3bd;" horiz-adv-x="910" 
d="M649 477l-161 -421q-9 -28 -22 -40t-36 -12q-25 0 -39 12t-25 41l-184 420q-12 32 -2 43.5t21 14.5q17 6 33 -1t24 -33l169 -397l150 396q11 27 22 32t26 3q15 -4 24.5 -17.5t-0.5 -40.5z" />
    <glyph glyph-name="xi" unicode="&#x3be;" horiz-adv-x="910" 
d="M383 -107q6 44 29 37q73 -12 113.5 3t40.5 60q0 35 -34.5 60.5t-93.5 25.5q-108 0 -168 51.5t-60 155.5q0 58 38 109.5t88 82.5q-44 23 -69.5 56.5t-25.5 75.5q0 44 31 86.5t89 62.5q41 9 115 9h68q43 0 43 -37q0 -33 -44 -33h-61q-100 0 -134.5 -26t-34.5 -62
q0 -88 167 -88h58q45 0 45 -38q0 -26 -43 -26q-125 0 -191 -51.5t-66 -126.5q0 -70 41 -101t121 -31q95 0 144.5 -43.5t49.5 -106.5q0 -94 -69.5 -123.5t-152.5 -15.5q-38 9 -34 34z" />
    <glyph glyph-name="omicron" unicode="&#x3bf;" horiz-adv-x="910" 
d="M677 282q0 -118 -68.5 -193t-182.5 -75q-117 0 -183.5 76.5t-66.5 191.5q0 113 67.5 191.5t182.5 78.5q116 0 183.5 -80t67.5 -190zM604 282q0 91 -52 149t-128 58q-78 0 -126.5 -59.5t-48.5 -147.5q0 -82 50 -143.5t126 -61.5q82 0 130.5 59.5t48.5 145.5z" />
    <glyph glyph-name="pi" unicode="&#x3c0;" horiz-adv-x="910" 
d="M616 16q-37 0 -37 44v417h-303v-412q0 -49 -37 -49q-35 0 -35 48v405q0 70 78 70h299q70 0 70 -70v-409q1 -44 -35 -44z" />
    <glyph glyph-name="rho" unicode="&#x3c1;" horiz-adv-x="910" 
d="M435 90q66 0 120.5 43.5t54.5 150.5q0 101 -40.5 154t-127.5 53q-58 0 -100.5 -35t-42.5 -136v-189q26 -21 59.5 -31t76.5 -10zM299 -148q0 -28 -42 -28q-32 0 -32 40v457q0 135 63 184.5t151 49.5q117 0 180.5 -70.5t63.5 -199.5q0 -131 -71.5 -195.5t-182.5 -63.5
q-39 0 -71 11.5t-59 29.5v-215z" />
    <glyph glyph-name="sigma" unicode="&#x3c3;" horiz-adv-x="910" 
d="M730 461h-122q24 -24 47 -76.5t23 -110.5q0 -116 -74.5 -192.5t-177.5 -76.5q-110 0 -181.5 75t-71.5 190q0 131 75.5 202t172.5 71q57 0 93 -12h208q39 0 39 -35t-31 -35zM605 274q0 94 -52.5 150.5t-130.5 56.5q-73 0 -124.5 -58.5t-51.5 -151.5q0 -94 49.5 -148.5
t130.5 -54.5q80 0 129.5 58.5t49.5 147.5z" />
    <glyph glyph-name="tau" unicode="&#x3c4;" horiz-adv-x="910" 
d="M421 11q-35 -4 -35 45v418h-194q-40 0 -40 23q0 39 38 39h442q38 0 38 -39q0 -23 -40 -23h-172v-418q0 -49 -37 -45z" />
    <glyph glyph-name="upsilon" unicode="&#x3c5;" horiz-adv-x="910" 
d="M698 276q0 -135 -61 -203.5t-182 -68.5q-109 0 -168 56t-59 180v258q0 44 36.5 44t36.5 -45v-266q0 -73 34 -118.5t120 -45.5q84 0 127.5 51t43.5 158q0 45 -25 98t-64 107q-23 33 3.5 54.5t61.5 -17.5q45 -57 70.5 -117.5t25.5 -124.5z" />
    <glyph glyph-name="phi" unicode="&#x3c6;" horiz-adv-x="910" 
d="M686 270q0 90 -47.5 144t-146.5 54v-409q102 9 148 61.5t46 149.5zM492 -151q0 -41 -38 -41q-33 0 -33 41v145q-117 0 -193 63t-76 175q0 74 24 139.5t82 131.5q36 30 56 15q26 -28 2 -59q-43 -46 -67.5 -93t-24.5 -125q0 -89 45.5 -136t151.5 -47v387q0 46 14.5 67
t50.5 21q120 0 196 -70t76 -196q0 -122 -73 -194t-193 -80v-144z" />
    <glyph glyph-name="chi" unicode="&#x3c7;" horiz-adv-x="910" 
d="M569 -47q11 -29 31.5 -40.5t78.5 -12.5h35q25 0 25 -35t-30 -35h-77q-36 0 -64.5 17.5t-59.5 74.5l-85 198l-208 -290h-86l263 364l-93 216q-25 32 -54 42.5t-47 10.5h-45q-38 0 -38 35.5t36 35.5h60q47 0 90.5 -22.5t62.5 -67.5l75 -183l193 273h85l-248 -346z" />
    <glyph glyph-name="psi" unicode="&#x3c8;" horiz-adv-x="910" 
d="M410 500q0 40 36 40t36 -40v-367q88 0 143 46.5t55 133.5v183q0 38 34.5 40t37.5 -26v-189q0 -130 -80.5 -191t-189.5 -61v-221q0 -40 -36 -40t-36 40v221q-123 0 -194.5 60.5t-71.5 187.5v179q0 35 36 35t36 -36v-186q0 -92 52 -134t142 -42v367z" />
    <glyph glyph-name="omega" unicode="&#x3c9;" horiz-adv-x="910" 
d="M696 511q72 -140 72 -246q0 -126 -47.5 -193.5t-129.5 -67.5q-93 0 -154 138q-65 -138 -175 -138q-80 0 -124 63t-44 198q0 136 74 246q22 34 50 25t17 -39q-39 -65 -54 -125.5t-15 -110.5q0 -98 27 -146.5t76 -48.5q51 0 89.5 66.5t38.5 158.5v64q0 45 33.5 45t33.5 -45
v-63q0 -92 40.5 -159t87.5 -67q49 0 76.5 51t27.5 144q-1 47 -19.5 109.5t-51.5 119.5q-14 35 15 49t56 -28z" />
    <glyph glyph-name="uni0401" unicode="&#x401;" horiz-adv-x="910" 
d="M389 811h79v-80h-79v80zM536 811h78v-80h-78v80zM302 3v671h408v-55h-342v-237h320v-56h-320v-266h352v-57h-418z" />
    <glyph glyph-name="uni0410" unicode="&#x410;" horiz-adv-x="910" 
d="M644 271l-112 332q-7 25 -11.5 44.5t-6.5 25.5h-3q-1 -6 -4 -16.5t-15 -53.5l-116 -332h268zM471 733h85l257 -730h-72l-74 211h-314l-70 -211h-74z" />
    <glyph glyph-name="uni0411" unicode="&#x411;" horiz-adv-x="910" 
d="M334 345v-282h183q75 0 122 40.5t47 101.5q0 64 -44 102t-128 38h-180zM696 733v-57h-362v-273h169q117 0 182 -49t66 -150q1 -94 -65 -146.5t-183 -52.5h-232l-1 728h426z" />
    <glyph glyph-name="uni0412" unicode="&#x412;" horiz-adv-x="910" 
d="M334 345v-282h183q75 0 122 40.5t47 101.5q0 64 -48.5 102t-123.5 38h-180zM334 680v-277h169q65 0 105.5 39t40.5 112q0 65 -48.5 95.5t-109.5 30.5h-157zM479 733q113 0 176 -48t63 -133q0 -55 -34 -102t-90 -69v-4q62 -18 109.5 -63.5t47.5 -109.5q0 -94 -65.5 -146.5
t-182.5 -52.5h-232v728h208z" />
    <glyph glyph-name="uni0413" unicode="&#x413;" horiz-adv-x="910" 
d="M314 4v729h394v-58h-330v-671h-64z" />
    <glyph glyph-name="uni0414" unicode="&#x414;" horiz-adv-x="910" 
d="M243 61q57 99 87 286.5t32 385.5h406v-672h91v-204h-70v148h-559v-148h-67v204h80zM427 679q0 -142 -28.5 -323.5t-81.5 -294.5h386v618h-276z" />
    <glyph glyph-name="uni0415" unicode="&#x415;" horiz-adv-x="910" 
d="M302 732h408v-55h-342v-271h320v-57h-320v-289h352v-57h-418v729z" />
    <glyph glyph-name="uni0416" unicode="&#x416;" horiz-adv-x="910" 
d="M422 362l-274 -357h-82l279 362l-261 366h80l258 -361v361h65v-362l261 362h78l-265 -366l283 -362h-80l-277 358v-358h-65v357z" />
    <glyph glyph-name="uni0417" unicode="&#x417;" horiz-adv-x="910" 
d="M487 744q113 -1 174 -53t62 -125q1 -69 -33 -111t-92 -63v-5q66 -13 109.5 -66.5t43.5 -119.5q0 -90 -66.5 -149t-197.5 -59q-56 0 -114.5 19.5t-97.5 43.5l20 46q47 -35 84 -47t108 -11q92 1 144.5 41.5t52.5 115.5q0 68 -46 112t-210 44h-21v53h19q144 1 187 56t44 100
q1 50 -41 87.5t-129 37.5q-41 0 -77 -11t-85 -45l-24 54q33 20 86 37.5t100 17.5v0z" />
    <glyph glyph-name="uni0418" unicode="&#x418;" horiz-adv-x="910" 
d="M320 120l356 614h91v-729h-65v622l-364 -622h-83v729h65v-614z" />
    <glyph glyph-name="uni0419" unicode="&#x419;" horiz-adv-x="910" 
d="M320 120l356 614h91v-729h-65v622l-364 -622h-83v729h65v-614zM423 846q7 -29 27.5 -45t48.5 -16q29 0 51 16t30 45h44q-12 -48 -48.5 -74t-79.5 -26t-77.5 27.5t-41.5 72.5h46z" />
    <glyph glyph-name="uni041A" unicode="&#x41a;" horiz-adv-x="910" 
d="M269 733h63v-322l333 322h78l-284 -286l294 -442h-78l-267 399l-76 -75v-324h-63v728z" />
    <glyph glyph-name="uni041B" unicode="&#x41b;" horiz-adv-x="910" 
d="M784 17h-72l-2 661h-263q-11 -115 -31 -278t-56 -294q-13 -47 -49 -72.5t-76 -27.5q-17 -1 -33 2t-31 9v69q12 -4 23 -7t31 -3t33 7t23 29q26 32 42 150t59 472h402v-717z" />
    <glyph glyph-name="uni041C" unicode="&#x41c;" horiz-adv-x="910" 
d="M178 5v728h92l237 -596h3l239 596h96v-728h-65v630h-3l-240 -630h-57l-235 609h-3v-609h-64z" />
    <glyph glyph-name="uni041D" unicode="&#x41d;" horiz-adv-x="910" 
d="M256 733h65v-327h380v327h65v-729h-65v345h-380v-345h-65v729z" />
    <glyph glyph-name="uni041E" unicode="&#x41e;" horiz-adv-x="910" 
d="M511 681q-106 0 -175.5 -89t-70.5 -225q-1 -132 74 -222.5t172 -90.5q106 0 176.5 84.5t71.5 228.5q1 140 -67 227t-181 87zM508 744q143 0 230.5 -98t86.5 -279q-1 -172 -84.5 -274t-228.5 -102q-142 0 -229 105t-86 271q1 170 90 273.5t221 103.5z" />
    <glyph glyph-name="uni041F" unicode="&#x41f;" horiz-adv-x="910" 
d="M701 4v672h-380v-672h-65v729h510v-729h-65z" />
    <glyph glyph-name="uni0420" unicode="&#x420;" horiz-adv-x="910" 
d="M348 681v-344h147q84 0 132.5 45.5t48.5 127.5t-49 126.5t-116 44.5h-163zM505 734q108 0 170.5 -61t62.5 -162q0 -109 -70 -169.5t-174 -60.5h-146v-277h-64v730h221z" />
    <glyph glyph-name="uni0421" unicode="&#x421;" horiz-adv-x="910" 
d="M535 742q97 0 165.5 -48.5t95.5 -155.5h-67q-20 77 -71.5 110t-123.5 33q-111 0 -175 -92t-64 -240q0 -136 62.5 -217t176.5 -82q76 0 127 43.5t61 123.5h67q0 -96 -76 -161t-179 -65q-144 0 -226 99t-82 259q0 202 92 297.5t217 95.5z" />
    <glyph glyph-name="uni0422" unicode="&#x422;" horiz-adv-x="910" 
d="M260 732h502v-55h-219v-672h-64v672h-219v55z" />
    <glyph glyph-name="uni0423" unicode="&#x423;" horiz-adv-x="910" 
d="M513 255l190 478h69q-56 -152 -102 -268t-126 -308q-41 -98 -77.5 -147t-90.5 -49q-13 0 -34 1t-36 4v58q8 -1 13.5 -2t25.5 -1q34 0 59.5 23t71.5 133l-226 556h72z" />
    <glyph glyph-name="uni0424" unicode="&#x424;" horiz-adv-x="910" 
d="M139 387q-1 116 79 199t232 84h22v63h65v-63h22q139 -1 224 -76t86 -207q1 -135 -81.5 -217t-224.5 -82h-26v-83h-65v83h-26q-144 0 -225 82t-82 217zM208 379q0 -106 63 -169.5t165 -63.5h36v464h-37q-104 0 -165.5 -62.5t-61.5 -168.5zM536 611l1 -465h34
q113 -1 170 65t57 173q0 103 -60 162t-165 64z" />
    <glyph glyph-name="uni0425" unicode="&#x425;" horiz-adv-x="910" 
d="M256 732h80l177 -308h1l184 308h76l-207 -357l216 -370h-75l-190 335h-1l-198 -335h-80l221 369z" />
    <glyph glyph-name="uni0426" unicode="&#x426;" horiz-adv-x="910" 
d="M701 733h65v-728h-510v728h65v-671h380v671zM752 57h61v-212h-61v212z" />
    <glyph glyph-name="uni0427" unicode="&#x427;" horiz-adv-x="910" 
d="M741 5h-61v320q-27 -39 -80 -69t-109 -30q-87 0 -148.5 45.5t-61.5 118.5v343h62v-314q0 -84 41.5 -110t113.5 -26q77 0 129.5 54.5t52.5 123.5v272h61v-728z" />
    <glyph glyph-name="uni0428" unicode="&#x428;" horiz-adv-x="910" 
d="M786 733h64v-728h-678v728h65v-672h549v672zM478 36v697h63v-697h-63z" />
    <glyph glyph-name="uni0429" unicode="&#x429;" horiz-adv-x="910" 
d="M784 733h65v-728h-679v728h65v-672h549v672zM475 36v697h65v-697h-65zM835 57h61v-212h-61v212z" />
    <glyph glyph-name="uni042A" unicode="&#x42a;" horiz-adv-x="910" 
d="M400 733v-330h168q114 0 181 -48t68 -151q1 -94 -65 -146.5t-185 -52.5h-231l-2 671h-224v57h290zM400 345v-282h183q74 0 121.5 40.5t46.5 101.5q-1 64 -38 102t-133 38h-180z" />
    <glyph glyph-name="uni042B" unicode="&#x42b;" horiz-adv-x="910" 
d="M246 345v-282h183q75 0 122 38t47 106q0 64 -35 101t-137 37h-180zM246 733v-330h169q137 0 192 -51t56 -144q1 -94 -65 -148.5t-184 -54.5h-231l-2 728h65zM785 734h65v-729h-65v729z" />
    <glyph glyph-name="uni042C" unicode="&#x42c;" horiz-adv-x="910" 
d="M366 345v-282h183q75 0 122 38t47 106q0 64 -35 101t-137 37h-180zM366 733v-330h169q137 0 192 -51t56 -144q1 -94 -65 -148.5t-184 -54.5h-231l-2 728h65z" />
    <glyph glyph-name="uni042D" unicode="&#x42d;" horiz-adv-x="910" 
d="M484 733q142 0 213 -101t71 -283q0 -154 -69 -256t-216 -102q-105 0 -168 52t-87 174h67q11 -80 62 -123t126 -44q115 0 163 74.5t48 210.5q0 148 -49.5 247t-161.5 99q-71 0 -126.5 -41t-67.5 -102h-68q9 81 81 138t182 57zM733 387v-57h-356v57h356z" />
    <glyph glyph-name="uni042E" unicode="&#x42e;" horiz-adv-x="910" 
d="M609 684q-105 0 -156 -96.5t-51 -221.5q0 -127 54 -222t153 -95q89 0 146 88t58 229q1 145 -54.5 231.5t-149.5 86.5zM610 748q118 0 192.5 -104.5t75.5 -283.5q1 -172 -76.5 -272.5t-191.5 -100.5q-119 0 -194.5 101t-75.5 275q0 166 73 275.5t197 109.5zM385 407v-58
h-220v-345h-64v729h64v-326h220z" />
    <glyph glyph-name="uni042F" unicode="&#x42f;" horiz-adv-x="910" 
d="M629 677h-156q-106 0 -141 -36t-35 -100q0 -61 41.5 -105.5t113.5 -44.5h177v286zM262 201q21 82 48.5 113t63.5 43v4q-67 20 -102.5 64t-35.5 118q0 97 61.5 143.5t171.5 46.5h224v-730h-64v329h-164q-56 0 -90 -32t-53 -127l-35 -170h-70z" />
    <glyph glyph-name="uni0430" unicode="&#x430;" horiz-adv-x="910" 
d="M655 282q-39 -11 -97 -22t-73 -15q-58 -12 -87.5 -32.5t-29.5 -66.5q0 -47 32 -71.5t86 -24.5q45 0 91 21t78 71v140zM522 521q92 0 144 -44.5t52 -120.5v-351h-62v68h-2q-36 -39 -84.5 -59t-102.5 -20q-60 0 -111.5 40t-51.5 107q0 64 41 103t127 53q70 11 108 19.5
t75 23.5q0 69 -33 100.5t-99 31.5q-50 0 -90 -25.5t-47 -70.5h-60q16 80 68.5 112.5t127.5 32.5z" />
    <glyph glyph-name="uni0431" unicode="&#x431;" horiz-adv-x="910" 
d="M512 529q107 0 176 -69t69 -201q0 -129 -68.5 -197.5t-176.5 -68.5t-177.5 70t-69.5 196q0 35 4.5 78.5t10.5 105.5q14 138 52.5 184t120.5 69q31 9 73 16.5t111 34.5v-69q-136 -13 -212 -48t-82 -198q24 47 69.5 72t99.5 25zM506 469q-80 0 -129 -57.5t-49 -152.5
q0 -96 52.5 -152t131.5 -56q80 0 131 55t51 153q0 96 -46 153t-142 57z" />
    <glyph glyph-name="uni0432" unicode="&#x432;" horiz-adv-x="910" 
d="M325 5v511h240q86 0 126 -36t40 -90q0 -38 -17.5 -70t-57.5 -52q47 -15 70 -48t23 -76q0 -62 -45 -100.5t-126 -38.5h-253zM389 463v-170h167q41 0 74.5 18t33.5 79q0 43 -25 58t-75 15h-175zM389 238v-181h187q59 0 83.5 26.5t24.5 64.5q0 35 -29 62.5t-93 27.5h-173z
" />
    <glyph glyph-name="uni0433" unicode="&#x433;" horiz-adv-x="910" 
d="M338 5v510h368v-58h-303v-452h-65z" />
    <glyph glyph-name="uni0434" unicode="&#x434;" horiz-adv-x="910" 
d="M273 61q52 93 78.5 198t37.5 257h336v-455h68v-197h-60v141h-449v-141h-60v197h49zM345 61h313v402h-209q-7 -115 -35 -219.5t-69 -182.5z" />
    <glyph glyph-name="uni0435" unicode="&#x435;" horiz-adv-x="910" 
d="M509 472q-69 0 -115.5 -51t-48.5 -126h332q0 84 -50 130.5t-118 46.5zM509 532q100 0 164.5 -72.5t64.5 -182.5v-34h-392q-2 -63 42 -127.5t130 -64.5q65 0 99 19t52 55h64q-35 -79 -92.5 -105.5t-125.5 -26.5q-101 0 -166 70t-65 189q0 142 61.5 211t163.5 69z" />
    <glyph glyph-name="uni0436" unicode="&#x436;" horiz-adv-x="910" 
d="M543 250v-245h-65v244l-225 -244h-77l237 260l-219 251h75l209 -234v234h65v-235l210 235h75l-221 -251l239 -260h-76z" />
    <glyph glyph-name="uni0437" unicode="&#x437;" horiz-adv-x="910" 
d="M320 28v59q42 -21 82.5 -31.5t88.5 -10.5q77 0 116 33t39 68q0 40 -26.5 66.5t-127.5 26.5h-103v49h103q57 0 94 23t37 78q0 31 -31 60.5t-97 29.5q-57 0 -90 -12t-63 -26v56q21 9 61.5 19.5t91.5 10.5q86 0 138 -34t52 -105q0 -48 -23.5 -76.5t-51.5 -42.5
q30 -4 63.5 -34t33.5 -91q0 -71 -63.5 -111t-137.5 -40q-68 0 -106.5 8t-79.5 27z" />
    <glyph glyph-name="uni0438" unicode="&#x438;" horiz-adv-x="910" 
d="M297 517h64v-416l5 1l276 415h82v-512h-65v417h-4l-283 -417h-75v512z" />
    <glyph glyph-name="uni0439" unicode="&#x439;" horiz-adv-x="910" 
d="M297 517h64v-416l5 1l276 415h82v-512h-65v417h-4l-283 -417h-75v512zM439 651q7 -29 27.5 -45t48.5 -16q29 0 51 16t30 45h44q-12 -48 -48.5 -74t-79.5 -26t-77.5 27.5t-41.5 72.5h46z" />
    <glyph glyph-name="uni043A" unicode="&#x43a;" horiz-adv-x="910" 
d="M310 5v511h63v-233h3l235 233h84l-209 -208l226 -303h-78l-197 263l-63 -64v-199h-64z" />
    <glyph glyph-name="uni043B" unicode="&#x43b;" horiz-adv-x="910" 
d="M720 516v-511h-65v455h-232q-2 -83 -16.5 -190t-42.5 -174q-20 -48 -55.5 -72.5t-64.5 -24.5q-14 0 -24.5 0.5t-26.5 6.5v58q13 -7 19.5 -7.5t32.5 -0.5q37 0 77 104t42 356h356z" />
    <glyph glyph-name="uni043C" unicode="&#x43c;" horiz-adv-x="910" 
d="M227 5v510h94l186 -464l195 464h93v-510h-62v446l-190 -446h-73l-179 446v-446h-64z" />
    <glyph glyph-name="uni043D" unicode="&#x43d;" horiz-adv-x="910" 
d="M300 4v512h65v-233h291v233h65v-512h-65v222h-291v-222h-65z" />
    <glyph glyph-name="uni043E" unicode="&#x43e;" horiz-adv-x="910" 
d="M512 470q-85 0 -134.5 -58t-49.5 -153q0 -96 52.5 -152t131.5 -56q80 0 131 55t51 153q0 96 -51.5 153.5t-130.5 57.5zM516 528q107 0 174 -77t67 -192q0 -129 -68.5 -197.5t-176.5 -68.5t-177.5 70t-69.5 196q0 121 66.5 195t184.5 74z" />
    <glyph glyph-name="uni043F" unicode="&#x43f;" horiz-adv-x="910" 
d="M304 4v512h416v-512h-65v455h-286v-455h-65z" />
    <glyph glyph-name="uni0440" unicode="&#x440;" horiz-adv-x="910" 
d="M512 468q-69 0 -117.5 -52.5t-48.5 -134.5v-52q0 -70 44.5 -122.5t121.5 -52.5q87 0 126 68.5t39 147.5q0 87 -41.5 142.5t-123.5 55.5zM284 516h62v-99h2q31 54 74.5 82.5t96.5 28.5q95 0 157 -71.5t62 -185.5q0 -127 -55.5 -201t-158.5 -74q-74 0 -118 32.5t-60 56.5
v-276h-62v707z" />
    <glyph glyph-name="uni0441" unicode="&#x441;" horiz-adv-x="910" 
d="M530 528q59 0 102.5 -24.5t65.5 -53.5q14 -18 20 -36.5t5 -40.5h-65q-10 44 -49.5 70.5t-74.5 26.5q-78 0 -126 -58t-48 -155q0 -95 45.5 -151t120.5 -56q44 0 79 22t46 66h64q-15 -65 -62.5 -105t-136.5 -40q-93 0 -155.5 70t-62.5 186q0 133 64 206t168 73z" />
    <glyph glyph-name="uni0442" unicode="&#x442;" horiz-adv-x="910" 
d="M260 515h502v-56h-219v-454h-64v454h-219v56z" />
    <glyph glyph-name="uni0443" unicode="&#x443;" horiz-adv-x="910" 
d="M530 -30q-41 -101 -73 -135.5t-87 -34.5q-11 0 -20 1t-13 2v60q5 -1 12 -2t15 -1q27 0 47 17t37 59l31 77l-203 503h73l165 -411h3l161 411h68z" />
    <glyph glyph-name="uni0444" unicode="&#x444;" horiz-adv-x="910" 
d="M512 470q-86 0 -135 -58t-49 -153q0 -96 52.5 -152t131.5 -56q80 0 131 55t51 153q0 96 -51.5 153.5t-130.5 57.5zM512 529q115 0 180 -77.5t65 -192.5q0 -129 -68.5 -197.5t-176.5 -68.5t-177.5 70t-69.5 196q0 121 68.5 195.5t178.5 74.5zM543 -157h-65v890h65v-890z
" />
    <glyph glyph-name="uni0445" unicode="&#x445;" horiz-adv-x="910" 
d="M298 516h73l142 -204h2l138 204h72l-165 -244l175 -267h-71l-147 236h-3l-155 -236h-72l177 261z" />
    <glyph glyph-name="uni0446" unicode="&#x446;" horiz-adv-x="910" 
d="M700 45h61v-190h-61v190zM304 516h65v-455h286v455h65v-512h-416v512z" />
    <glyph glyph-name="uni0447" unicode="&#x447;" horiz-adv-x="910" 
d="M306 313v203h65v-209q0 -58 32 -82.5t98 -24.5q51 0 86 16t63 43v257h66v-511h-66v203q-42 -35 -84.5 -48.5t-81.5 -13.5q-86 0 -132 41.5t-46 125.5z" />
    <glyph glyph-name="uni0448" unicode="&#x448;" horiz-adv-x="910" 
d="M187 516h64v-455h227v455h65v-455h226v455h64v-512h-646v512z" />
    <glyph glyph-name="uni0449" unicode="&#x449;" horiz-adv-x="910" 
d="M187 516h64v-455h227v455h65v-455h226v455h64v-512h-646v512zM814 45h60v-190h-60v190z" />
    <glyph glyph-name="uni044A" unicode="&#x44a;" horiz-adv-x="910" 
d="M369 460h-139v56h204v-178h174q86 0 135 -42t49 -118t-44.5 -124.5t-136.5 -48.5h-242v455zM434 282v-222h179q50 0 82 30.5t32 85.5q0 43 -27.5 74.5t-89.5 31.5h-176z" />
    <glyph glyph-name="uni044B" unicode="&#x44b;" horiz-adv-x="910" 
d="M208 516h66v-178h175q86 0 134.5 -42t48.5 -118t-44.5 -124.5t-136.5 -48.5h-243v511zM274 282v-222h182q55 0 82.5 32t27.5 84q0 43 -27.5 74.5t-88.5 31.5h-176zM824 516v-511h-64v511h64z" />
    <glyph glyph-name="uni044C" unicode="&#x44c;" horiz-adv-x="910" 
d="M279 516h66v-178h175q86 0 134.5 -42t48.5 -118t-44.5 -124.5t-136.5 -48.5h-243v511zM345 282v-222h182q55 0 82.5 32t27.5 84q0 43 -27.5 74.5t-88.5 31.5h-176z" />
    <glyph glyph-name="uni044D" unicode="&#x44d;" horiz-adv-x="910" 
d="M661 287v-55h-280v55h280zM457 528q99 0 165.5 -73t66.5 -206q0 -127 -66.5 -191.5t-159.5 -64.5q-84 0 -133 42t-58 103h64q11 -44 46 -66t79 -22q75 0 120.5 56t45.5 151q0 97 -48 155t-125 58q-48 0 -81.5 -26.5t-43.5 -70.5h-66q9 67 64 111t130 44z" />
    <glyph glyph-name="uni044E" unicode="&#x44e;" horiz-adv-x="910" 
d="M661 470q-83 0 -133.5 -58t-50.5 -153q0 -96 52.5 -152t131.5 -56t130.5 55t51.5 153q0 96 -51.5 153.5t-130.5 57.5zM661 529q115 0 180 -77.5t65 -192.5q0 -129 -68 -197.5t-176 -68.5q-109 0 -178 70t-69 196q0 121 68 195.5t178 74.5zM451 282v-56h-218v-222h-65v512
h65v-234h218z" />
    <glyph glyph-name="uni044F" unicode="&#x44f;" horiz-adv-x="910" 
d="M440 516h253v-511h-63v209h-139q-40 0 -69 -19.5t-52 -63.5l-67 -126h-76l88 156q11 19 26 38.5t44 31.5q-49 12 -82.5 47t-33.5 92q0 63 48.5 104.5t122.5 41.5zM332 368q0 -43 28 -69.5t83 -26.5h187v191h-183q-54 0 -84.5 -27.5t-30.5 -67.5z" />
    <glyph glyph-name="uni0451" unicode="&#x451;" horiz-adv-x="910" 
d="M389 673h79v-80h-79v80zM536 673h78v-80h-78v80zM509 472q-69 0 -115.5 -51t-48.5 -126h332q0 84 -50 130.5t-118 46.5zM509 532q100 0 164.5 -72.5t64.5 -182.5v-34h-392q-2 -63 42 -127.5t130 -64.5q65 0 99 19t52 55h64q-35 -79 -92.5 -105.5t-125.5 -26.5
q-101 0 -166 70t-65 189q0 142 61.5 211t163.5 69z" />
    <glyph glyph-name="uni2015" unicode="&#x2015;" horiz-adv-x="910" 
d="M911 323v-57h-911v57h911z" />
    <glyph glyph-name="quoteleft" unicode="&#x2018;" horiz-adv-x="216" 
d="M118 706q-23 0 -40 15.5t-17 44.5q0 17 6.5 41.5t17.5 44.5q8 14 20.5 27t15.5 13q4 0 7 -2t2 -5q-12 -30 -7 -47t26 -32q15 -11 21 -22.5t6 -25.5q0 -23 -17 -37.5t-41 -14.5z" />
    <glyph glyph-name="quoteright" unicode="&#x2019;" horiz-adv-x="216" 
d="M80 762q-15 11 -21 22.5t-6 25.5q0 23 17 37.5t41 14.5q23 0 40 -15.5t17 -44.5q0 -17 -6.5 -41.5t-17.5 -44.5q-8 -14 -20.5 -27t-15.5 -13q-4 0 -7 2t-2 5q12 30 7 47t-26 32z" />
    <glyph glyph-name="quotedblleft" unicode="&#x201c;" horiz-adv-x="360" 
d="M112 699q-23 0 -40 15.5t-17 44.5q0 17 6.5 41.5t17.5 44.5q8 14 20.5 27t15.5 13q4 0 7 -2t2 -5q-12 -30 -7 -47t26 -32q15 -11 21 -22.5t6 -25.5q0 -23 -17 -37.5t-41 -14.5zM254 706q-23 0 -40 15.5t-17 44.5q0 17 6.5 41.5t17.5 44.5q8 14 20.5 27t15.5 13q4 0 7 -2
t2 -5q-12 -30 -7 -47t26 -32q15 -11 21 -22.5t6 -25.5q0 -23 -17 -37.5t-41 -14.5z" />
    <glyph glyph-name="quotedblright" unicode="&#x201d;" horiz-adv-x="360" 
d="M255 862q23 0 40 -15.5t17 -44.5q0 -17 -6.5 -41.5t-17.5 -44.5q-8 -14 -20.5 -27t-15.5 -13q-4 0 -7 2t-2 5q12 30 7 47t-26 32q-15 11 -21 22.5t-6 25.5q0 23 17 37.5t41 14.5zM109 862q23 0 40 -15.5t17 -44.5q0 -17 -6.5 -41.5t-17.5 -44.5q-8 -14 -20.5 -27
t-15.5 -13q-4 0 -7 2t-2 5q12 30 7 47t-26 32q-15 11 -21 22.5t-6 25.5q0 23 17 37.5t41 14.5z" />
    <glyph glyph-name="dagger" unicode="&#x2020;" horiz-adv-x="910" 
d="M325 844v-762q0 -39 -48 -39q-40 0 -40 39v762q0 41 45 41q43 0 43 -41zM488 588h-406q-40 3 -40 42q0 42 40 42h406q40 0 40 -42q0 -39 -40 -42z" />
    <glyph glyph-name="daggerdbl" unicode="&#x2021;" horiz-adv-x="910" 
d="M203 462v66h207v97h-211v73h211v210h72v-210h213v-73h-213v-97h213v-66h-213v-337h-72v337h-207z" />
    <glyph glyph-name="twodotenleader" unicode="&#x2025;" horiz-adv-x="910" 
d="M748 402q0 -25 -18 -43t-43 -18t-43 18t-18 43t18 43t43 18t43 -18t18 -43zM298 402q0 -25 -18 -43t-43 -18t-43 18t-18 43t18 43t43 18t43 -18t18 -43z" />
    <glyph glyph-name="ellipsis" unicode="&#x2026;" horiz-adv-x="910" 
d="M213 402q0 -25 -18 -43t-43 -18t-43 18t-18 43t18 43t43 18t43 -18t18 -43zM815 402q0 -25 -18 -43t-43 -18t-43 18t-18 43t18 43t43 18t43 -18t18 -43zM515 402q0 -25 -18 -43t-43 -18t-43 18t-18 43t18 43t43 18t43 -18t18 -43z" />
    <glyph glyph-name="perthousand" unicode="&#x2030;" horiz-adv-x="910" 
d="M199 164h-65l262 721h62zM146 514q-64 0 -88 51t-24 129t24 133t88 55q57 0 86 -55t29 -133t-29 -129t-86 -51zM146 820q-34 0 -45 -37t-11 -89q0 -21 1.5 -43t5.5 -41q9 -22 21 -32.5t28 -10.5q13 0 24.5 10.5t19.5 32.5q4 19 8.5 41t4.5 43q0 52 -12.5 89t-44.5 37z
M754 182q-64 0 -90 52.5t-26 131.5q0 78 26 130.5t90 52.5q57 0 84 -52.5t27 -134.5q0 -75 -27 -127.5t-84 -52.5zM754 493q-39 0 -47 -37.5t-8 -89.5v-44t7 -41q4 -20 16 -31t32 -11q13 0 24.5 11t15.5 27q9 19 13 41t4 44q0 51 -14.5 91t-42.5 40zM463 182q-62 0 -86 52.5
t-24 131.5q0 78 24 130.5t86 52.5q56 0 84 -52.5t28 -134.5q0 -75 -28 -127.5t-84 -52.5zM463 493q-32 0 -42.5 -37.5t-10.5 -89.5q0 -22 2 -44t7 -41q7 -20 16 -31t28 -11q12 0 25 11t19 27q7 19 11.5 41t4.5 44q0 51 -15.5 91t-44.5 40z" />
    <glyph glyph-name="minute" unicode="&#x2032;" horiz-adv-x="910" 
d="M107 562h-49l68 194h95z" />
    <glyph glyph-name="second" unicode="&#x2033;" horiz-adv-x="910" 
d="M265 562h-48l72 194h95zM58 562l68 194h95l-114 -194h-49z" />
    <glyph glyph-name="uni203B" unicode="&#x203b;" horiz-adv-x="910" 
d="M431 378l-306 306l36 33l306 -307l302 302l32 -35l-303 -304l303 -301l-35 -31l-303 301l-302 -301l-32 34zM407 597v112h111v-112h-111zM682 323v111h110v-111h-110zM407 52v107h111v-107h-111zM121 323v111h110v-111h-110z" />
    <glyph glyph-name="uni2074" unicode="&#x2074;" horiz-adv-x="910" 
d="M198 937q17 20 54 14t37 -25v-226h37q28 -1 25 -38q-2 -38 -20 -38h-42v-77q-1 -32 -46 -32q-44 0 -45 32v77h-155q-25 3 -31 30t7 43zM122 700h76v107z" />
    <glyph glyph-name="uni207F" unicode="&#x207f;" horiz-adv-x="910" 
d="M89 922q0 23 43 23q38 0 38 -19v-16q24 26 43.5 33t49.5 7q55 0 88.5 -30t33.5 -92v-189q0 -20 -46.5 -20.5t-46.5 19.5v189q0 29 -13 42t-34 13q-25 0 -41 -14t-23 -35v-192q0 -22 -46 -21.5t-46 21.5v281z" />
    <glyph glyph-name="uni2081" unicode="&#x2081;" horiz-adv-x="910" 
d="M247 328v-356q0 -30 -43 -30q-44 0 -44 29v298l-40 -20q-32 -15 -56 19q-17 41 11 59l74 39q34 17 69 10q29 -14 29 -48z" />
    <glyph glyph-name="uni2082" unicode="&#x2082;" horiz-adv-x="910" 
d="M35 233q0 60 37.5 102.5t117.5 42.5q66 0 102.5 -34t36.5 -96q0 -47 -27 -84.5t-88 -70.5q-47 -29 -66.5 -45.5t-20.5 -23.5h181q25 -3 25 -37t-24 -38h-283q2 79 37 125q27 33 76.5 64.5l49.5 31.5q52 34 52 81q0 29 -14.5 43.5t-37.5 14.5q-28 0 -47.5 -17t-19.5 -59
q-3 -31 -42 -30q-42 0 -45 30z" />
    <glyph glyph-name="uni2083" unicode="&#x2083;" horiz-adv-x="910" 
d="M30 258q2 51 36 86q39 38 116 38q71 0 110 -39q29 -33 29 -84q0 -30 -12.5 -54.5t-24.5 -29.5q19 -10 34.5 -39.5t15.5 -59.5q0 -55 -39 -95q-50 -40 -121 -40q-81 0 -117 30.5t-36 88.5q4 28 45 28q23 0 34.5 -7.5t11.5 -22.5q0 -25 13.5 -35t47.5 -10q31 0 50 17.5
t19 49.5q0 28 -15 42t-46 14h-17q-27 4 -27 38q0 31 27 38h12q26 0 42 12.5t16 37.5q0 20 -15 32.5t-41 12.5q-29 0 -45.5 -14t-16.5 -42q-7 -28 -43 -28q-42 2 -43 35z" />
    <glyph glyph-name="uni2084" unicode="&#x2084;" horiz-adv-x="910" 
d="M198 365q17 20 54 14t37 -25v-226h37q28 -1 25 -38q-2 -38 -20 -38h-42v-77q-1 -32 -46 -32q-44 0 -45 32v77h-155q-25 3 -31 30t7 43zM122 128h76v107z" />
    <glyph glyph-name="Euro" unicode="&#x20ac;" horiz-adv-x="910" 
d="M796 190q8 -2 15.5 -8t9.5 -15q4 -22 -9.5 -43t-34.5 -41q-25 -24 -84.5 -58t-167.5 -34q-147 0 -244.5 104t-97.5 289q0 192 97.5 294t243.5 102q90 0 154 -33.5t109 -88.5q10 -16 9.5 -32t-15.5 -28q-12 -8 -24.5 -5.5t-27.5 19.5q-33 45 -83 75t-122 30
q-126 0 -197 -95.5t-71 -237.5q0 -149 79 -239.5t194 -90.5q110 0 178 48t89 88zM535 330q27 0 33.5 -3.5t6.5 -12.5q0 -18 -18 -30.5t-42 -12.5h-427q-21 0 -30.5 3.5t-9.5 12.5q0 15 16 29t41 14h430zM546 501q27 0 33.5 -3.5t6.5 -12.5q0 -18 -18 -30.5t-42 -12.5h-426
q-21 0 -30.5 3.5t-9.5 12.5q0 15 16 29t41 14h429z" />
    <glyph glyph-name="uni2103" unicode="&#x2103;" horiz-adv-x="910" 
d="M866 190q8 -2 15.5 -8t9.5 -15q4 -22 -9.5 -43t-34.5 -41q-25 -24 -84.5 -58t-167.5 -34q-147 0 -244.5 104t-97.5 289q0 192 97.5 294t243.5 102q90 0 154 -33.5t109 -88.5q10 -16 9.5 -32t-15.5 -28q-12 -8 -24.5 -5.5t-27.5 19.5q-33 45 -83 75t-122 30
q-126 0 -197 -95.5t-71 -237.5q0 -149 79 -239.5t194 -90.5q110 0 178 48t89 88zM284 724q0 -41 -31.5 -72.5t-72.5 -31.5t-71.5 32t-30.5 73t31.5 72.5t72.5 31.5t71.5 -32t30.5 -73zM242 725q0 27 -18.5 46t-43.5 19t-43.5 -19t-18.5 -46q0 -26 18.5 -45.5t43.5 -19.5
t43.5 19.5t18.5 45.5z" />
    <glyph glyph-name="uni2109" unicode="&#x2109;" horiz-adv-x="910" 
d="M250 724q0 -41 -31.5 -72.5t-72.5 -31.5t-71.5 32t-30.5 73t31.5 72.5t72.5 31.5t71.5 -32t30.5 -73zM208 725q0 27 -18.5 46t-43.5 19t-43.5 -19t-18.5 -46q0 -26 18.5 -45.5t43.5 -19.5t43.5 19.5t18.5 45.5zM371 789h387q25 0 31.5 -4t6.5 -12q0 -17 -15.5 -31.5
t-37.5 -14.5h-350v-253h276q25 0 31.5 -4t6.5 -12q0 -17 -15.5 -31.5t-37.5 -14.5h-261v-341q0 -9 -10 -16t-26 -7t-26 7t-10 16v679q0 14 12.5 26.5t37.5 12.5z" />
    <glyph glyph-name="uni2113" unicode="&#x2113;" horiz-adv-x="910" 
d="M481 780q-36 0 -57.5 -80t-24.5 -158q-3 -77 -3 -159t8 -220q75 84 96.5 199.5t21.5 196.5q0 117 -9 169t-32 52zM477 853q52 0 85.5 -58.5t33.5 -228.5q0 -112 -33.5 -236.5t-117.5 -216.5q14 -46 25 -54.5t30 -8.5q24 0 46.5 30t31.5 63l55 -54q-13 -30 -54 -65
t-94 -35q-30 0 -61.5 21t-53.5 68q-23 -10 -46.5 -15t-44.5 -5l-14 60q7 0 23 2.5t46 10.5q-16 151 -18 237.5t1 141.5q8 120 51 231.5t109 111.5z" />
    <glyph glyph-name="uni2116" unicode="&#x2116;" horiz-adv-x="910" 
d="M800 385q0 -108 -47 -183.5t-136 -75.5q-83 0 -129 72.5t-46 186.5q0 125 47.5 193t128.5 68q78 0 130 -67t52 -194zM728 385q0 89 -32.5 145t-78.5 56q-45 0 -74 -52t-29 -149q0 -84 26.5 -141.5t77.5 -57.5q46 0 78 55.5t32 143.5zM827 211q33 -1 39.5 -11.5t6.5 -33.5
q0 -29 -12 -37.5t-33 -8.5q-24 0 -34.5 8.5t-10.5 36.5q0 23 8.5 34t35.5 12zM355 839q17 0 25.5 -9.5t8.5 -27.5v-608q0 -26 -6 -41.5t-30 -22.5q-24 -4 -43 7t-30 37l-184 502v-509q0 -22 -9 -31.5t-31 -9.5q-16 0 -23.5 8t-7.5 30v617q0 27 6.5 39.5t30.5 18.5
q20 4 37.5 -4.5t25.5 -27.5l192 -537v532q0 21 9.5 29t28.5 8z" />
    <glyph glyph-name="uni2121" unicode="&#x2121;" horiz-adv-x="910" 
d="M833 792v-638q0 -20 -10.5 -28t-27.5 -8q-15 0 -24.5 7t-9.5 30v637q0 16 7.5 24.5t26.5 8.5q18 0 28 -8t10 -25zM705 404q0 -39 -5 -46.5t-26 -7.5h-256q2 -78 32.5 -122.5t73.5 -44.5q30 0 57 15.5t50 54.5q12 24 26 25t22 -5q15 -11 17.5 -22.5t-5.5 -27.5
q-15 -45 -58.5 -73t-110.5 -28q-84 0 -135 65t-51 194q0 110 48.5 182.5t143.5 72.5q82 -3 129.5 -67.5t47.5 -164.5zM638 410q-6 80 -37.5 122t-80.5 42q-46 0 -71.5 -39t-33.5 -125h223zM28 767q0 24 12.5 34.5t34.5 10.5h328q23 0 28.5 -1.5t5.5 -12.5q0 -27 -13 -37.5
t-37 -10.5h-120v-591q0 -21 -9.5 -29t-26.5 -8q-16 0 -26.5 7t-10.5 30l-3 591h-132q-20 0 -25.5 2.5t-5.5 14.5z" />
    <glyph glyph-name="trademark" unicode="&#x2122;" horiz-adv-x="910" 
d="M812 494q0 -27 -11.5 -34.5t-25.5 -7.5q-16 0 -24.5 8t-8.5 44v273l-66 -199q-10 -28 -22 -36.5t-28 -7.5q-20 -1 -32 9.5t-17 29.5l-68 201v-273q0 -36 -11 -42.5t-24 -6.5q-16 0 -26 6.5t-10 31.5v359q0 19 8.5 24.5t26.5 8.5q21 5 38.5 0t23.5 -18l88 -253l93 257
q4 9 21.5 13t38.5 1q19 -3 27.5 -10.5t8.5 -29.5v-348zM53 834q0 12 7 27.5t29 15.5h291q24 0 29 -2.5t5 -12.5q0 -20 -6.5 -32.5t-25.5 -12.5h-103v-323q0 -25 -10 -33.5t-27 -8.5q-14 0 -24 8t-10 34v323h-124q-20 0 -25.5 3.5t-5.5 13.5z" />
    <glyph glyph-name="Omega" unicode="&#x2126;" horiz-adv-x="910" 
d="M745 473q0 -98 -47.5 -185t-140.5 -136v-110h110v-38h-148q-17 0 -23.5 8t-6.5 18l-3 116q0 16 3.5 27.5t9.5 12.5q84 26 128 100.5t44 187.5q0 134 -66.5 210.5t-163.5 76.5q-90 0 -159.5 -79.5t-69.5 -211.5q0 -115 44 -184t119 -96q9 -5 17.5 -16.5t7.5 -31.5v-100
q0 -23 -5.5 -30.5t-26.5 -7.5h-146v38h108v106q-96 40 -145.5 117.5t-49.5 201.5q0 150 91.5 248.5t213.5 98.5q131 0 218 -97t87 -244v0z" />
    <glyph glyph-name="uni212B" unicode="&#x212b;" horiz-adv-x="910" 
d="M767 59q11 -34 7.5 -45t-18.5 -12q-24 -2 -38 4t-26 35l-77 212h-327l-70 -206q-11 -28 -26 -36.5t-45 -8.5q-15 0 -17 10t5 33l240 629q8 23 18 37t31 14h59q19 0 26 -7t12 -21zM306 315h290l-145 358zM560 847q0 -41 -31.5 -72.5t-72.5 -31.5t-71.5 32t-30.5 73
t31.5 72.5t72.5 31.5t71.5 -32t30.5 -73zM518 848q0 27 -18.5 46t-43.5 19t-43.5 -19t-18.5 -46q0 -26 18.5 -45.5t43.5 -19.5t43.5 19.5t18.5 45.5z" />
    <glyph glyph-name="onethird" unicode="&#x2153;" horiz-adv-x="910" 
d="M476 417q0 23 12 45t28 39q24 15 50 27t58 12q58 0 94.5 -32t36.5 -75q0 -68 -52 -100q31 -12 45 -40t14 -63q0 -39 -36 -75q-44 -40 -102 -40q-69 0 -105 28q-43 27 -51 99h80q7 -40 28 -51q12 -13 48 -13q26 0 46 16t20 43q0 33 -20 49t-42 16h-33v63h37q18 0 34 20
t16 40t-18 35.5t-44 15.5q-36 0 -53 -23q-15 -13 -15 -36h-76zM49 890h40q40 4 61 24q20 16 23 48h48v-422h-71v287h-101v63zM686 922l36 -20l-647 -776l-36 29z" />
    <glyph glyph-name="twothirds" unicode="&#x2154;" horiz-adv-x="910" 
d="M483 421q0 24 10.5 47.5t29.5 40.5q21 14 48 22.5t61 8.5q58 0 94 -30.5t40 -74.5q0 -43 -14 -68.5t-45 -33.5q40 -4 53.5 -31.5t13.5 -67.5q0 -43 -44 -79q-40 -37 -98 -37q-69 0 -105 29q-44 31 -55 99h76q7 -40 28 -55q16 -10 52 -10q26 0 48 16.5t22 44.5
q0 32 -19.5 48t-46.5 16h-34v63h38q18 0 34 18t16 42q0 16 -16 31.5t-42 15.5q-36 0 -57 -19q-16 -17 -19 -36h-69zM18 815q0 67 39.5 107t108.5 40q51 0 91 -36t40 -84t-22 -81.5t-77 -70.5q-17 -3 -32.5 -16.5t-32.5 -22.5q-26 -31 -31 -47h198v-64h-290q0 55 29 99
q19 40 102 92q21 16 37 28t28 24q23 24 23 59q0 29 -20 42.5t-43 13.5q-29 0 -53 -21.5t-24 -61.5h-71zM682 911l37 -17l-652 -776l-32 25z" />
    <glyph glyph-name="oneeighth" unicode="&#x215b;" horiz-adv-x="910" 
d="M62 886h40q39 8 60 25q19 15 19 47h53v-422h-72v291h-100v59zM686 918l36 -20l-651 -776l-32 29zM628 469q-33 0 -51.5 -14.5t-18.5 -37.5q0 -21 18.5 -34.5t51.5 -13.5q26 0 44 13.5t18 34.5q0 23 -18 37.5t-44 14.5zM624 302q-32 0 -54 -20t-22 -48q0 -24 20 -40
t56 -16q40 0 59.5 16t19.5 40q0 28 -22 48t-57 20zM620 532q63 0 102 -35q33 -32 33 -72q0 -29 -14.5 -54t-37.5 -38q35 -16 49 -42t14 -57q0 -43 -40 -79q-40 -40 -106 -40q-65 0 -104 40q-37 36 -37 75q0 68 53 103q-45 28 -45 84q0 44 32 80q39 35 101 35z" />
    <glyph glyph-name="threeeighths" unicode="&#x215c;" horiz-adv-x="910" 
d="M31 838q0 60 44 96q40 32 102 32q52 0 92 -28q40 -32 40 -79q0 -32 -12 -56.5t-44 -39.5q64 -36 64 -107q0 -44 -36 -80q-43 -40 -104 -40q-135 0 -154 132h70q14 -44 29 -56q19 -17 55 -17q29 0 50.5 20t21.5 49q0 26 -21.5 44.5t-46.5 18.5h-36v64h36q25 0 41 18t16 41
q0 21 -18.5 38.5t-42.5 17.5q-36 0 -58 -24q-12 -11 -22 -44h-66zM686 914l36 -16l-651 -776l-32 25zM624 465q-32 0 -50.5 -12.5t-18.5 -35.5q0 -21 18.5 -36.5t50.5 -15.5q26 0 44 15.5t18 36.5q0 23 -18 35.5t-44 12.5zM624 298q-36 0 -58 -18t-22 -46q0 -24 22 -42
t58 -18q35 0 54.5 18t19.5 42q0 28 -22 46t-52 18zM615 532q59 0 107 -35q33 -32 33 -72q0 -33 -14.5 -58.5t-37.5 -33.5q31 -19 45 -43.5t14 -55.5q0 -43 -36 -79q-44 -44 -111 -44q-63 0 -103 40q-36 35 -36 79q0 32 14 58t37 45q-44 28 -44 80q0 48 36 79q36 40 96 40z
" />
    <glyph glyph-name="fiveeighths" unicode="&#x215d;" horiz-adv-x="910" 
d="M62 958h227v-64h-174l-18 -87q29 16 69 16q59 0 99 -32q48 -44 48 -112q0 -72 -52 -116q-44 -35 -102 -35q-62 0 -101 32q-48 35 -48 96h72q0 -28 22 -44.5t51 -16.5q34 0 60 20t26 57q0 47 -26 69t-60 22q-44 0 -73 -29h-55zM690 922l36 -16l-651 -776l-36 25zM624 473
q-32 0 -49 -16.5t-17 -35.5q0 -20 18.5 -36t47.5 -16q30 0 48 16t18 36q0 19 -18 35.5t-48 16.5zM624 306q-36 0 -56 -20.5t-20 -48.5q0 -23 20 -39.5t56 -16.5q40 0 57 16.5t17 39.5q0 28 -19.5 48.5t-54.5 20.5zM615 536q63 0 107 -35q33 -28 33 -72q0 -64 -52 -96
q31 -12 47 -37.5t16 -58.5q0 -42 -40 -82q-44 -37 -106 -37q-68 0 -108 37q-36 36 -36 82q0 28 14 54t42 42q-49 32 -49 88q0 44 36 80q36 35 96 35z" />
    <glyph glyph-name="seveneighths" unicode="&#x215e;" horiz-adv-x="910" 
d="M58 958h286v-60q-119 -139 -163 -349h-70q15 102 70 206q8 23 28 57t48 86h-199v60zM682 934l37 -23l-657 -774l-31 21zM624 473q-32 0 -49 -16.5t-17 -35.5q0 -20 18.5 -36t47.5 -16q30 0 48 16t18 36q0 19 -18 35.5t-48 16.5zM624 306q-36 0 -56 -20.5t-20 -48.5
q0 -23 20 -39.5t56 -16.5q40 0 57 16.5t17 39.5q0 28 -19.5 48.5t-54.5 20.5zM615 536q64 0 107 -35q33 -28 33 -72q0 -64 -52 -96q31 -12 47 -37.5t16 -58.5q0 -42 -40 -82q-44 -37 -106 -37q-68 0 -108 37q-36 36 -36 82q0 28 14 54t42 42q-49 32 -49 88q0 44 36 80
q36 35 96 35z" />
    <glyph glyph-name="uni2160" unicode="&#x2160;" horiz-adv-x="910" 
d="M446 780h72v-795h-72v795z" />
    <glyph glyph-name="uni2161" unicode="&#x2161;" horiz-adv-x="910" 
d="M579 780h72v-795h-72v795zM321 780h72v-795h-72v795z" />
    <glyph glyph-name="uni2162" unicode="&#x2162;" horiz-adv-x="910" 
d="M460 780h72v-795h-72v795zM668 780h72v-795h-72v795zM254 780h72v-795h-72v795z" />
    <glyph glyph-name="uni2163" unicode="&#x2163;" horiz-adv-x="910" 
d="M161 781h72v-796h-72v796zM837 781q-48 -183 -102.5 -392t-107.5 -404h-102q-53 195 -106.5 404t-102.5 392h77l183 -710l184 710h77z" />
    <glyph glyph-name="uni2164" unicode="&#x2164;" horiz-adv-x="910" 
d="M793 781q-63 -181 -134 -390t-138 -406h-105l-273 796h81q51 -155 106.5 -321.5t138.5 -414.5q83 248 138 414.5t106 321.5h80z" />
    <glyph glyph-name="uni2165" unicode="&#x2165;" horiz-adv-x="910" 
d="M801 -15h-72v796h72v-796zM205 781l183 -710l184 710h77q-48 -183 -102.5 -392t-107.5 -404h-102q-53 195 -106.5 404t-102.5 392h77z" />
    <glyph glyph-name="uni2166" unicode="&#x2166;" horiz-adv-x="910" 
d="M848 781v-796h-72v796h72zM266 -15l-181 796h78l153 -694l153 694h78l-181 -796h-100zM673 781v-796h-72v796h72z" />
    <glyph glyph-name="uni2167" unicode="&#x2167;" horiz-adv-x="910" 
d="M879 781l-1 -796h-72l1 796h72zM589 781l-1 -796h-72l1 796h72zM205 -15l-158 795h69l141 -709l138 709h68l-159 -795h-99zM739 781l-1 -796h-72l1 796h72z" />
    <glyph glyph-name="uni2168" unicode="&#x2168;" horiz-adv-x="910" 
d="M832 782l-227 -392q71 -124 132.5 -229t102.5 -176h-79l-193 333l-194 -333h-79q39 71 101 176t132 229l-226 392h79q36 -61 77 -135t111 -185l184 320h79zM136 781h71v-796h-71v796z" />
    <glyph glyph-name="uni2169" unicode="&#x2169;" horiz-adv-x="910" 
d="M771 782q-41 -64 -104.5 -164.5t-139.5 -218.5l265 -414h-76q-46 72 -99.5 153.5t-127.5 200.5q-75 -119 -126 -200.5t-98 -153.5h-78q46 71 115 180.5t149 233.5l-244 383h78q40 -61 86.5 -136t117.5 -184q70 109 117 184t87 136h78z" />
    <glyph glyph-name="uni2170" unicode="&#x2170;" horiz-adv-x="910" 
d="M522 702h-74v80h74v-80zM521 -15h-72v568h72v-568z" />
    <glyph glyph-name="uni2171" unicode="&#x2171;" horiz-adv-x="910" 
d="M650 702h-74v80h74v-80zM395 702h-74v80h74v-80zM649 -15h-72v568h72v-568zM394 -15h-72v568h72v-568z" />
    <glyph glyph-name="uni2172" unicode="&#x2172;" horiz-adv-x="910" 
d="M519 702h-74v80h74v-80zM304 702h-74v80h74v-80zM518 -15h-72v568h72v-568zM303 -15h-72v568h72v-568zM745 702h-74v80h74v-80zM744 -15h-72v568h72v-568z" />
    <glyph glyph-name="uni2173" unicode="&#x2173;" horiz-adv-x="910" 
d="M244 -15h-72v566h72v-566zM245 702h-74v80h74v-80zM819 551q-44 -122 -95.5 -274t-99.5 -292h-103q-46 140 -98.5 292t-93.5 274h80q30 -95 66 -205.5t99 -301.5q62 191 97 301.5t67 205.5h81z" />
    <glyph glyph-name="uni2174" unicode="&#x2174;" horiz-adv-x="910" 
d="M726 551q-41 -122 -93.5 -274t-99.5 -292h-102q-48 140 -99 292t-94 274h80q30 -95 66 -205.5t100 -302.5q59 192 95.5 302.5t65.5 205.5h81z" />
    <glyph glyph-name="uni2175" unicode="&#x2175;" horiz-adv-x="910" 
d="M640 551q-43 -122 -95 -274t-99 -292h-103q-46 140 -98.5 292t-93.5 274h80q31 -95 66.5 -206t97.5 -303l164 509h81zM786 -15h-72v566h72v-566zM787 702h-74v80h74v-80z" />
    <glyph glyph-name="uni2176" unicode="&#x2176;" horiz-adv-x="910" 
d="M539 552q-37 -123 -83 -275.5t-87 -291.5h-100q-41 139 -87 291.5t-83 275.5h72q27 -91 59.5 -202.5t87.5 -311.5q58 200 89.5 311.5t59.5 202.5h72zM685 -15h-72v566h72v-566zM686 702h-74v80h74v-80zM838 -15h-72v566h72v-566zM839 702h-74v80h74v-80z" />
    <glyph glyph-name="uni2177" unicode="&#x2177;" horiz-adv-x="910" 
d="M447 552l-149 -567h-100l-149 567h68q24 -93 51 -202t80 -329q53 220 79.5 329t51.5 202h68zM584 -15h-72v566h72v-566zM585 702h-74v80h74v-80zM733 -15h-72v566h72v-566zM734 702h-74v80h74v-80zM883 -15h-72v566h72v-566zM884 702h-74v80h74v-80z" />
    <glyph glyph-name="uni2178" unicode="&#x2178;" horiz-adv-x="910" 
d="M266 -15h-72v566h72v-566zM267 702h-74v80h74v-80zM719 -15l-142 219q-54 -83 -86 -132t-56 -87h-83l184 289l-175 277h82q23 -36 52.5 -81t81.5 -123q53 78 82 123t52 81h82l-175 -277l184 -289h-83z" />
    <glyph glyph-name="uni2179" unicode="&#x2179;" horiz-adv-x="910" 
d="M636 -15l-152 218l-153 -218h-81q26 36 77 112.5t115 169.5q-61 92 -110.5 169.5t-73.5 113.5h82q25 -40 57.5 -88t86.5 -134q54 86 86 134.5t56 87.5h83q-24 -36 -73.5 -113.5t-109.5 -169.5q64 -93 114.5 -169.5t76.5 -112.5h-81z" />
    <glyph glyph-name="arrowleft" unicode="&#x2190;" horiz-adv-x="910" 
d="M264 390l91 -119l-20 -20l-242 159l246 159l16 -24l-91 -107h588v-48h-588z" />
    <glyph glyph-name="arrowup" unicode="&#x2191;" horiz-adv-x="910" 
d="M582 554l-104 87v-589h-48v589l-111 -91l-16 23l156 235l150 -243z" />
    <glyph glyph-name="arrowright" unicode="&#x2192;" horiz-adv-x="910" 
d="M594 263l-21 16l87 111h-587v48h587l-87 112l21 19l247 -156z" />
    <glyph glyph-name="arrowdown" unicode="&#x2193;" horiz-adv-x="910" 
d="M462 31l-160 248l16 20l115 -92v585h52v-585l116 96l15 -28z" />
    <glyph glyph-name="arrowboth" unicode="&#x2194;" horiz-adv-x="910" 
d="M645 255l-24 20l79 115h-488l79 -115l-28 -16l-211 151l215 155l24 -20l-79 -107h488l-83 116l31 11l211 -155z" />
    <glyph glyph-name="arrowupdn" unicode="&#x2195;" horiz-adv-x="910" 
d="M602 650l-127 88v-591l127 87l17 -31l-165 -231l-172 236l23 23l117 -84v591l-127 -92l-17 30l176 237l169 -240z" />
    <glyph glyph-name="uni2196" unicode="&#x2196;" horiz-adv-x="910" 
d="M734 164l-456 461l-13 -150l-34 -4l-66 310l310 -65v-35l-153 -13l460 -456z" />
    <glyph glyph-name="uni2197" unicode="&#x2197;" horiz-adv-x="910" 
d="M690 471l-36 4l-12 150l-455 -461l-49 48l460 456l-154 13v35l306 65z" />
    <glyph glyph-name="uni2198" unicode="&#x2198;" horiz-adv-x="910" 
d="M470 231v34l153 12l-458 461l48 43l453 -459l16 149l33 4l62 -311z" />
    <glyph glyph-name="uni2199" unicode="&#x2199;" horiz-adv-x="910" 
d="M282 277l153 -12v-34l-309 -67l64 311l36 -4l12 -149l457 459l48 -43z" />
    <glyph glyph-name="arrowdblright" unicode="&#x21d2;" horiz-adv-x="910" 
d="M567 191l71 72h-571v60h632l67 67l-67 67h-632v61h571l-71 71l44 44l242 -243l-242 -242z" />
    <glyph glyph-name="arrowdblboth" unicode="&#x21d4;" horiz-adv-x="910" 
d="M648 518l-71 71l44 44l242 -243l-242 -242l-44 43l71 72h-381l72 -72l-44 -43l-243 242l243 243l44 -44l-72 -71h381zM709 457h-500l-70 -67l70 -67h500l67 67z" />
    <glyph glyph-name="universal" unicode="&#x2200;" horiz-adv-x="910" 
d="M800 742q11 34 7.5 45t-18.5 12q-24 2 -38 -4t-26 -35l-77 -212h-327l-70 206q-11 28 -26 36.5t-45 8.5q-15 0 -17 -10t5 -33l240 -637q8 -23 18 -37t31 -14h59q19 0 26 7t12 21zM339 486h290l-145 -366z" />
    <glyph glyph-name="partialdiff" unicode="&#x2202;" horiz-adv-x="910" 
d="M257 533q16 48 52 84q43 44 112 44q66 0 102 -36q29 -28 40 -71q17 -40 17 -109q0 -182 -61 -281q-47 -80 -135 -80q-67 0 -103 36q-43 44 -43 135q0 100 59 163q47 48 99 48q36 0 72 -21q28 -15 55 -46q0 75 -11 119q-12 44 -33 66q-23 25 -62 25q-36 0 -60 -28
q-20 -19 -32 -48h-68zM413 410q-44 0 -76 -40q-40 -41 -40 -115q0 -68 32 -96q19 -24 55 -24q37 0 72 36q36 36 48 128l8 43q-47 68 -99 68z" />
    <glyph glyph-name="existential" unicode="&#x2203;" horiz-adv-x="910" 
d="M313 21q-22 0 -37.5 14.5t-15.5 31.5q0 8 6.5 12t31.5 4h333v289h-276q-22 0 -37.5 14.5t-15.5 31.5q0 8 6.5 12t31.5 4h291v245h-343q-22 0 -37.5 14.5t-15.5 31.5q0 8 6.5 12t31.5 4h380q25 0 37.5 -12.5t12.5 -26.5v-644q0 -14 -13 -25.5t-33 -11.5h-344z" />
    <glyph glyph-name="gradient" unicode="&#x2207;" horiz-adv-x="910" 
d="M82 657h640l-323 -573zM198 589l219 -406l225 406h-444z" />
    <glyph glyph-name="element" unicode="&#x2208;" horiz-adv-x="910" 
d="M383 183q-104 0 -156 56q-55 60 -55 151q0 88 51 143q65 64 156 64h357v-60h-357q-68 0 -108 -40q-36 -31 -36 -79h501v-55h-505q13 -56 40 -80q40 -41 108 -41h357v-59h-353z" />
    <glyph glyph-name="suchthat" unicode="&#x220b;" horiz-adv-x="910" 
d="M533 183h-354v59h358q68 0 108 41q29 24 41 80h-507v55h503q0 48 -37 79q-40 40 -108 40h-358v60h358q93 0 155 -64q52 -55 52 -143q0 -91 -56 -151q-50 -56 -155 -56z" />
    <glyph glyph-name="product" unicode="&#x220f;" horiz-adv-x="910" 
d="M613 763v-604h-82v604h-165v-604h-84v604h-127v75h588v-75h-130z" />
    <glyph glyph-name="summation" unicode="&#x2211;" horiz-adv-x="910" 
d="M170 151v27l279 332l-279 302v57h554v-267h-34l-44 210h-364l249 -298l-226 -267h371v146h48v-242h-554z" />
    <glyph glyph-name="radical" unicode="&#x221a;" horiz-adv-x="910" 
d="M499 712l-201 -719l-136 266l-71 -52l-8 28l110 88l92 -175l171 624h391v-60h-348z" />
    <glyph glyph-name="proportional" unicode="&#x221d;" horiz-adv-x="910" 
d="M498 378l48 -52q48 -47 106 -47q40 0 74 24l43 -44q-43 -40 -117 -40q-83 0 -134 44l-55 63l-53 -67q-51 -44 -126 -44t-119 40q-48 48 -48 123q0 72 44 119q51 48 114 48q79 0 127 -48l65 -67l48 63q54 52 130 52q77 0 124 -52l-43 -39q-34 31 -81 31q-55 0 -99 -47
q-24 -25 -48 -60zM427 382l-52 56q-44 47 -100 47q-40 0 -66 -35q-30 -28 -30 -72t33 -79q23 -24 67 -24q56 0 104 48z" />
    <glyph glyph-name="infinity" unicode="&#x221e;" horiz-adv-x="910" 
d="M268 152q-47 0 -83 16.5t-63 45.5q-25 29 -40 67.5t-15 81.5q0 41 16 79t42 67q27 29 63.5 46.5t79.5 17.5q37 0 66.5 -10.5t51.5 -27.5q22 -18 38 -41t29 -48q12 25 30 48.5t42 41.5q23 16 51 26.5t61 10.5q43 0 79.5 -18t64.5 -47q26 -30 41.5 -67.5t15.5 -77.5
q0 -44 -16 -82.5t-42 -67.5q-28 -29 -65 -45t-78 -16q-39 0 -66 8.5t-48 24.5q-22 17 -39 40t-33 53q-30 -59 -72.5 -92.5t-110.5 -33.5v0zM755 363q0 25 -9.5 48t-26.5 41q-16 16 -37.5 26t-44.5 10q-29 0 -49 -9.5t-35 -25.5q-15 -18 -27.5 -41t-26.5 -49l37 -68
q15 -28 40 -43t61 -15q25 0 46 10.5t37 28.5q17 17 26 40t9 47v0zM150 363q0 -26 9 -48.5t26 -39.5q15 -18 36.5 -28t46.5 -10q28 0 48 9.5t36 27.5q14 16 26 39t26 50q-14 26 -26 48.5t-26 40.5q-16 16 -36 26t-48 10q-25 0 -46.5 -11t-36.5 -28q-17 -18 -26 -40.5
t-9 -45.5v0z" />
    <glyph glyph-name="angle" unicode="&#x2220;" horiz-adv-x="910" 
d="M703 159v-59h-614l553 617l37 -44l-466 -514h490z" />
    <glyph glyph-name="uni2225" unicode="&#x2225;" horiz-adv-x="910" 
d="M332 687h77v-914h-77v914zM542 687h76v-914h-76v914z" />
    <glyph glyph-name="logicaland" unicode="&#x2227;" horiz-adv-x="910" 
d="M700 41l-241 532l-247 -532l-55 23l297 657l303 -657z" />
    <glyph glyph-name="logicalor" unicode="&#x2228;" horiz-adv-x="910" 
d="M157 705l55 27l242 -541l246 541l57 -27l-303 -657z" />
    <glyph glyph-name="intersection" unicode="&#x2229;" horiz-adv-x="910" 
d="M220 92v314q0 116 68 187q75 68 170 68q100 0 176 -68q66 -71 66 -183v-318h-58v318q0 87 -56 144q-53 48 -128 48t-123 -48q-56 -57 -56 -144v-318h-59z" />
    <glyph glyph-name="union" unicode="&#x222a;" horiz-adv-x="910" 
d="M696 661v-314q0 -116 -66 -188q-76 -67 -171 -67q-100 0 -175 67q-68 72 -68 183v319h59v-319q0 -87 56 -142q52 -48 128 -48q74 0 123 48q56 55 56 142v319h58z" />
    <glyph glyph-name="integral" unicode="&#x222b;" horiz-adv-x="910" 
d="M399 609q-4 79 30 119q37 36 84 36q61 0 93 -32q22 -27 26 -67h-58q0 19 -21 40q-7 7 -40 7q-27 0 -47 -20q-19 -19 -11 -75l18 -465q0 -72 -26 -100q-40 -36 -92 -36q-56 0 -80 20q-32 28 -35 72h59q4 -24 16 -33q12 -11 48 -11q19 0 40 16q19 16 11 79z" />
    <glyph glyph-name="uni222C" unicode="&#x222c;" horiz-adv-x="910" 
d="M722 665q0 19 -22 31q-8 13 -40 13q-26 0 -47 -21q-19 -20 -11 -75l19 -465q0 -68 -27 -96q-40 -40 -92 -40q-60 0 -79 19q-33 29 -36 73h59q3 -24 17 -32q12 -12 43 -12q20 0 44 15q19 21 12 81l-16 449q-4 79 31 119q31 37 83 37q62 0 93 -33q23 -28 27 -63h-58z
M446 665q-4 19 -15 35q-8 9 -41 9q-27 0 -47 -21q-20 -20 -12 -75l19 -465q0 -68 -27 -96q-39 -40 -92 -40q-59 0 -79 19q-31 29 -35 73h59q3 -24 15 -32q14 -12 44 -12q21 0 40 15q24 21 16 81l-16 449q-4 79 32 119q32 37 83 37q59 0 92 -33q24 -28 29 -63h-65z" />
    <glyph glyph-name="uni222E" unicode="&#x222e;" horiz-adv-x="910" 
d="M305 300q52 -53 117 -53l-26 385q-57 -12 -96 -51q-49 -49 -49 -141q0 -87 54 -140zM642 261q-57 -58 -145 -75q0 -144 -48 -189q-48 -47 -119 -47q-65 0 -99 30q-44 44 -44 97h70q8 -65 77 -65q32 0 62 25q30 31 30 145q-100 9 -161 74q-71 68 -71 184q0 109 67 180
q56 56 135 70q-4 144 42 195q49 49 120 49q65 0 108 -43q33 -31 33 -79h-71q-18 61 -83 61q-26 0 -48 -25q-30 -32 -30 -154q103 -9 161 -65q71 -71 71 -185q0 -126 -57 -183zM575 593q-49 48 -108 39l25 -385q53 9 102 53q44 44 44 144q0 88 -63 149z" />
    <glyph glyph-name="therefore" unicode="&#x2234;" horiz-adv-x="910" 
d="M238 179q0 -34 -25 -59t-59 -25t-59 25t-25 59t25 59t59 25t59 -25t25 -59zM839 179q0 -34 -25 -59t-59 -25t-59 25t-25 59t25 59t59 25t59 -25t25 -59zM542 609q0 -34 -25 -59t-59 -25t-59 25t-25 59t25 59t59 25t59 -25t25 -59z" />
    <glyph glyph-name="uni2235" unicode="&#x2235;" horiz-adv-x="910" 
d="M238 599q0 -34 -25 -59t-59 -25t-59 25t-25 59t25 59t59 25t59 -25t25 -59zM839 599q0 -34 -25 -59t-59 -25t-59 25t-25 59t25 59t59 25t59 -25t25 -59zM542 169q0 -34 -25 -59t-59 -25t-59 25t-25 59t25 59t59 25t59 -25t25 -59z" />
    <glyph glyph-name="similar" unicode="&#x223c;" horiz-adv-x="910" 
d="M381 528q43 0 74 -14t60 -34q14 -11 36 -19.5t44 -8.5q28 0 54 16t49 56l58 -58q-21 -36 -70.5 -63.5t-107.5 -27.5q-42 0 -65 10q-14 5 -26.5 13.5t-28.5 19.5q-20 17 -42 25t-45 8q-26 0 -57.5 -16.5t-54.5 -53.5l-56 56q22 37 70.5 64t107.5 27v0z" />
    <glyph glyph-name="uni223D" unicode="&#x223d;" horiz-adv-x="910" 
d="M331 474q-32 19 -68 19q-40 0 -72 -36q-26 -27 -26 -75q0 -53 26 -79q36 -36 76 -36q56 0 108 52q27 28 67 87q36 64 76 104q48 44 116 44q80 0 127 -48q51 -52 51 -124q0 -79 -46 -123q-52 -52 -114 -52q-47 0 -98 20l28 56q26 -12 66 -12t74 28q26 27 26 83
q0 44 -39 84q-27 27 -71 27q-48 0 -72 -27l-68 -93q-49 -66 -88 -106q-60 -60 -143 -60q-72 0 -120 48q-48 52 -48 127q0 72 48 124q48 48 116 48q56 0 104 -32z" />
    <glyph glyph-name="uni2252" unicode="&#x2252;" horiz-adv-x="910" 
d="M122 326h560v-47h-560v47zM122 497h560v-47h-560v47zM229 688h84v-83h-84v83zM508 175h87v-88h-87v88z" />
    <glyph glyph-name="notequal" unicode="&#x2260;" horiz-adv-x="910" 
d="M481 510l101 158l51 -35l-83 -123h152v-60h-188l-92 -135h280v-60h-316l-107 -159l-52 35l96 124h-140v60h172l92 135h-264v60h298z" />
    <glyph glyph-name="equivalence" unicode="&#x2261;" horiz-adv-x="910" 
d="M682 581h-560v56h560v-56zM682 359h-560v59h560v-59zM122 196h560v-61h-560v61z" />
    <glyph glyph-name="lessequal" unicode="&#x2264;" horiz-adv-x="910" 
d="M632 167v-55h-389v55h389zM584 684l30 -47l-267 -183l267 -179l-30 -48l-341 230z" />
    <glyph glyph-name="greaterequal" unicode="&#x2265;" horiz-adv-x="910" 
d="M238 167h388v-55h-388v55zM285 684l341 -227l-341 -230l-28 48l267 179l-267 183z" />
    <glyph glyph-name="uni226A" unicode="&#x226a;" horiz-adv-x="910" 
d="M780 115l-48 -43l-393 310l390 306l51 -35l-342 -271zM121 382l397 306l44 -40l-342 -266l342 -267l-44 -43z" />
    <glyph glyph-name="uni226B" unicode="&#x226b;" horiz-adv-x="910" 
d="M172 688l394 -310l-394 -306l-40 43l335 267l-338 266zM387 688l397 -310l-397 -306l-44 43l343 267l-343 266z" />
    <glyph glyph-name="propersubset" unicode="&#x2282;" horiz-adv-x="910" 
d="M719 144h-314q-116 0 -188 67q-66 74 -66 171q0 100 66 176q72 67 183 67h319v-60h-319q-87 0 -143 -55q-47 -53 -47 -128t47 -123q56 -56 143 -56h319v-59z" />
    <glyph glyph-name="propersuperset" unicode="&#x2283;" horiz-adv-x="910" 
d="M162 144v59h317q88 0 145 56q48 48 48 123t-48 128q-57 55 -145 55h-317v60h317q113 0 185 -67q66 -76 66 -176q0 -97 -66 -171q-72 -67 -188 -67h-314z" />
    <glyph glyph-name="reflexsubset" unicode="&#x2286;" horiz-adv-x="910" 
d="M380 593q-71 0 -111 -39q-44 -44 -44 -109q0 -63 44 -107q40 -39 111 -39h350v-60h-346q-106 0 -167 60q-55 60 -55 146q0 88 55 148q61 60 163 60h350v-60h-350zM169 171h561v-59h-561v59z" />
    <glyph glyph-name="reflexsuperset" unicode="&#x2287;" horiz-adv-x="910" 
d="M748 445q0 -86 -60 -146q-58 -60 -159 -60h-353v60h350q72 0 116 39q44 44 44 107q0 65 -48 109q-40 39 -109 39h-353v60h346q108 0 166 -60q60 -60 60 -148zM176 171h560v-59h-560v59z" />
    <glyph glyph-name="uni2299" unicode="&#x2299;" horiz-adv-x="910" 
d="M461 768q70 0 131.5 -28t109.5 -72q49 -47 76.5 -109t27.5 -133q0 -67 -27.5 -129t-76.5 -110q-48 -48 -109.5 -75.5t-131.5 -27.5q-73 0 -136.5 27.5t-110.5 75.5t-73 110t-26 129q0 71 26 133t73 109q47 44 110.5 72t136.5 28zM461 712q-65 0 -118.5 -23.5t-93.5 -63.5
q-39 -41 -60.5 -92t-21.5 -111q0 -56 21.5 -109.5t60.5 -93.5q40 -40 93.5 -64t118.5 -24q59 0 113 24t94 64q39 40 63 93.5t24 109.5q0 60 -24 111t-63 92q-40 40 -94 63.5t-113 23.5zM461 550q23 0 46.5 -10.5t44.5 -25.5q15 -21 27.5 -42.5t12.5 -49.5q0 -23 -12.5 -47
t-27.5 -41q-21 -19 -44.5 -29t-46.5 -10q-29 0 -52.5 10t-43.5 29q-17 17 -26.5 41t-9.5 47q0 28 9.5 49.5t26.5 42.5q20 15 43.5 25.5t52.5 10.5z" />
    <glyph glyph-name="perpendicular" unicode="&#x22a5;" horiz-adv-x="910" 
d="M682 164v-60h-560v60h247v517h63v-517h250z" />
    <glyph glyph-name="uni2312" unicode="&#x2312;" horiz-adv-x="910" 
d="M185 681q108 59 214 59q120 0 221 -59q78 -44 150 -123l-28 -29q-100 80 -162 115q-80 44 -181 44q-99 0 -186 -44q-72 -35 -155 -115l-23 29q58 75 150 123z" />
    <glyph glyph-name="uni2460" unicode="&#x2460;" horiz-adv-x="910" 
d="M278 586q-16 -15 -15.5 -26t13.5 -18q18 -11 32.5 -7.5t24.5 13.5l106 100v-514q0 -8 9 -14t26 -6q15 0 25 6.5t10 13.5v589q0 13 -9 19.5t-26 6.5q-10 0 -17.5 -3.5t-10.5 -5.5zM890 429q0 -188 -122.5 -313t-305.5 -125q-179 0 -305 125t-126 313q0 180 124 308
t307 128t305.5 -128t122.5 -308zM848 430q0 165 -110.5 279t-275.5 114q-167 0 -278 -114t-111 -279t111 -280.5t278 -115.5q165 0 275.5 115.5t110.5 280.5z" />
    <glyph glyph-name="uni2461" unicode="&#x2461;" horiz-adv-x="910" 
d="M607 134q27 0 40 17t13 28q0 8 -7.5 11.5t-32.5 3.5h-252l177 216q50 61 72.5 108.5t22.5 101.5q0 65 -49 109t-141 44q-55 0 -100.5 -23t-72.5 -64q-6 -12 14 -25.5t29 -7.5q15 20 51 40t81 20q51 0 84 -23t33 -66q0 -52 -20 -91.5t-43 -68.5l-211 -268
q-17 -21 -7.5 -41.5t37.5 -20.5h282zM890 429q0 -188 -122.5 -313t-305.5 -125q-179 0 -305 125t-126 313q0 180 124 308t307 128t305.5 -128t122.5 -308zM848 430q0 165 -110.5 279t-275.5 114q-167 0 -278 -114t-111 -279t111 -280.5t278 -115.5q165 0 275.5 115.5
t110.5 280.5z" />
    <glyph glyph-name="uni2462" unicode="&#x2462;" horiz-adv-x="910" 
d="M532 449q61 -7 99.5 -47t38.5 -111q0 -77 -64.5 -131.5t-182.5 -54.5q-56 0 -107.5 27.5t-57.5 43.5q-2 6 1.5 12.5t11.5 14.5q6 6 15 8.5t22 -6.5q14 -10 47.5 -25t84.5 -15q67 0 113.5 33t46.5 96q0 55 -46 87.5t-129 33.5q-29 0 -41.5 9.5t-12.5 23.5q0 12 6 17t27 6
q72 2 126 40.5t54 98.5q0 47 -31.5 71.5t-95.5 24.5q-60 0 -100.5 -23.5t-47.5 -23.5q-12 0 -19.5 8.5t-5.5 15.5q6 24 58 53.5t125 29.5q87 0 137 -47.5t50 -111.5q0 -57 -37.5 -99.5t-84.5 -58.5zM890 429q0 -188 -122.5 -313t-305.5 -125q-179 0 -305 125t-126 313
q0 180 124 308t307 128t305.5 -128t122.5 -308zM848 430q0 165 -110.5 279t-275.5 114q-167 0 -278 -114t-111 -279t111 -280.5t278 -115.5q165 0 275.5 115.5t110.5 280.5z" />
    <glyph glyph-name="uni2463" unicode="&#x2463;" horiz-adv-x="910" 
d="M666 341q18 0 27 -4t9 -11q0 -17 -14.5 -31t-41.5 -14h-74v-145q0 -8 -10 -15t-26 -7q-15 0 -24.5 7t-9.5 15v145h-265q-41 0 -49 21.5t5 42.5l253 352q20 26 39.5 39t46.5 13q21 0 30.5 -7.5t9.5 -23.5v-377h94zM271 341h231v336zM890 429q0 -188 -122.5 -313
t-305.5 -125q-179 0 -305 125t-126 313q0 180 124 308t307 128t305.5 -128t122.5 -308zM848 430q0 165 -110.5 279t-275.5 114q-167 0 -278 -114t-111 -279t111 -280.5t278 -115.5q165 0 275.5 115.5t110.5 280.5z" />
    <glyph glyph-name="uni2464" unicode="&#x2464;" horiz-adv-x="910" 
d="M582 691q30 0 46.5 13t16.5 31q0 12 -8.5 14t-31.5 2h-216q-17 0 -31 -7t-18 -27l-45 -231q-3 -17 6.5 -25.5t32.5 -8.5h92q94 0 136.5 -42t42.5 -103t-45 -102.5t-113 -41.5q-35 0 -74 14.5t-57 28.5q-27 16 -44 -2.5t-13 -34.5q3 -13 55 -40t134 -27q102 0 164.5 60
t62.5 154q0 85 -57.5 140.5t-180.5 55.5h-65l33 179h177zM892 431q0 -188 -122.5 -313t-305.5 -125q-179 0 -305 125t-126 313q0 180 124 308t307 128t305.5 -128t122.5 -308zM850 432q0 165 -110.5 279t-275.5 114q-167 0 -278 -114t-111 -279t111 -280.5t278 -115.5
q165 0 275.5 115.5t110.5 280.5z" />
    <glyph glyph-name="uni2465" unicode="&#x2465;" horiz-adv-x="910" 
d="M391 528q46 15 90.5 14.5t80.5 -18.5q51 -23 88.5 -73t36.5 -121q-1 -89 -62.5 -153.5t-164.5 -64.5t-165 60.5t-62 159.5q0 50 17 94.5t38 73.5l162 245q14 21 30.5 26t30.5 5t18.5 -10t-7.5 -31zM460 172q71 0 114 44t43 115q0 68 -43 113t-114 45q-72 0 -114.5 -45
t-42.5 -113q0 -71 42.5 -115t114.5 -44zM890 429q0 -188 -122.5 -313t-305.5 -125q-179 0 -305 125t-126 313q0 180 124 308t307 128t305.5 -128t122.5 -308zM848 430q0 165 -110.5 279t-275.5 114q-167 0 -278 -114t-111 -279t111 -280.5t278 -115.5q165 0 275.5 115.5
t110.5 280.5z" />
    <glyph glyph-name="uni2466" unicode="&#x2466;" horiz-adv-x="910" 
d="M569 654h-264q-24 0 -36 3.5t-12 17.5q0 15 15 27t47 12h294q21 0 32 -13t3 -36l-201 -526q-13 -33 -33 -42.5t-41 -9.5q-9 0 -14 8t1 24zM890 429q0 -188 -122.5 -313t-305.5 -125q-179 0 -305 125t-126 313q0 180 124 308t307 128t305.5 -128t122.5 -308zM848 430
q0 165 -110.5 279t-275.5 114q-167 0 -278 -114t-111 -279t111 -280.5t278 -115.5q165 0 275.5 115.5t110.5 280.5z" />
    <glyph glyph-name="uni2467" unicode="&#x2467;" horiz-adv-x="910" 
d="M458 466q93 0 150.5 -54.5t57.5 -131.5q0 -81 -58 -133t-150 -52q-89 0 -148.5 50.5t-59.5 134.5q0 79 58 132.5t150 53.5zM458 156q56 0 96.5 34t40.5 90q0 48 -42.5 84t-94.5 36t-94.5 -34.5t-42.5 -85.5q0 -53 38.5 -88.5t98.5 -35.5zM458 748q86 0 139 -50t53 -122
q0 -69 -51 -120t-141 -51q-83 0 -137.5 46.5t-54.5 124.5q0 74 54.5 123t137.5 49zM458 472q53 0 87 28.5t34 75.5t-34 79t-87 32q-54 0 -87.5 -32t-33.5 -79t34 -75.5t87 -28.5zM890 428q0 -188 -122.5 -313t-305.5 -125q-179 0 -305 125t-126 313q0 180 124 308t307 128
t305.5 -128t122.5 -308zM848 429q0 165 -110.5 279t-275.5 114q-167 0 -277.5 -114.5t-110.5 -279.5t110.5 -280t277.5 -115q165 0 275.5 115.5t110.5 280.5z" />
    <glyph glyph-name="uni2468" unicode="&#x2468;" horiz-adv-x="910" 
d="M656 407l-175 -274q-18 -30 -33 -37.5t-42 -7.5q-15 0 -19.5 8t5.5 22l132 206q-27 -9 -71 -8t-82 17q-56 25 -92.5 79.5t-36.5 123.5q0 97 62.5 158.5t162.5 61.5q101 0 164 -60.5t63 -160.5q0 -29 -11 -66t-27 -62zM468 696q-72 0 -114 -45t-42 -115t42 -115t114 -45
q71 0 113.5 45t42.5 115t-42.5 115t-113.5 45zM890 429q0 -188 -122.5 -313t-305.5 -125q-179 0 -305 125t-126 313q0 180 124 308t307 128t305.5 -128t122.5 -308zM848 430q0 165 -110.5 279t-275.5 114q-167 0 -278 -114t-111 -279t111 -280.5t278 -115.5
q165 0 275.5 115.5t110.5 280.5z" />
    <glyph glyph-name="uni2469" unicode="&#x2469;" horiz-adv-x="910" 
d="M573 758q78 0 128.5 -77.5t50.5 -253.5t-49.5 -246.5t-129.5 -70.5q-82 0 -128 70.5t-46 246.5t46.5 253.5t127.5 77.5zM573 170q54 0 80.5 54t27.5 204q1 155 -25 212.5t-83 57.5t-80 -57t-23 -212q0 -156 25.5 -207.5t77.5 -51.5zM158 614l118 126q3 2 10.5 5.5
t17.5 3.5q17 0 26 -6.5t9 -19.5v-589q0 -14 -9 -20.5t-26 -6.5t-26 6t-9 24v505l-57 -63q-10 -10 -24 -15t-32 6q-13 7 -11.5 18.5t13.5 25.5zM890 429q0 -188 -122.5 -313t-305.5 -125q-179 0 -305 125t-126 313q0 180 124 308t307 128t305.5 -128t122.5 -308zM848 430
q0 165 -110.5 279t-275.5 114q-167 0 -278 -114t-111 -279t111 -280.5t278 -115.5q165 0 275.5 115.5t110.5 280.5z" />
    <glyph glyph-name="uni246A" unicode="&#x246a;" horiz-adv-x="910" 
d="M474 614q-12 -14 -13.5 -25.5t11.5 -18.5q18 -11 32 -6t24 15l57 63v-505q0 -18 9 -24t26 -6t26 7.5t9 21.5v589q0 13 -9 18.5t-26 5.5q-10 0 -17.5 -3.5t-10.5 -5.5zM194 611q-12 -14 -13.5 -25.5t11.5 -18.5q18 -11 32 -6t24 15l58 66v-505q0 -18 7.5 -24t24.5 -6
t24.5 6.5t7.5 20.5v589q0 13 -7.5 19.5t-24.5 6.5q-10 0 -17.5 -3.5t-10.5 -5.5zM890 429q0 -188 -122.5 -313t-305.5 -125q-179 0 -305 125t-126 313q0 180 124 308t307 128t305.5 -128t122.5 -308zM848 430q0 165 -110.5 279t-275.5 114q-167 0 -278 -114t-111 -279
t111 -280.5t278 -115.5q165 0 275.5 115.5t110.5 280.5z" />
    <glyph glyph-name="uni246B" unicode="&#x246b;" horiz-adv-x="910" 
d="M670 116q24 0 35.5 16.5t11.5 27.5q0 8 -6.5 12t-29.5 4h-202l157 216q44 60 67 109t23 101q0 76 -48.5 114.5t-126.5 38.5q-44 0 -87.5 -23t-67.5 -64q-6 -12 10.5 -24.5t24.5 -6.5q13 20 43.5 39t78.5 19q45 0 74 -23t29 -61q0 -52 -20 -92.5t-40 -70.5l-184 -270
q-15 -21 -6.5 -41.5t33.5 -20.5h231zM178 614q-12 -14 -13.5 -25.5t11.5 -18.5q18 -11 32 -6t24 15l57 63v-505q0 -18 9 -24t26 -6t26 6.5t9 20.5v589q0 13 -9 19.5t-26 6.5q-10 0 -17.5 -3.5t-10.5 -5.5zM890 429q0 -188 -122.5 -313t-305.5 -125q-179 0 -305 125t-126 313
q0 180 124 308t307 128t305.5 -128t122.5 -308zM848 430q0 165 -110.5 279t-275.5 114q-167 0 -278 -114t-111 -279t111 -280.5t278 -115.5q165 0 275.5 115.5t110.5 280.5z" />
    <glyph glyph-name="uni246C" unicode="&#x246c;" horiz-adv-x="910" 
d="M619 447q40 -9 82.5 -50t42.5 -108q0 -89 -59.5 -136t-158.5 -47q-50 0 -87 17t-60 45q-1 4 0.5 11t9.5 16q5 6 15 8t23 -3q24 -15 46 -26t68 -11q50 0 91.5 29.5t41.5 89.5q0 63 -42 97t-124 34q-25 0 -38.5 10t-13.5 23q0 7 3.5 13.5t30.5 6.5q30 0 62 7.5t58 25.5
q25 16 36 41t11 59q0 45 -27.5 67t-74.5 22q-56 0 -88 -21t-38 -21q-10 0 -16.5 8t-4.5 14q5 24 50.5 52t95.5 28q82 0 127.5 -40t45.5 -112q0 -42 -29 -84.5t-79 -64.5zM178 614l118 126q3 2 10.5 5.5t17.5 3.5q17 0 26 -6.5t9 -19.5v-589q0 -14 -9 -20.5t-26 -6.5t-26 6
t-9 24v505l-57 -63q-10 -10 -24 -15t-32 6q-13 7 -11.5 18.5t13.5 25.5zM889 429q0 -188 -122.5 -313t-305.5 -125q-179 0 -305 125t-126 313q0 180 124 308t307 128t305.5 -128t122.5 -308zM847 430q0 165 -110.5 279t-275.5 114q-167 0 -278 -114t-111 -279t111 -280.5
t278 -115.5q165 0 275.5 115.5t110.5 280.5z" />
    <glyph glyph-name="uni246D" unicode="&#x246d;" horiz-adv-x="910" 
d="M741 341q18 0 27 -4t9 -11q0 -17 -9.5 -31t-36.5 -14h-35v-145q0 -8 -9.5 -15t-25.5 -7q-15 0 -25 7t-10 15v145h-183q-41 0 -49 21.5t5 42.5l176 352q20 32 37 42t44 10q21 0 30.5 -7.5t9.5 -23.5v-377h45zM468 341h158v329zM178 614l118 126q3 2 10.5 5.5t17.5 3.5
q17 0 26 -6.5t9 -19.5v-589q0 -14 -9 -20.5t-26 -6.5t-26 6t-9 24v505l-57 -63q-10 -10 -24 -15t-32 6q-13 7 -11.5 18.5t13.5 25.5zM890 429q0 -188 -122.5 -313t-305.5 -125q-179 0 -305 125t-126 313q0 180 124 308t307 128t305.5 -128t122.5 -308zM848 430
q0 165 -110.5 279t-275.5 114q-167 0 -278 -114t-111 -279t111 -280.5t278 -115.5q165 0 275.5 115.5t110.5 280.5z" />
    <glyph glyph-name="uni246E" unicode="&#x246e;" horiz-adv-x="910" 
d="M156 614l118 126q3 2 10.5 5.5t17.5 3.5q17 0 26 -6.5t9 -19.5v-589q0 -14 -9 -20.5t-26 -6.5t-26 6t-9 24v505l-57 -63q-10 -10 -24 -15t-32 6q-13 7 -11.5 18.5t13.5 25.5zM635 685h-146l-15 -188h53q105 0 158 -53.5t54 -138.5q0 -94 -56.5 -151t-147.5 -57
q-74 0 -115.5 26t-43.5 39q-4 16 11.5 34.5t39.5 2.5q16 -14 46 -27.5t61 -13.5q61 0 98 38.5t37 99.5t-33.5 101t-112.5 40h-85q-21 0 -29.5 8t-6.5 25l25 240q4 20 16.5 27t27.5 7h181q21 0 28.5 -2t7.5 -14q0 -18 -13 -30.5t-40 -12.5zM890 429q0 -188 -122.5 -313
t-305.5 -125q-179 0 -305 125t-126 313q0 180 124 308t307 128t305.5 -128t122.5 -308zM848 430q0 165 -110.5 279t-275.5 114q-167 0 -278 -114t-111 -279t111 -280.5t278 -115.5q165 0 275.5 115.5t110.5 280.5z" />
    <glyph glyph-name="uni2474" unicode="&#x2474;" horiz-adv-x="910" 
d="M278 586q-16 -15 -15.5 -26t13.5 -18q18 -11 32.5 -7.5t24.5 13.5l106 100v-514q0 -8 9 -14t26 -6q15 0 25 6.5t10 13.5v589q0 13 -9 19.5t-26 6.5q-10 0 -17.5 -3.5t-10.5 -5.5zM733 89q56 92 79.5 175.5t23.5 174.5q0 83 -24 167.5t-80 180.5q-9 10 -7.5 20.5
t13.5 19.5q15 4 29.5 2t18.5 -16q59 -95 84 -190t25 -187q0 -96 -27 -196t-81 -176q-4 -15 -19 -20.5t-30 3.5q-12 3 -13 15.5t8 26.5zM178 90q9 -14 8 -26.5t-13 -15.5q-15 -9 -30 -3.5t-19 20.5q-54 76 -81 176t-27 196q0 92 25 187t84 190q4 14 18.5 16t29.5 -2
q12 -9 13.5 -19.5t-7.5 -20.5q-56 -96 -80 -180.5t-24 -167.5q0 -91 23.5 -174.5t79.5 -175.5z" />
    <glyph glyph-name="uni2475" unicode="&#x2475;" horiz-adv-x="910" 
d="M607 134q27 0 40 17t13 28q0 8 -7.5 11.5t-32.5 3.5h-252l177 216q50 61 72.5 108.5t22.5 101.5q0 65 -49 109t-141 44q-55 0 -100.5 -23t-72.5 -64q-6 -12 14 -25.5t29 -7.5q15 20 51 40t81 20q51 0 84 -23t33 -66q0 -52 -20 -91.5t-43 -68.5l-211 -268
q-17 -21 -7.5 -41.5t37.5 -20.5h282zM733 89q56 92 79.5 175.5t23.5 174.5q0 83 -24 167.5t-80 180.5q-9 10 -7.5 20.5t13.5 19.5q15 4 29.5 2t18.5 -16q59 -95 84 -190t25 -187q0 -96 -27 -196t-81 -176q-4 -15 -19 -20.5t-30 3.5q-12 3 -13 15.5t8 26.5zM178 90
q9 -14 8 -26.5t-13 -15.5q-15 -9 -30 -3.5t-19 20.5q-54 76 -81 176t-27 196q0 92 25 187t84 190q4 14 18.5 16t29.5 -2q12 -9 13.5 -19.5t-7.5 -20.5q-56 -96 -80 -180.5t-24 -167.5q0 -91 23.5 -174.5t79.5 -175.5z" />
    <glyph glyph-name="uni2476" unicode="&#x2476;" horiz-adv-x="910" 
d="M733 89q56 92 79.5 175.5t23.5 174.5q0 83 -24 167.5t-80 180.5q-9 10 -7.5 20.5t13.5 19.5q15 4 29.5 2t18.5 -16q59 -95 84 -190t25 -187q0 -96 -27 -196t-81 -176q-4 -15 -19 -20.5t-30 3.5q-12 3 -13 15.5t8 26.5zM178 90q9 -14 8 -26.5t-13 -15.5q-15 -9 -30 -3.5
t-19 20.5q-54 76 -81 176t-27 196q0 92 25 187t84 190q4 14 18.5 16t29.5 -2q12 -9 13.5 -19.5t-7.5 -20.5q-56 -96 -80 -180.5t-24 -167.5q0 -91 23.5 -174.5t79.5 -175.5zM532 449q61 -7 99.5 -47t38.5 -111q0 -77 -64.5 -131.5t-182.5 -54.5q-56 0 -107.5 27.5
t-57.5 43.5q-2 6 1.5 12.5t11.5 14.5q6 6 15 8.5t22 -6.5q14 -10 47.5 -25t84.5 -15q67 0 113.5 33t46.5 96q0 55 -46 87.5t-129 33.5q-29 0 -41.5 9.5t-12.5 23.5q0 12 6 17t27 6q72 2 126 40.5t54 98.5q0 47 -31.5 71.5t-95.5 24.5q-60 0 -100.5 -23.5t-47.5 -23.5
q-12 0 -19.5 8.5t-5.5 15.5q6 24 58 53.5t125 29.5q87 0 137 -47.5t50 -111.5q0 -57 -37.5 -99.5t-84.5 -58.5z" />
    <glyph glyph-name="uni2477" unicode="&#x2477;" horiz-adv-x="910" 
d="M666 341q18 0 27 -4t9 -11q0 -17 -14.5 -31t-41.5 -14h-74v-145q0 -8 -10 -15t-26 -7q-15 0 -24.5 7t-9.5 15v145h-265q-41 0 -49 21.5t5 42.5l253 352q20 26 39.5 39t46.5 13q21 0 30.5 -7.5t9.5 -23.5v-377h94zM271 341h231v336zM733 89q56 92 79.5 175.5t23.5 174.5
q0 83 -24 167.5t-80 180.5q-9 10 -7.5 20.5t13.5 19.5q15 4 29.5 2t18.5 -16q59 -95 84 -190t25 -187q0 -96 -27 -196t-81 -176q-4 -15 -19 -20.5t-30 3.5q-12 3 -13 15.5t8 26.5zM178 90q9 -14 8 -26.5t-13 -15.5q-15 -9 -30 -3.5t-19 20.5q-54 76 -81 176t-27 196
q0 92 25 187t84 190q4 14 18.5 16t29.5 -2q12 -9 13.5 -19.5t-7.5 -20.5q-56 -96 -80 -180.5t-24 -167.5q0 -91 23.5 -174.5t79.5 -175.5z" />
    <glyph glyph-name="uni2478" unicode="&#x2478;" horiz-adv-x="910" 
d="M582 691q30 0 46.5 13t16.5 31q0 12 -8.5 14t-31.5 2h-216q-17 0 -31 -7t-18 -27l-45 -231q-3 -17 6.5 -25.5t32.5 -8.5h92q94 0 136.5 -42t42.5 -103t-45 -102.5t-113 -41.5q-35 0 -74 14.5t-57 28.5q-27 16 -44 -2.5t-13 -34.5q3 -13 55 -40t134 -27q102 0 164.5 60
t62.5 154q0 85 -57.5 140.5t-180.5 55.5h-65l33 179h177zM733 89q56 92 79.5 175.5t23.5 174.5q0 83 -24 167.5t-80 180.5q-9 10 -7.5 20.5t13.5 19.5q15 4 29.5 2t18.5 -16q59 -95 84 -190t25 -187q0 -96 -27 -196t-81 -176q-4 -15 -19 -20.5t-30 3.5q-12 3 -13 15.5
t8 26.5zM178 90q9 -14 8 -26.5t-13 -15.5q-15 -9 -30 -3.5t-19 20.5q-54 76 -81 176t-27 196q0 92 25 187t84 190q4 14 18.5 16t29.5 -2q12 -9 13.5 -19.5t-7.5 -20.5q-56 -96 -80 -180.5t-24 -167.5q0 -91 23.5 -174.5t79.5 -175.5z" />
    <glyph glyph-name="uni2479" unicode="&#x2479;" horiz-adv-x="910" 
d="M391 528q46 15 90.5 14.5t80.5 -18.5q51 -23 88.5 -73t36.5 -121q-1 -89 -62.5 -153.5t-164.5 -64.5t-165 60.5t-62 159.5q0 50 17 94.5t38 73.5l162 245q14 21 30.5 26t30.5 5t18.5 -10t-7.5 -31zM460 172q71 0 114 44t43 115q0 68 -43 113t-114 45q-72 0 -114.5 -45
t-42.5 -113q0 -71 42.5 -115t114.5 -44zM733 89q56 92 79.5 175.5t23.5 174.5q0 83 -24 167.5t-80 180.5q-9 10 -7.5 20.5t13.5 19.5q15 4 29.5 2t18.5 -16q59 -95 84 -190t25 -187q0 -96 -27 -196t-81 -176q-4 -15 -19 -20.5t-30 3.5q-12 3 -13 15.5t8 26.5zM178 90
q9 -14 8 -26.5t-13 -15.5q-15 -9 -30 -3.5t-19 20.5q-54 76 -81 176t-27 196q0 92 25 187t84 190q4 14 18.5 16t29.5 -2q12 -9 13.5 -19.5t-7.5 -20.5q-56 -96 -80 -180.5t-24 -167.5q0 -91 23.5 -174.5t79.5 -175.5z" />
    <glyph glyph-name="uni247A" unicode="&#x247a;" horiz-adv-x="910" 
d="M569 654h-264q-24 0 -36 3.5t-12 17.5q0 15 15 27t47 12h294q21 0 32 -13t3 -36l-201 -526q-13 -33 -33 -42.5t-41 -9.5q-9 0 -14 8t1 24zM733 89q56 92 79.5 175.5t23.5 174.5q0 83 -24 167.5t-80 180.5q-9 10 -7.5 20.5t13.5 19.5q15 4 29.5 2t18.5 -16q59 -95 84 -190
t25 -187q0 -96 -27 -196t-81 -176q-4 -15 -19 -20.5t-30 3.5q-12 3 -13 15.5t8 26.5zM178 90q9 -14 8 -26.5t-13 -15.5q-15 -9 -30 -3.5t-19 20.5q-54 76 -81 176t-27 196q0 92 25 187t84 190q4 14 18.5 16t29.5 -2q12 -9 13.5 -19.5t-7.5 -20.5q-56 -96 -80 -180.5
t-24 -167.5q0 -91 23.5 -174.5t79.5 -175.5z" />
    <glyph glyph-name="uni247B" unicode="&#x247b;" horiz-adv-x="910" 
d="M467 478q93 0 150.5 -54.5t57.5 -131.5q0 -81 -58 -133t-150 -52q-89 0 -148.5 50.5t-59.5 134.5q0 79 58 132.5t150 53.5zM467 168q56 0 96.5 34t40.5 90q0 48 -42.5 84t-94.5 36t-94.5 -34.5t-42.5 -85.5q0 -53 38.5 -88.5t98.5 -35.5zM467 760q86 0 139 -50t53 -122
q0 -69 -51 -120t-141 -51q-83 0 -137.5 46.5t-54.5 124.5q0 74 54.5 123t137.5 49zM467 484q53 0 87 28.5t34 75.5t-34 79t-87 32q-54 0 -87.5 -32t-33.5 -79t34 -75.5t87 -28.5zM733 89q56 92 79.5 175.5t23.5 174.5q0 83 -24 167.5t-80 180.5q-9 10 -7.5 20.5t13.5 19.5
q15 4 29.5 2t18.5 -16q59 -95 84 -190t25 -187q0 -96 -27 -196t-81 -176q-4 -15 -19 -20.5t-30 3.5q-12 3 -13 15.5t8 26.5zM178 90q9 -14 8 -26.5t-13 -15.5q-15 -9 -30 -3.5t-19 20.5q-54 76 -81 176t-27 196q0 92 25 187t84 190q4 14 18.5 16t29.5 -2q12 -9 13.5 -19.5
t-7.5 -20.5q-56 -96 -80 -180.5t-24 -167.5q0 -91 23.5 -174.5t79.5 -175.5z" />
    <glyph glyph-name="uni247C" unicode="&#x247c;" horiz-adv-x="910" 
d="M733 89q56 92 79.5 175.5t23.5 174.5q0 83 -24 167.5t-80 180.5q-9 10 -7.5 20.5t13.5 19.5q15 4 29.5 2t18.5 -16q59 -95 84 -190t25 -187q0 -96 -27 -196t-81 -176q-4 -15 -19 -20.5t-30 3.5q-12 3 -13 15.5t8 26.5zM178 90q9 -14 8 -26.5t-13 -15.5q-15 -9 -30 -3.5
t-19 20.5q-54 76 -81 176t-27 196q0 92 25 187t84 190q4 14 18.5 16t29.5 -2q12 -9 13.5 -19.5t-7.5 -20.5q-56 -96 -80 -180.5t-24 -167.5q0 -91 23.5 -174.5t79.5 -175.5zM656 407l-175 -274q-18 -30 -33 -37.5t-42 -7.5q-15 0 -19.5 8t5.5 22l132 206q-27 -9 -71 -8
t-82 17q-56 25 -92.5 79.5t-36.5 123.5q0 97 62.5 158.5t162.5 61.5q101 0 164 -60.5t63 -160.5q0 -29 -11 -66t-27 -62zM468 696q-72 0 -114 -45t-42 -115t42 -115t114 -45q71 0 113.5 45t42.5 115t-42.5 115t-113.5 45z" />
    <glyph glyph-name="uni247D" unicode="&#x247d;" horiz-adv-x="910" 
d="M575 755q78 0 128.5 -77.5t50.5 -253.5t-49.5 -248t-129.5 -72q-82 0 -128 72t-46 248t46.5 253.5t127.5 77.5zM575 164q54 0 80.5 55.5t27.5 205.5q1 155 -25 212.5t-83 57.5t-80 -57t-23 -212q0 -156 25.5 -209t77.5 -53zM158 614q-12 -14 -13.5 -25.5t11.5 -18.5
q18 -11 32 -6t24 15l57 63v-505q0 -18 9 -24t26 -6t26 6.5t9 20.5v589q0 13 -9 19.5t-26 6.5q-10 0 -17.5 -3.5t-10.5 -5.5zM733 89q56 92 79.5 175.5t23.5 174.5q0 83 -24 167.5t-80 180.5q-9 10 -7.5 20.5t13.5 19.5q15 4 29.5 2t18.5 -16q59 -95 84 -190t25 -187
q0 -96 -27 -196t-81 -176q-4 -15 -19 -20.5t-30 3.5q-12 3 -13 15.5t8 26.5zM178 90q9 -14 8 -26.5t-13 -15.5q-15 -9 -30 -3.5t-19 20.5q-54 76 -81 176t-27 196q0 92 25 187t84 190q4 14 18.5 16t29.5 -2q12 -9 13.5 -19.5t-7.5 -20.5q-56 -96 -80 -180.5t-24 -167.5
q0 -91 23.5 -174.5t79.5 -175.5z" />
    <glyph glyph-name="uni247E" unicode="&#x247e;" horiz-adv-x="910" 
d="M474 614q-12 -14 -13.5 -25.5t11.5 -18.5q18 -11 32 -6t24 15l57 63v-505q0 -18 9 -24t26 -6t26 7.5t9 21.5v589q0 13 -9 18.5t-26 5.5q-10 0 -17.5 -3.5t-10.5 -5.5zM178 614q-12 -14 -13.5 -25.5t11.5 -18.5q18 -11 32 -6t24 15l57 63v-505q0 -18 9 -24t26 -6t26 6.5
t9 20.5v589q0 13 -9 19.5t-26 6.5q-10 0 -17.5 -3.5t-10.5 -5.5zM733 89q56 92 79.5 175.5t23.5 174.5q0 83 -24 167.5t-80 180.5q-9 10 -7.5 20.5t13.5 19.5q15 4 29.5 2t18.5 -16q59 -95 84 -190t25 -187q0 -96 -27 -196t-81 -176q-4 -15 -19 -20.5t-30 3.5
q-12 3 -13 15.5t8 26.5zM178 90q9 -14 8 -26.5t-13 -15.5q-15 -9 -30 -3.5t-19 20.5q-54 76 -81 176t-27 196q0 92 25 187t84 190q4 14 18.5 16t29.5 -2q12 -9 13.5 -19.5t-7.5 -20.5q-56 -96 -80 -180.5t-24 -167.5q0 -91 23.5 -174.5t79.5 -175.5z" />
    <glyph glyph-name="uni247F" unicode="&#x247f;" horiz-adv-x="910" 
d="M672 121q24 0 35.5 16.5t11.5 27.5q0 8 -6.5 12t-29.5 4h-202l157 216q44 60 67 109t23 101q0 76 -48.5 114.5t-126.5 38.5q-44 0 -87.5 -23t-67.5 -64q-6 -12 10.5 -24.5t24.5 -6.5q13 20 43.5 39t78.5 19q45 0 74 -23t29 -61q0 -52 -20 -92.5t-40 -70.5l-184 -270
q-15 -21 -6.5 -41.5t33.5 -20.5h231zM178 614q-12 -14 -13.5 -25.5t11.5 -18.5q18 -11 32 -6t24 15l57 63v-505q0 -18 9 -24t26 -6t26 6.5t9 20.5v589q0 13 -9 19.5t-26 6.5q-10 0 -17.5 -3.5t-10.5 -5.5zM733 89q56 92 79.5 175.5t23.5 174.5q0 83 -24 167.5t-80 180.5
q-9 10 -7.5 20.5t13.5 19.5q15 4 29.5 2t18.5 -16q59 -95 84 -190t25 -187q0 -96 -27 -196t-81 -176q-4 -15 -19 -20.5t-30 3.5q-12 3 -13 15.5t8 26.5zM178 90q9 -14 8 -26.5t-13 -15.5q-15 -9 -30 -3.5t-19 20.5q-54 76 -81 176t-27 196q0 92 25 187t84 190q4 14 18.5 16
t29.5 -2q12 -9 13.5 -19.5t-7.5 -20.5q-56 -96 -80 -180.5t-24 -167.5q0 -91 23.5 -174.5t79.5 -175.5z" />
    <glyph glyph-name="uni2480" unicode="&#x2480;" horiz-adv-x="910" 
d="M619 447q40 -9 82.5 -50t42.5 -108q0 -89 -59.5 -136t-158.5 -47q-50 0 -87 17t-60 45q-1 4 0.5 11t9.5 16q5 6 15 8t23 -3q24 -15 46 -26t68 -11q50 0 91.5 29.5t41.5 89.5q0 63 -42 97t-124 34q-25 0 -38.5 10t-13.5 23q0 7 3.5 13.5t30.5 6.5q30 0 62 7.5t58 25.5
q25 16 36 41t11 59q0 45 -27.5 67t-74.5 22q-56 0 -88 -21t-38 -21q-10 0 -16.5 8t-4.5 14q5 24 50.5 52t95.5 28q82 0 127.5 -40t45.5 -112q0 -42 -29 -84.5t-79 -64.5zM178 614q-12 -14 -13.5 -25.5t11.5 -18.5q18 -11 32 -6t24 15l57 63v-505q0 -18 9 -24t26 -6t26 6.5
t9 20.5v589q0 13 -9 19.5t-26 6.5q-10 0 -17.5 -3.5t-10.5 -5.5zM733 89q56 92 79.5 175.5t23.5 174.5q0 83 -24 167.5t-80 180.5q-9 10 -7.5 20.5t13.5 19.5q15 4 29.5 2t18.5 -16q59 -95 84 -190t25 -187q0 -96 -27 -196t-81 -176q-4 -15 -19 -20.5t-30 3.5
q-12 3 -13 15.5t8 26.5zM178 90q9 -14 8 -26.5t-13 -15.5q-15 -9 -30 -3.5t-19 20.5q-54 76 -81 176t-27 196q0 92 25 187t84 190q4 14 18.5 16t29.5 -2q12 -9 13.5 -19.5t-7.5 -20.5q-56 -96 -80 -180.5t-24 -167.5q0 -91 23.5 -174.5t79.5 -175.5z" />
    <glyph glyph-name="uni2481" unicode="&#x2481;" horiz-adv-x="910" 
d="M741 341q18 0 27 -4t9 -11q0 -17 -14.5 -31t-41.5 -14h-35v-145q0 -8 -9.5 -15t-25.5 -7q-15 0 -25 7t-10 15v145h-173q-41 0 -49 21.5t5 42.5l166 352q20 32 37 42t44 10q21 0 30.5 -7.5t9.5 -23.5v-377h55zM468 341h148v329zM178 614q-12 -14 -13.5 -25.5t11.5 -18.5
q18 -11 32 -6t24 15l57 63v-505q0 -18 9 -24t26 -6t26 6.5t9 20.5v589q0 13 -9 19.5t-26 6.5q-10 0 -17.5 -3.5t-10.5 -5.5zM733 89q56 92 79.5 175.5t23.5 174.5q0 83 -24 167.5t-80 180.5q-9 10 -7.5 20.5t13.5 19.5q15 4 29.5 2t18.5 -16q59 -95 84 -190t25 -187
q0 -96 -27 -196t-81 -176q-4 -15 -19 -20.5t-30 3.5q-12 3 -13 15.5t8 26.5zM178 90q9 -14 8 -26.5t-13 -15.5q-15 -9 -30 -3.5t-19 20.5q-54 76 -81 176t-27 196q0 92 25 187t84 190q4 14 18.5 16t29.5 -2q12 -9 13.5 -19.5t-7.5 -20.5q-56 -96 -80 -180.5t-24 -167.5
q0 -91 23.5 -174.5t79.5 -175.5z" />
    <glyph glyph-name="uni2482" unicode="&#x2482;" horiz-adv-x="910" 
d="M178 614q-12 -14 -13.5 -25.5t11.5 -18.5q18 -11 32 -6t24 15l57 63v-505q0 -18 9 -24t26 -6t26 6.5t9 20.5v589q0 13 -9 19.5t-26 6.5q-10 0 -17.5 -3.5t-10.5 -5.5zM678 687q27 0 40 12.5t13 30.5q0 12 -7.5 14t-28.5 2h-198q-15 0 -27.5 -7t-16.5 -27l-36 -232
q-2 -17 6.5 -25t29.5 -8h83q79 0 113.5 -42t34.5 -103t-37 -102.5t-98 -41.5q-31 0 -64.5 13.5t-49.5 27.5q-24 16 -39.5 -2.5t-11.5 -34.5q2 -13 47 -39t119 -26q91 0 147.5 60t56.5 154q-1 85 -55 140.5t-159 55.5h-51l26 180h163zM733 89q56 92 79.5 175.5t23.5 174.5
q0 83 -24 167.5t-80 180.5q-9 10 -7.5 20.5t13.5 19.5q15 4 29.5 2t18.5 -16q59 -95 84 -190t25 -187q0 -96 -27 -196t-81 -176q-4 -15 -19 -20.5t-30 3.5q-12 3 -13 15.5t8 26.5zM178 90q9 -14 8 -26.5t-13 -15.5q-15 -9 -30 -3.5t-19 20.5q-54 76 -81 176t-27 196
q0 92 25 187t84 190q4 14 18.5 16t29.5 -2q12 -9 13.5 -19.5t-7.5 -20.5q-56 -96 -80 -180.5t-24 -167.5q0 -91 23.5 -174.5t79.5 -175.5z" />
    <glyph glyph-name="uni249C" unicode="&#x249c;" horiz-adv-x="910" 
d="M657 388q0 -26 12 -59t31 -59q6 -7 6 -12v-9q-2 -8 -12.5 -16t-21.5 -8q-12 0 -27 17t-38 70q-21 -31 -69.5 -62.5t-111.5 -31.5q-86 0 -139.5 63t-53.5 160q0 104 68 171t158 67q80 0 139.5 -57t59.5 -167zM588 459q0 73 -30 116.5t-92 43.5q-77 0 -120 -53.5
t-43 -127.5q0 -66 33.5 -113t90.5 -47q67 0 114 47.5t47 133.5zM733 89q56 92 79.5 175.5t23.5 174.5q0 83 -24 167.5t-80 180.5q-9 10 -7.5 20.5t13.5 19.5q15 4 29.5 2t18.5 -16q59 -95 84 -190t25 -187q0 -96 -27 -196t-81 -176q-4 -15 -19 -20.5t-30 3.5q-12 3 -13 15.5
t8 26.5zM178 90q9 -14 8 -26.5t-13 -15.5q-15 -9 -30 -3.5t-19 20.5q-54 76 -81 176t-27 196q0 92 25 187t84 190q4 14 18.5 16t29.5 -2q12 -9 13.5 -19.5t-7.5 -20.5q-56 -96 -80 -180.5t-24 -167.5q0 -91 23.5 -174.5t79.5 -175.5z" />
    <glyph glyph-name="uni249D" unicode="&#x249d;" horiz-adv-x="910" 
d="M501 586q94 0 141.5 -59t47.5 -155q0 -99 -61.5 -173.5t-168.5 -74.5q-76 0 -135 57t-59 172v381q0 8 10 14.5t25 6.5q14 0 24.5 -6.5t10.5 -14.5v-241q20 35 65 64t100 29zM620 380q0 61 -30 103.5t-92 42.5q-73 0 -117.5 -56.5t-44.5 -133.5q0 -62 32 -107t95 -45
q82 0 119.5 56t37.5 140zM733 89q56 92 79.5 175.5t23.5 174.5q0 83 -24 167.5t-80 180.5q-9 10 -7.5 20.5t13.5 19.5q15 4 29.5 2t18.5 -16q59 -95 84 -190t25 -187q0 -96 -27 -196t-81 -176q-4 -15 -19 -20.5t-30 3.5q-12 3 -13 15.5t8 26.5zM178 90q9 -14 8 -26.5
t-13 -15.5q-15 -9 -30 -3.5t-19 20.5q-54 76 -81 176t-27 196q0 92 25 187t84 190q4 14 18.5 16t29.5 -2q12 -9 13.5 -19.5t-7.5 -20.5q-56 -96 -80 -180.5t-24 -167.5q0 -91 23.5 -174.5t79.5 -175.5z" />
    <glyph glyph-name="uni249E" unicode="&#x249e;" horiz-adv-x="910" 
d="M652 327q11 -11 13 -18t2 -16q0 -18 -55 -51.5t-133 -33.5q-108 0 -172 65t-64 165q0 111 66 171t164 60q78 0 129.5 -31t51.5 -48q0 -12 -5 -19.5t-14 -13.5q-3 -3 -9.5 -3t-10.5 4q-30 23 -62.5 37t-81.5 14q-64 0 -111 -44t-47 -127q0 -77 45 -125.5t145 -48.5
q44 0 87 18.5t62 44.5zM733 89q56 92 79.5 175.5t23.5 174.5q0 83 -24 167.5t-80 180.5q-9 10 -7.5 20.5t13.5 19.5q15 4 29.5 2t18.5 -16q59 -95 84 -190t25 -187q0 -96 -27 -196t-81 -176q-4 -15 -19 -20.5t-30 3.5q-12 3 -13 15.5t8 26.5zM178 90q9 -14 8 -26.5
t-13 -15.5q-15 -9 -30 -3.5t-19 20.5q-54 76 -81 176t-27 196q0 92 25 187t84 190q4 14 18.5 16t29.5 -2q12 -9 13.5 -19.5t-7.5 -20.5q-56 -96 -80 -180.5t-24 -167.5q0 -91 23.5 -174.5t79.5 -175.5z" />
    <glyph glyph-name="uni249F" unicode="&#x249f;" horiz-adv-x="910" 
d="M609 764q14 0 24 -6.5t10 -16.5l2 -346q0 -112 -65.5 -184t-166.5 -72q-85 0 -140 62.5t-55 160.5q0 100 66 169.5t160 69.5q45 0 82 -19.5t49 -34.5v196q0 8 9.5 14.5t24.5 6.5zM575 385q0 71 -32.5 113.5t-91.5 42.5q-80 0 -121.5 -60.5t-41.5 -133.5q0 -55 35 -101.5
t93 -46.5q86 0 122.5 59t36.5 127zM733 89q56 92 79.5 175.5t23.5 174.5q0 83 -24 167.5t-80 180.5q-9 10 -7.5 20.5t13.5 19.5q15 4 29.5 2t18.5 -16q59 -95 84 -190t25 -187q0 -96 -27 -196t-81 -176q-4 -15 -19 -20.5t-30 3.5q-12 3 -13 15.5t8 26.5zM178 90
q9 -14 8 -26.5t-13 -15.5q-15 -9 -30 -3.5t-19 20.5q-54 76 -81 176t-27 196q0 92 25 187t84 190q4 14 18.5 16t29.5 -2q12 -9 13.5 -19.5t-7.5 -20.5q-56 -96 -80 -180.5t-24 -167.5q0 -91 23.5 -174.5t79.5 -175.5z" />
    <glyph glyph-name="uni24A0" unicode="&#x24a0;" horiz-adv-x="910" 
d="M653 291q8 -4 12 -12t4 -17q-10 -29 -58 -50t-128 -21q-112 0 -177 67.5t-65 162.5q0 102 71 167t171 65q80 0 137 -40t57 -99q0 -68 -53 -104.5t-139 -36.5q-44 0 -91 14t-79 45q-1 -88 49 -138t143 -50q42 0 85.5 13.5t60.5 33.5zM483 593q-42 0 -84.5 -21t-71.5 -83
q31 -30 72 -45t86 -15q49 0 85 21t36 61q0 44 -38 63t-85 19zM733 89q56 92 79.5 175.5t23.5 174.5q0 83 -24 167.5t-80 180.5q-9 10 -7.5 20.5t13.5 19.5q15 4 29.5 2t18.5 -16q59 -95 84 -190t25 -187q0 -96 -27 -196t-81 -176q-4 -15 -19 -20.5t-30 3.5q-12 3 -13 15.5
t8 26.5zM178 90q9 -14 8 -26.5t-13 -15.5q-15 -9 -30 -3.5t-19 20.5q-54 76 -81 176t-27 196q0 92 25 187t84 190q4 14 18.5 16t29.5 -2q12 -9 13.5 -19.5t-7.5 -20.5q-56 -96 -80 -180.5t-24 -167.5q0 -91 23.5 -174.5t79.5 -175.5z" />
    <glyph glyph-name="uni24A1" unicode="&#x24a1;" horiz-adv-x="910" 
d="M537 697q-42 0 -65.5 -19.5t-23.5 -55.5v-126h74q25 0 31 -5t6 -11q0 -20 -18.5 -32t-41.5 -12h-51v-319q0 -7 -10 -13.5t-25 -6.5t-25 6.5t-10 13.5v319h-63q-15 0 -22 3.5t-7 12.5q0 15 15.5 29.5t40.5 14.5h36v107q0 40 9 66.5t28 47.5q16 18 43 30t52 12h23
q40 0 52 -9t12 -24q0 -28 -18.5 -28.5t-41.5 -0.5zM733 89q56 92 79.5 175.5t23.5 174.5q0 83 -24 167.5t-80 180.5q-9 10 -7.5 20.5t13.5 19.5q15 4 29.5 2t18.5 -16q59 -95 84 -190t25 -187q0 -96 -27 -196t-81 -176q-4 -15 -19 -20.5t-30 3.5q-12 3 -13 15.5t8 26.5z
M178 90q9 -14 8 -26.5t-13 -15.5q-15 -9 -30 -3.5t-19 20.5q-54 76 -81 176t-27 196q0 92 25 187t84 190q4 14 18.5 16t29.5 -2q12 -9 13.5 -19.5t-7.5 -20.5q-56 -96 -80 -180.5t-24 -167.5q0 -91 23.5 -174.5t79.5 -175.5z" />
    <glyph glyph-name="uni24A2" unicode="&#x24a2;" horiz-adv-x="910" 
d="M665 536v-208q0 -57 -16 -106t-44 -79q-27 -29 -65 -42.5t-88 -13.5q-80 0 -106 19t-26 34q0 11 11 20.5t36 3.5q25 -4 44 -9.5t46 -5.5q66 0 102.5 50.5t36.5 181.5l3 2q-17 -22 -61.5 -49t-104.5 -27q-80 0 -137.5 54t-57.5 156q0 97 66.5 162t161.5 65q97 0 148 -58
t51 -150zM434 367q66 0 113.5 46t47.5 130q0 63 -32.5 102t-92.5 39q-78 0 -120 -44t-42 -114q0 -84 32.5 -121.5t93.5 -37.5zM733 89q56 92 79.5 175.5t23.5 174.5q0 83 -24 167.5t-80 180.5q-9 10 -7.5 20.5t13.5 19.5q15 4 29.5 2t18.5 -16q59 -95 84 -190t25 -187
q0 -96 -27 -196t-81 -176q-4 -15 -19 -20.5t-30 3.5q-12 3 -13 15.5t8 26.5zM178 90q9 -14 8 -26.5t-13 -15.5q-15 -9 -30 -3.5t-19 20.5q-54 76 -81 176t-27 196q0 92 25 187t84 190q4 14 18.5 16t29.5 -2q12 -9 13.5 -19.5t-7.5 -20.5q-56 -96 -80 -180.5t-24 -167.5
q0 -91 23.5 -174.5t79.5 -175.5z" />
    <glyph glyph-name="uni24A3" unicode="&#x24a3;" horiz-adv-x="910" 
d="M283 143v595q0 8 10 14.5t25 6.5t25 -6.5t10 -14.5v-264q26 37 62.5 67t103.5 30q70 0 113.5 -44.5t43.5 -143.5v-239q0 -8 -10 -14.5t-25 -6.5t-25 6.5t-10 13.5v258q0 48 -23.5 79t-86.5 31q-56 0 -99.5 -51.5t-43.5 -138.5v-178q0 -7 -10 -13.5t-25 -6.5t-25 6.5
t-10 13.5zM733 89q56 92 79.5 175.5t23.5 174.5q0 83 -24 167.5t-80 180.5q-9 10 -7.5 20.5t13.5 19.5q15 4 29.5 2t18.5 -16q59 -95 84 -190t25 -187q0 -96 -27 -196t-81 -176q-4 -15 -19 -20.5t-30 3.5q-12 3 -13 15.5t8 26.5zM178 90q9 -14 8 -26.5t-13 -15.5
q-15 -9 -30 -3.5t-19 20.5q-54 76 -81 176t-27 196q0 92 25 187t84 190q4 14 18.5 16t29.5 -2q12 -9 13.5 -19.5t-7.5 -20.5q-56 -96 -80 -180.5t-24 -167.5q0 -91 23.5 -174.5t79.5 -175.5z" />
    <glyph glyph-name="uni24A4" unicode="&#x24a4;" horiz-adv-x="910" 
d="M461 544q13 0 23.5 -6.5t10.5 -13.5v-416q0 -7 -10.5 -13.5t-23.5 -6.5q-15 0 -25.5 6.5t-10.5 13.5v416q0 7 10.5 13.5t25.5 6.5zM458 642q-22 0 -38.5 16.5t-16.5 38.5q0 23 16.5 39.5t38.5 16.5t38.5 -16.5t16.5 -39.5q0 -22 -16.5 -38.5t-38.5 -16.5zM733 89
q56 92 79.5 175.5t23.5 174.5q0 83 -24 167.5t-80 180.5q-9 10 -7.5 20.5t13.5 19.5q15 4 29.5 2t18.5 -16q59 -95 84 -190t25 -187q0 -96 -27 -196t-81 -176q-4 -15 -19 -20.5t-30 3.5q-12 3 -13 15.5t8 26.5zM178 90q9 -14 8 -26.5t-13 -15.5q-15 -9 -30 -3.5t-19 20.5
q-54 76 -81 176t-27 196q0 92 25 187t84 190q4 14 18.5 16t29.5 -2q12 -9 13.5 -19.5t-7.5 -20.5q-56 -96 -80 -180.5t-24 -167.5q0 -91 23.5 -174.5t79.5 -175.5z" />
    <glyph glyph-name="uni24A5" unicode="&#x24a5;" horiz-adv-x="910" 
d="M467 670q-23 0 -39.5 16.5t-16.5 38.5q0 23 16.5 39.5t39.5 16.5q22 0 38.5 -16.5t16.5 -39.5q0 -22 -16.5 -38.5t-38.5 -16.5zM436 265v300q0 7 9.5 13.5t24.5 6.5q13 0 23.5 -6.5t10.5 -13.5v-291q0 -46 -9 -77t-27 -52q-20 -24 -52.5 -39t-68.5 -15h-17
q-28 0 -43.5 5.5t-10.5 25.5q4 17 11.5 23t37.5 6h31q42 0 61 27t19 87zM733 89q56 92 79.5 175.5t23.5 174.5q0 83 -24 167.5t-80 180.5q-9 10 -7.5 20.5t13.5 19.5q15 4 29.5 2t18.5 -16q59 -95 84 -190t25 -187q0 -96 -27 -196t-81 -176q-4 -15 -19 -20.5t-30 3.5
q-12 3 -13 15.5t8 26.5zM178 90q9 -14 8 -26.5t-13 -15.5q-15 -9 -30 -3.5t-19 20.5q-54 76 -81 176t-27 196q0 92 25 187t84 190q4 14 18.5 16t29.5 -2q12 -9 13.5 -19.5t-7.5 -20.5q-56 -96 -80 -180.5t-24 -167.5q0 -91 23.5 -174.5t79.5 -175.5z" />
    <glyph glyph-name="uni24A6" unicode="&#x24a6;" horiz-adv-x="910" 
d="M680 175q11 -16 13 -25t-3 -14q-4 -4 -12 -8t-16 -5q-14 -2 -20.5 3t-15.5 17l-170 218l-90 -78v-145q0 -7 -10.5 -13.5t-24.5 -6.5q-15 0 -25 6.5t-10 13.5v596q0 7 10 13.5t25 6.5q14 0 24.5 -6.5t10.5 -13.5v-372l225 196q10 9 17 13t17 4t17.5 -6t11.5 -12
q5 -6 2.5 -14t-15.5 -19l-135 -123zM733 89q56 92 79.5 175.5t23.5 174.5q0 83 -24 167.5t-80 180.5q-9 10 -7.5 20.5t13.5 19.5q15 4 29.5 2t18.5 -16q59 -95 84 -190t25 -187q0 -96 -27 -196t-81 -176q-4 -15 -19 -20.5t-30 3.5q-12 3 -13 15.5t8 26.5zM178 90
q9 -14 8 -26.5t-13 -15.5q-15 -9 -30 -3.5t-19 20.5q-54 76 -81 176t-27 196q0 92 25 187t84 190q4 14 18.5 16t29.5 -2q12 -9 13.5 -19.5t-7.5 -20.5q-56 -96 -80 -180.5t-24 -167.5q0 -91 23.5 -174.5t79.5 -175.5z" />
    <glyph glyph-name="uni24A7" unicode="&#x24a7;" horiz-adv-x="910" 
d="M456 763q14 0 24.5 -6.5t10.5 -13.5v-626q0 -7 -10.5 -13.5t-24.5 -6.5t-24.5 6.5t-10.5 13.5v626q0 7 10.5 13.5t24.5 6.5zM733 89q56 92 79.5 175.5t23.5 174.5q0 83 -24 167.5t-80 180.5q-9 10 -7.5 20.5t13.5 19.5q15 4 29.5 2t18.5 -16q59 -95 84 -190t25 -187
q0 -96 -27 -196t-81 -176q-4 -15 -19 -20.5t-30 3.5q-12 3 -13 15.5t8 26.5zM178 90q9 -14 8 -26.5t-13 -15.5q-15 -9 -30 -3.5t-19 20.5q-54 76 -81 176t-27 196q0 92 25 187t84 190q4 14 18.5 16t29.5 -2q12 -9 13.5 -19.5t-7.5 -20.5q-56 -96 -80 -180.5t-24 -167.5
q0 -91 23.5 -174.5t79.5 -175.5z" />
    <glyph glyph-name="uni24A8" unicode="&#x24a8;" horiz-adv-x="910" 
d="M574 674q77 0 114 -42t37 -127v-256q0 -7 -10 -13.5t-25 -6.5q-14 0 -24.5 6.5t-10.5 13.5v292q0 33 -17 53t-64 20q-27 0 -52.5 -20t-25.5 -53l1 -1v-291q0 -7 -10 -13.5t-25 -6.5q-14 0 -24.5 6.5t-10.5 13.5v291l1 1q0 33 -18 54t-66 21q-43 0 -63 -25.5t-20 -58.5
v-282q0 -7 -10 -14t-25 -7q-14 0 -24.5 6.5t-10.5 13.5v256q0 87 46.5 129t114.5 42q35 0 63.5 -15.5t49.5 -33.5q20 18 46 32.5t63 14.5zM733 89q56 92 79.5 175.5t23.5 174.5q0 83 -24 167.5t-80 180.5q-9 10 -7.5 20.5t13.5 19.5q15 4 29.5 2t18.5 -16q59 -95 84 -190
t25 -187q0 -96 -27 -196t-81 -176q-4 -15 -19 -20.5t-30 3.5q-12 3 -13 15.5t8 26.5zM178 90q9 -14 8 -26.5t-13 -15.5q-15 -9 -30 -3.5t-19 20.5q-54 76 -81 176t-27 196q0 92 25 187t84 190q4 14 18.5 16t29.5 -2q12 -9 13.5 -19.5t-7.5 -20.5q-56 -96 -80 -180.5
t-24 -167.5q0 -91 23.5 -174.5t79.5 -175.5z" />
    <glyph glyph-name="uni24A9" unicode="&#x24a9;" horiz-adv-x="910" 
d="M505 652q74 0 117 -48t43 -142v-250q0 -7 -10 -13.5t-25 -6.5t-25 6.5t-10 13.5v267q0 48 -25.5 80.5t-78.5 32.5q-58 0 -110.5 -52t-52.5 -139v-189q0 -7 -10 -13.5t-25 -6.5t-25 6.5t-10 13.5v410q0 9 10 15.5t25 6.5t25 -6.5t10 -14.5v-72q23 38 69 69.5t108 31.5z
M733 89q56 92 79.5 175.5t23.5 174.5q0 83 -24 167.5t-80 180.5q-9 10 -7.5 20.5t13.5 19.5q15 4 29.5 2t18.5 -16q59 -95 84 -190t25 -187q0 -96 -27 -196t-81 -176q-4 -15 -19 -20.5t-30 3.5q-12 3 -13 15.5t8 26.5zM178 90q9 -14 8 -26.5t-13 -15.5q-15 -9 -30 -3.5
t-19 20.5q-54 76 -81 176t-27 196q0 92 25 187t84 190q4 14 18.5 16t29.5 -2q12 -9 13.5 -19.5t-7.5 -20.5q-56 -96 -80 -180.5t-24 -167.5q0 -91 23.5 -174.5t79.5 -175.5z" />
    <glyph glyph-name="uni24AA" unicode="&#x24aa;" horiz-adv-x="910" 
d="M460 659q100 0 166.5 -62t66.5 -170q0 -104 -64.5 -167t-168.5 -63q-107 0 -169.5 65t-62.5 165q0 109 66.5 170.5t165.5 61.5zM460 257q73 0 118 45t45 125q0 79 -45 125.5t-118 46.5q-74 0 -118 -46.5t-44 -125.5q0 -80 44 -125t118 -45zM733 89q56 92 79.5 175.5
t23.5 174.5q0 83 -24 167.5t-80 180.5q-9 10 -7.5 20.5t13.5 19.5q15 4 29.5 2t18.5 -16q59 -95 84 -190t25 -187q0 -96 -27 -196t-81 -176q-4 -15 -19 -20.5t-30 3.5q-12 3 -13 15.5t8 26.5zM178 90q9 -14 8 -26.5t-13 -15.5q-15 -9 -30 -3.5t-19 20.5q-54 76 -81 176
t-27 196q0 92 25 187t84 190q4 14 18.5 16t29.5 -2q12 -9 13.5 -19.5t-7.5 -20.5q-56 -96 -80 -180.5t-24 -167.5q0 -91 23.5 -174.5t79.5 -175.5z" />
    <glyph glyph-name="uni24AB" unicode="&#x24ab;" horiz-adv-x="910" 
d="M529 719q91 0 136.5 -62.5t45.5 -162.5q0 -102 -56.5 -166t-145.5 -64h-50q-35 0 -64.5 16.5t-38.5 32.5v-202q0 -7 -10.5 -13.5t-24.5 -6.5q-15 0 -25 6.5t-10 13.5v435q0 54 14.5 88.5t34.5 51.5q23 21 50.5 27t56.5 6h87zM499 324q74 0 108 47t34 123q0 75 -28.5 120
t-87.5 45h-80q-40 0 -64.5 -23t-24.5 -71v-145q0 -48 35.5 -72t67.5 -24h40zM733 89q56 92 79.5 175.5t23.5 174.5q0 83 -24 167.5t-80 180.5q-9 10 -7.5 20.5t13.5 19.5q15 4 29.5 2t18.5 -16q59 -95 84 -190t25 -187q0 -96 -27 -196t-81 -176q-4 -15 -19 -20.5t-30 3.5
q-12 3 -13 15.5t8 26.5zM178 90q9 -14 8 -26.5t-13 -15.5q-15 -9 -30 -3.5t-19 20.5q-54 76 -81 176t-27 196q0 92 25 187t84 190q4 14 18.5 16t29.5 -2q12 -9 13.5 -19.5t-7.5 -20.5q-56 -96 -80 -180.5t-24 -167.5q0 -91 23.5 -174.5t79.5 -175.5z" />
    <glyph glyph-name="uni24AC" unicode="&#x24ac;" horiz-adv-x="910" 
d="M238 489q0 107 58 166t139 59h77q64 0 107 -43t44 -124v-425q0 -7 -10 -13.5t-25 -6.5q-14 0 -24.5 6.5t-10.5 13.5v180q-10 -12 -44 -28t-66 -16h-46q-83 0 -141 61t-58 170zM308 489q0 -90 34.5 -130.5t107.5 -40.5h29q45 0 79.5 29.5t34.5 84.5v120q1 53 -27 77.5
t-73 24.5h-44q-69 0 -105 -37t-36 -128zM733 89q56 92 79.5 175.5t23.5 174.5q0 83 -24 167.5t-80 180.5q-9 10 -7.5 20.5t13.5 19.5q15 4 29.5 2t18.5 -16q59 -95 84 -190t25 -187q0 -96 -27 -196t-81 -176q-4 -15 -19 -20.5t-30 3.5q-12 3 -13 15.5t8 26.5zM178 90
q9 -14 8 -26.5t-13 -15.5q-15 -9 -30 -3.5t-19 20.5q-54 76 -81 176t-27 196q0 92 25 187t84 190q4 14 18.5 16t29.5 -2q12 -9 13.5 -19.5t-7.5 -20.5q-56 -96 -80 -180.5t-24 -167.5q0 -91 23.5 -174.5t79.5 -175.5z" />
    <glyph glyph-name="uni24AD" unicode="&#x24ad;" horiz-adv-x="910" 
d="M536 660q35 0 49.5 -13t13.5 -28q-69 1 -110 -35.5t-41 -142.5v-223q0 -7 -10 -13.5t-25 -6.5t-25 6.5t-10 14.5v234q0 105 51 156t107 51zM733 89q56 92 79.5 175.5t23.5 174.5q0 83 -24 167.5t-80 180.5q-9 10 -7.5 20.5t13.5 19.5q15 4 29.5 2t18.5 -16
q59 -95 84 -190t25 -187q0 -96 -27 -196t-81 -176q-4 -15 -19 -20.5t-30 3.5q-12 3 -13 15.5t8 26.5zM178 90q9 -14 8 -26.5t-13 -15.5q-15 -9 -30 -3.5t-19 20.5q-54 76 -81 176t-27 196q0 92 25 187t84 190q4 14 18.5 16t29.5 -2q12 -9 13.5 -19.5t-7.5 -20.5
q-56 -96 -80 -180.5t-24 -167.5q0 -91 23.5 -174.5t79.5 -175.5z" />
    <glyph glyph-name="uni24AE" unicode="&#x24ae;" horiz-adv-x="910" 
d="M466 459q119 -22 159 -50t40 -78q0 -54 -52 -93.5t-152 -39.5q-42 0 -92.5 13.5t-70.5 27.5q-40 27 -22 57q6 8 24 0q38 -18 81.5 -28t81.5 -10q63 0 97 17t34 51q0 41 -42 55t-126 32q-69 17 -103 46t-34 80q0 53 54 88t138 35q51 0 94 -13.5t61 -27.5q13 -9 16.5 -15.5
t-1.5 -16.5q-8 -14 -22 -17t-30 4q-23 10 -57.5 18t-69.5 8q-49 0 -80.5 -16.5t-31.5 -49.5q0 -38 31 -53t75 -24zM733 89q56 92 79.5 175.5t23.5 174.5q0 83 -24 167.5t-80 180.5q-9 10 -7.5 20.5t13.5 19.5q15 4 29.5 2t18.5 -16q59 -95 84 -190t25 -187q0 -96 -27 -196
t-81 -176q-4 -15 -19 -20.5t-30 3.5q-12 3 -13 15.5t8 26.5zM178 90q9 -14 8 -26.5t-13 -15.5q-15 -9 -30 -3.5t-19 20.5q-54 76 -81 176t-27 196q0 92 25 187t84 190q4 14 18.5 16t29.5 -2q12 -9 13.5 -19.5t-7.5 -20.5q-56 -96 -80 -180.5t-24 -167.5q0 -91 23.5 -174.5
t79.5 -175.5z" />
    <glyph glyph-name="uni24AF" unicode="&#x24af;" horiz-adv-x="910" 
d="M575 597q20 0 26 -4t6 -12q0 -10 -12.5 -26.5t-31.5 -16.5h-107v-178q0 -37 1.5 -64.5t12.5 -51.5q25 -62 83 -62q8 0 15.5 2.5t13.5 5.5q7 -20 -10.5 -33.5t-45.5 -13.5q-39 0 -71.5 26t-50.5 71q-12 31 -15 65.5t-3 57.5v346q0 8 10 14.5t25 6.5t25 -6.5t10 -14.5v-112
h119zM733 89q56 92 79.5 175.5t23.5 174.5q0 83 -24 167.5t-80 180.5q-9 10 -7.5 20.5t13.5 19.5q15 4 29.5 2t18.5 -16q59 -95 84 -190t25 -187q0 -96 -27 -196t-81 -176q-4 -15 -19 -20.5t-30 3.5q-12 3 -13 15.5t8 26.5zM178 90q9 -14 8 -26.5t-13 -15.5q-15 -9 -30 -3.5
t-19 20.5q-54 76 -81 176t-27 196q0 92 25 187t84 190q4 14 18.5 16t29.5 -2q12 -9 13.5 -19.5t-7.5 -20.5q-56 -96 -80 -180.5t-24 -167.5q0 -91 23.5 -174.5t79.5 -175.5z" />
    <glyph glyph-name="uni24B0" unicode="&#x24b0;" horiz-adv-x="910" 
d="M631 661q18 0 26.5 -7.5t8.5 -19.5v-408q0 -7 -10 -13.5t-25 -6.5q-17 0 -26 6t-9 14v72q-21 -31 -76 -62t-106 -31q-69 0 -113.5 42.5t-44.5 144.5v242q0 12 9.5 20t25.5 8q18 0 26.5 -8t8.5 -20v-258q0 -45 26.5 -78t77.5 -33q71 0 118.5 47.5t47.5 94.5v226
q0 13 9 20.5t26 7.5zM733 89q56 92 79.5 175.5t23.5 174.5q0 83 -24 167.5t-80 180.5q-9 10 -7.5 20.5t13.5 19.5q15 4 29.5 2t18.5 -16q59 -95 84 -190t25 -187q0 -96 -27 -196t-81 -176q-4 -15 -19 -20.5t-30 3.5q-12 3 -13 15.5t8 26.5zM178 90q9 -14 8 -26.5t-13 -15.5
q-15 -9 -30 -3.5t-19 20.5q-54 76 -81 176t-27 196q0 92 25 187t84 190q4 14 18.5 16t29.5 -2q12 -9 13.5 -19.5t-7.5 -20.5q-56 -96 -80 -180.5t-24 -167.5q0 -91 23.5 -174.5t79.5 -175.5z" />
    <glyph glyph-name="uni24B1" unicode="&#x24b1;" horiz-adv-x="910" 
d="M733 89q56 92 79.5 175.5t23.5 174.5q0 83 -24 167.5t-80 180.5q-9 10 -7.5 20.5t13.5 19.5q15 4 29.5 2t18.5 -16q59 -95 84 -190t25 -187q0 -96 -27 -196t-81 -176q-4 -15 -19 -20.5t-30 3.5q-12 3 -13 15.5t8 26.5zM178 90q9 -14 8 -26.5t-13 -15.5q-15 -9 -30 -3.5
t-19 20.5q-54 76 -81 176t-27 196q0 92 25 187t84 190q4 14 18.5 16t29.5 -2q12 -9 13.5 -19.5t-7.5 -20.5q-56 -96 -80 -180.5t-24 -167.5q0 -91 23.5 -174.5t79.5 -175.5zM626 646q13 0 20.5 -5.5t3.5 -15.5l-151 -412q-6 -15 -15.5 -21.5t-22.5 -6.5q-15 0 -23.5 6.5
t-15.5 19.5l-150 414q-4 10 3.5 15.5t20.5 5.5q15 0 26.5 -4.5t19.5 -19.5l118 -330l121 330q7 15 18.5 19.5t26.5 4.5z" />
    <glyph glyph-name="uni24B2" unicode="&#x24b2;" horiz-adv-x="910" 
d="M727 636q12 0 18.5 -5.5t5.5 -15.5l-108 -413q-6 -14 -17 -21t-25 -7q-15 0 -25.5 6.5t-16.5 20.5l-99 314l-101 -314q-6 -14 -16.5 -21t-24.5 -7q-15 0 -26 6.5t-17 20.5l-105 414q-2 10 5 15.5t19 5.5q16 0 27.5 -4.5t18.5 -19.5l80 -343l106 341q4 14 12.5 21t22.5 7
q15 0 24 -6.5t13 -20.5l102 -340l82 341q3 15 16 20t29 5zM733 89q56 92 79.5 175.5t23.5 174.5q0 83 -24 167.5t-80 180.5q-9 10 -7.5 20.5t13.5 19.5q15 4 29.5 2t18.5 -16q59 -95 84 -190t25 -187q0 -96 -27 -196t-81 -176q-4 -15 -19 -20.5t-30 3.5q-12 3 -13 15.5
t8 26.5zM178 90q9 -14 8 -26.5t-13 -15.5q-15 -9 -30 -3.5t-19 20.5q-54 76 -81 176t-27 196q0 92 25 187t84 190q4 14 18.5 16t29.5 -2q12 -9 13.5 -19.5t-7.5 -20.5q-56 -96 -80 -180.5t-24 -167.5q0 -91 23.5 -174.5t79.5 -175.5z" />
    <glyph glyph-name="uni24B3" unicode="&#x24b3;" horiz-adv-x="910" 
d="M603 215l-338 402q-10 11 -11 17t3 11q3 4 16 8.5t21 4.5q7 0 16.5 -5t17.5 -17l338 -398q9 -12 11 -19.5t-1 -12.5q-4 -5 -18 -9t-20 -4q-8 0 -17 5.5t-18 16.5zM315 218q-7 -10 -15 -17t-18 -7q-13 0 -23 3.5t-16 9.5q-5 5 -3.5 11.5t10.5 18.5l330 398q8 9 16 16.5
t16 7.5q14 0 24.5 -3.5t15.5 -9.5q7 -5 4.5 -12t-11.5 -19zM733 89q56 92 79.5 175.5t23.5 174.5q0 83 -24 167.5t-80 180.5q-9 10 -7.5 20.5t13.5 19.5q15 4 29.5 2t18.5 -16q59 -95 84 -190t25 -187q0 -96 -27 -196t-81 -176q-4 -15 -19 -20.5t-30 3.5q-12 3 -13 15.5
t8 26.5zM178 90q9 -14 8 -26.5t-13 -15.5q-15 -9 -30 -3.5t-19 20.5q-54 76 -81 176t-27 196q0 92 25 187t84 190q4 14 18.5 16t29.5 -2q12 -9 13.5 -19.5t-7.5 -20.5q-56 -96 -80 -180.5t-24 -167.5q0 -91 23.5 -174.5t79.5 -175.5z" />
    <glyph glyph-name="uni24B4" unicode="&#x24b4;" horiz-adv-x="910" 
d="M642 722q13 0 16 -10t-5 -30l-230 -566q-10 -24 -27 -29t-38 0q-11 4 -11 16t8 31l87 203l-192 349q-9 16 -3.5 26t18.5 10q24 0 35.5 -4t22.5 -22l151 -276l109 271q12 22 22 26.5t37 4.5zM733 89q56 92 79.5 175.5t23.5 174.5q0 83 -24 167.5t-80 180.5
q-9 10 -7.5 20.5t13.5 19.5q15 4 29.5 2t18.5 -16q59 -95 84 -190t25 -187q0 -96 -27 -196t-81 -176q-4 -15 -19 -20.5t-30 3.5q-12 3 -13 15.5t8 26.5zM178 90q9 -14 8 -26.5t-13 -15.5q-15 -9 -30 -3.5t-19 20.5q-54 76 -81 176t-27 196q0 92 25 187t84 190q4 14 18.5 16
t29.5 -2q12 -9 13.5 -19.5t-7.5 -20.5q-56 -96 -80 -180.5t-24 -167.5q0 -91 23.5 -174.5t79.5 -175.5z" />
    <glyph glyph-name="uni24B5" unicode="&#x24b5;" horiz-adv-x="910" 
d="M579 211h-256q-31 0 -41.5 17.5t7.5 43.5l231 334h-197q-14 0 -25.5 3t-11.5 12q0 21 15.5 33t41.5 12h253q18 0 22 -14.5t-4 -31.5l-242 -349h217q28 0 36.5 -4.5t8.5 -12.5q0 -12 -15.5 -27.5t-39.5 -15.5zM733 89q56 92 79.5 175.5t23.5 174.5q0 83 -24 167.5
t-80 180.5q-9 10 -7.5 20.5t13.5 19.5q15 4 29.5 2t18.5 -16q59 -95 84 -190t25 -187q0 -96 -27 -196t-81 -176q-4 -15 -19 -20.5t-30 3.5q-12 3 -13 15.5t8 26.5zM178 90q9 -14 8 -26.5t-13 -15.5q-15 -9 -30 -3.5t-19 20.5q-54 76 -81 176t-27 196q0 92 25 187t84 190
q4 14 18.5 16t29.5 -2q12 -9 13.5 -19.5t-7.5 -20.5q-56 -96 -80 -180.5t-24 -167.5q0 -91 23.5 -174.5t79.5 -175.5z" />
    <glyph glyph-name="uni24D0" unicode="&#x24d0;" horiz-adv-x="910" 
d="M657 388q0 -26 12 -59t31 -59q6 -7 6 -12v-9q-2 -8 -12.5 -16t-21.5 -8q-12 0 -27 17t-38 70q-21 -31 -69.5 -62.5t-111.5 -31.5q-86 0 -139.5 63t-53.5 160q0 104 68 171t158 67q80 0 139.5 -57t59.5 -167zM588 459q0 73 -30 116.5t-92 43.5q-77 0 -120 -53.5
t-43 -127.5q0 -66 33.5 -113t90.5 -47q67 0 114 47.5t47 133.5zM890 429q0 -188 -122.5 -313t-305.5 -125q-179 0 -305 125t-126 313q0 180 124 308t307 128t305.5 -128t122.5 -308zM848 430q0 165 -110.5 279t-275.5 114q-167 0 -278 -114t-111 -279t111 -280.5t278 -115.5
q165 0 275.5 115.5t110.5 280.5z" />
    <glyph glyph-name="uni24D1" unicode="&#x24d1;" horiz-adv-x="910" 
d="M501 586q94 0 141.5 -59t47.5 -155q0 -99 -61.5 -173.5t-168.5 -74.5q-76 0 -135 57t-59 172v381q0 8 10 14.5t25 6.5q14 0 24.5 -6.5t10.5 -14.5v-241q20 35 65 64t100 29zM620 380q0 61 -30 103.5t-92 42.5q-73 0 -117.5 -56.5t-44.5 -133.5q0 -62 32 -107t95 -45
q82 0 119.5 56t37.5 140zM890 429q0 -188 -122.5 -313t-305.5 -125q-179 0 -305 125t-126 313q0 180 124 308t307 128t305.5 -128t122.5 -308zM848 430q0 165 -110.5 279t-275.5 114q-167 0 -278 -114t-111 -279t111 -280.5t278 -115.5q165 0 275.5 115.5t110.5 280.5z" />
    <glyph glyph-name="uni24D2" unicode="&#x24d2;" horiz-adv-x="910" 
d="M652 327q11 -11 13 -18t2 -16q0 -18 -55 -51.5t-133 -33.5q-108 0 -172 65t-64 165q0 111 66 171t164 60q78 0 129.5 -31t51.5 -48q0 -12 -5 -19.5t-14 -13.5q-3 -3 -9.5 -3t-10.5 4q-30 23 -62.5 37t-81.5 14q-64 0 -111 -44t-47 -127q0 -77 45 -125.5t145 -48.5
q44 0 87 18.5t62 44.5zM890 429q0 -188 -122.5 -313t-305.5 -125q-179 0 -305 125t-126 313q0 180 124 308t307 128t305.5 -128t122.5 -308zM848 430q0 165 -110.5 279t-275.5 114q-167 0 -278 -114t-111 -279t111 -280.5t278 -115.5q165 0 275.5 115.5t110.5 280.5z" />
    <glyph glyph-name="uni24D3" unicode="&#x24d3;" horiz-adv-x="910" 
d="M609 764q14 0 24 -6.5t10 -16.5l2 -346q0 -112 -65.5 -184t-166.5 -72q-85 0 -140 62.5t-55 160.5q0 100 66 169.5t160 69.5q45 0 82 -19.5t49 -34.5v196q0 8 9.5 14.5t24.5 6.5zM575 385q0 71 -32.5 113.5t-91.5 42.5q-80 0 -121.5 -60.5t-41.5 -133.5q0 -55 35 -101.5
t93 -46.5q86 0 122.5 59t36.5 127zM890 429q0 -188 -122.5 -313t-305.5 -125q-179 0 -305 125t-126 313q0 180 124 308t307 128t305.5 -128t122.5 -308zM848 430q0 165 -110.5 279t-275.5 114q-167 0 -278 -114t-111 -279t111 -280.5t278 -115.5q165 0 275.5 115.5
t110.5 280.5z" />
    <glyph glyph-name="uni24D4" unicode="&#x24d4;" horiz-adv-x="910" 
d="M653 291q8 -4 12 -12t4 -17q-10 -29 -58 -50t-128 -21q-112 0 -177 67.5t-65 162.5q0 102 71 167t171 65q80 0 137 -40t57 -99q0 -68 -53 -104.5t-139 -36.5q-44 0 -91 14t-79 45q-1 -88 49 -138t143 -50q42 0 85.5 13.5t60.5 33.5zM483 593q-42 0 -84.5 -21t-71.5 -83
q31 -30 72 -45t86 -15q49 0 85 21t36 61q0 44 -38 63t-85 19zM890 429q0 -188 -122.5 -313t-305.5 -125q-179 0 -305 125t-126 313q0 180 124 308t307 128t305.5 -128t122.5 -308zM848 430q0 165 -110.5 279t-275.5 114q-167 0 -278 -114t-111 -279t111 -280.5t278 -115.5
q165 0 275.5 115.5t110.5 280.5z" />
    <glyph glyph-name="uni24D5" unicode="&#x24d5;" horiz-adv-x="910" 
d="M537 697q-42 0 -65.5 -19.5t-23.5 -55.5v-126h74q25 0 31 -5t6 -11q0 -20 -18.5 -32t-41.5 -12h-51v-319q0 -7 -10 -13.5t-25 -6.5t-25 6.5t-10 13.5v319h-63q-15 0 -22 3.5t-7 12.5q0 15 15.5 29.5t40.5 14.5h36v107q0 40 9 66.5t28 47.5q16 18 43 30t52 12h23
q40 0 52 -9t12 -24q0 -28 -18.5 -28.5t-41.5 -0.5zM890 429q0 -188 -122.5 -313t-305.5 -125q-179 0 -305 125t-126 313q0 180 124 308t307 128t305.5 -128t122.5 -308zM848 430q0 165 -110.5 279t-275.5 114q-167 0 -278 -114t-111 -279t111 -280.5t278 -115.5
q165 0 275.5 115.5t110.5 280.5z" />
    <glyph glyph-name="uni24D6" unicode="&#x24d6;" horiz-adv-x="910" 
d="M679 536v-208q0 -57 -16 -106t-44 -79q-27 -29 -65 -42.5t-88 -13.5q-80 0 -106 19t-26 34q0 11 11 20.5t36 3.5q25 -4 44 -9.5t46 -5.5q66 0 102.5 50.5t36.5 181.5l3 2q-17 -22 -61.5 -49t-104.5 -27q-80 0 -137.5 54t-57.5 156q0 97 66.5 162t161.5 65q97 0 148 -58
t51 -150zM448 367q66 0 113.5 46t47.5 130q0 63 -32.5 102t-92.5 39q-78 0 -120 -44t-42 -114q0 -84 32.5 -121.5t93.5 -37.5zM892 423q0 -188 -122.5 -313t-305.5 -125q-179 0 -305 125t-126 313q0 180 124 308t307 128t305.5 -128t122.5 -308zM850 424q0 165 -110.5 279
t-275.5 114q-167 0 -278 -114t-111 -279t111 -280.5t278 -115.5q165 0 275.5 115.5t110.5 280.5z" />
    <glyph glyph-name="uni24D7" unicode="&#x24d7;" horiz-adv-x="910" 
d="M283 143v595q0 8 10 14.5t25 6.5t25 -6.5t10 -14.5v-264q26 37 62.5 67t103.5 30q70 0 113.5 -44.5t43.5 -143.5v-239q0 -8 -10 -14.5t-25 -6.5t-25 6.5t-10 13.5v258q0 48 -23.5 79t-86.5 31q-56 0 -99.5 -51.5t-43.5 -138.5v-178q0 -7 -10 -13.5t-25 -6.5t-25 6.5
t-10 13.5zM890 429q0 -188 -122.5 -313t-305.5 -125q-179 0 -305 125t-126 313q0 180 124 308t307 128t305.5 -128t122.5 -308zM848 430q0 165 -110.5 279t-275.5 114q-167 0 -278 -114t-111 -279t111 -280.5t278 -115.5q165 0 275.5 115.5t110.5 280.5z" />
    <glyph glyph-name="uni24D8" unicode="&#x24d8;" horiz-adv-x="910" 
d="M461 544q13 0 23.5 -6.5t10.5 -13.5v-416q0 -7 -10.5 -13.5t-23.5 -6.5q-15 0 -25.5 6.5t-10.5 13.5v416q0 7 10.5 13.5t25.5 6.5zM458 642q-22 0 -38.5 16.5t-16.5 38.5q0 23 16.5 39.5t38.5 16.5t38.5 -16.5t16.5 -39.5q0 -22 -16.5 -38.5t-38.5 -16.5zM890 429
q0 -188 -122.5 -313t-305.5 -125q-179 0 -305 125t-126 313q0 180 124 308t307 128t305.5 -128t122.5 -308zM848 430q0 165 -110.5 279t-275.5 114q-167 0 -278 -114t-111 -279t111 -280.5t278 -115.5q165 0 275.5 115.5t110.5 280.5z" />
    <glyph glyph-name="uni24D9" unicode="&#x24d9;" horiz-adv-x="910" 
d="M467 670q-23 0 -39.5 16.5t-16.5 38.5q0 23 16.5 39.5t39.5 16.5q22 0 38.5 -16.5t16.5 -39.5q0 -22 -16.5 -38.5t-38.5 -16.5zM436 265v300q0 7 9.5 13.5t24.5 6.5q13 0 23.5 -6.5t10.5 -13.5v-291q0 -46 -9 -77t-27 -52q-20 -24 -52.5 -39t-68.5 -15h-17
q-28 0 -43.5 5.5t-10.5 25.5q4 17 11.5 23t37.5 6h31q42 0 61 27t19 87zM890 429q0 -188 -122.5 -313t-305.5 -125q-179 0 -305 125t-126 313q0 180 124 308t307 128t305.5 -128t122.5 -308zM848 430q0 165 -110.5 279t-275.5 114q-167 0 -278 -114t-111 -279t111 -280.5
t278 -115.5q165 0 275.5 115.5t110.5 280.5z" />
    <glyph glyph-name="uni24DA" unicode="&#x24da;" horiz-adv-x="910" 
d="M680 175q11 -16 13 -25t-3 -14q-4 -4 -12 -8t-16 -5q-14 -2 -20.5 3t-15.5 17l-170 218l-90 -78v-145q0 -7 -10.5 -13.5t-24.5 -6.5q-15 0 -25 6.5t-10 13.5v596q0 7 10 13.5t25 6.5q14 0 24.5 -6.5t10.5 -13.5v-372l225 196q10 9 17 13t17 4t17.5 -6t11.5 -12
q5 -6 2.5 -14t-15.5 -19l-135 -123zM890 429q0 -188 -122.5 -313t-305.5 -125q-179 0 -305 125t-126 313q0 180 124 308t307 128t305.5 -128t122.5 -308zM848 430q0 165 -110.5 279t-275.5 114q-167 0 -278 -114t-111 -279t111 -280.5t278 -115.5q165 0 275.5 115.5
t110.5 280.5z" />
    <glyph glyph-name="uni24DB" unicode="&#x24db;" horiz-adv-x="910" 
d="M456 763q14 0 24.5 -6.5t10.5 -13.5v-626q0 -7 -10.5 -13.5t-24.5 -6.5t-24.5 6.5t-10.5 13.5v626q0 7 10.5 13.5t24.5 6.5zM888 429q0 -188 -122.5 -313t-305.5 -125q-179 0 -305 125t-126 313q0 180 124 308t307 128t305.5 -128t122.5 -308zM846 430q0 165 -110.5 279
t-275.5 114q-167 0 -278 -114t-111 -279t111 -280.5t278 -115.5q165 0 275.5 115.5t110.5 280.5z" />
    <glyph glyph-name="uni24DC" unicode="&#x24dc;" horiz-adv-x="910" 
d="M574 674q77 0 114 -42t37 -127v-256q0 -7 -10 -13.5t-25 -6.5q-14 0 -24.5 6.5t-10.5 13.5v292q0 33 -17 53t-64 20q-27 0 -52.5 -20t-25.5 -53l1 -1v-291q0 -7 -10 -13.5t-25 -6.5q-14 0 -24.5 6.5t-10.5 13.5v291l1 1q0 33 -18 54t-66 21q-43 0 -63 -25.5t-20 -58.5
v-282q0 -7 -10 -14t-25 -7q-14 0 -24.5 6.5t-10.5 13.5v256q0 87 46.5 129t114.5 42q35 0 63.5 -15.5t49.5 -33.5q20 18 46 32.5t63 14.5zM889 429q0 -188 -122.5 -313t-305.5 -125q-179 0 -305 125t-126 313q0 180 124 308t307 128t305.5 -128t122.5 -308zM847 430
q0 165 -110.5 279t-275.5 114q-167 0 -278 -114t-111 -279t111 -280.5t278 -115.5q165 0 275.5 115.5t110.5 280.5z" />
    <glyph glyph-name="uni24DD" unicode="&#x24dd;" horiz-adv-x="910" 
d="M505 652q74 0 117 -48t43 -142v-250q0 -7 -10 -13.5t-25 -6.5t-25 6.5t-10 13.5v267q0 48 -25.5 80.5t-78.5 32.5q-58 0 -110.5 -52t-52.5 -139v-189q0 -7 -10 -13.5t-25 -6.5t-25 6.5t-10 13.5v410q0 9 10 15.5t25 6.5t25 -6.5t10 -14.5v-72q23 38 69 69.5t108 31.5z
M890 429q0 -188 -122.5 -313t-305.5 -125q-179 0 -305 125t-126 313q0 180 124 308t307 128t305.5 -128t122.5 -308zM848 430q0 165 -110.5 279t-275.5 114q-167 0 -278 -114t-111 -279t111 -280.5t278 -115.5q165 0 275.5 115.5t110.5 280.5z" />
    <glyph glyph-name="uni24DE" unicode="&#x24de;" horiz-adv-x="910" 
d="M460 659q100 0 166.5 -62t66.5 -170q0 -104 -64.5 -167t-168.5 -63q-107 0 -169.5 65t-62.5 165q0 109 66.5 170.5t165.5 61.5zM460 257q73 0 118 45t45 125q0 79 -45 125.5t-118 46.5q-74 0 -118 -46.5t-44 -125.5q0 -80 44 -125t118 -45zM890 429q0 -188 -122.5 -313
t-305.5 -125q-179 0 -305 125t-126 313q0 180 124 308t307 128t305.5 -128t122.5 -308zM848 430q0 165 -110.5 279t-275.5 114q-167 0 -278 -114t-111 -279t111 -280.5t278 -115.5q165 0 275.5 115.5t110.5 280.5z" />
    <glyph glyph-name="uni24DF" unicode="&#x24df;" horiz-adv-x="910" 
d="M529 719q91 0 136.5 -62.5t45.5 -162.5q0 -102 -56.5 -166t-145.5 -64h-50q-35 0 -64.5 16.5t-38.5 32.5v-202q0 -7 -10.5 -13.5t-24.5 -6.5q-15 0 -25 6.5t-10 13.5v435q0 54 14.5 88.5t34.5 51.5q23 21 50.5 27t56.5 6h87zM499 324q74 0 108 47t34 123q0 75 -28.5 120
t-87.5 45h-80q-40 0 -64.5 -23t-24.5 -71v-145q0 -48 35.5 -72t67.5 -24h40zM890 429q0 -188 -122.5 -313t-305.5 -125q-179 0 -305 125t-126 313q0 180 124 308t307 128t305.5 -128t122.5 -308zM848 430q0 165 -110.5 279t-275.5 114q-167 0 -278 -114t-111 -279
t111 -280.5t278 -115.5q165 0 275.5 115.5t110.5 280.5z" />
    <glyph glyph-name="uni24E0" unicode="&#x24e0;" horiz-adv-x="910" 
d="M238 489q0 107 58 166t139 59h77q64 0 107 -43t44 -124v-425q0 -7 -10 -13.5t-25 -6.5q-14 0 -24.5 6.5t-10.5 13.5v180q-10 -12 -44 -28t-66 -16h-46q-83 0 -141 61t-58 170zM308 489q0 -90 34.5 -130.5t107.5 -40.5h29q45 0 79.5 29.5t34.5 84.5v120q1 53 -27 77.5
t-73 24.5h-44q-69 0 -105 -37t-36 -128zM890 429q0 -188 -122.5 -313t-305.5 -125q-179 0 -305 125t-126 313q0 180 124 308t307 128t305.5 -128t122.5 -308zM848 430q0 165 -110.5 279t-275.5 114q-167 0 -278 -114t-111 -279t111 -280.5t278 -115.5q165 0 275.5 115.5
t110.5 280.5z" />
    <glyph glyph-name="uni24E1" unicode="&#x24e1;" horiz-adv-x="910" 
d="M536 660q35 0 49.5 -13t13.5 -28q-69 1 -110 -35.5t-41 -142.5v-223q0 -7 -10 -13.5t-25 -6.5t-25 6.5t-10 14.5v234q0 105 51 156t107 51zM890 429q0 -188 -122.5 -313t-305.5 -125q-179 0 -305 125t-126 313q0 180 124 308t307 128t305.5 -128t122.5 -308zM848 430
q0 165 -110.5 279t-275.5 114q-167 0 -278 -114t-111 -279t111 -280.5t278 -115.5q165 0 275.5 115.5t110.5 280.5z" />
    <glyph glyph-name="uni24E2" unicode="&#x24e2;" horiz-adv-x="910" 
d="M466 459q119 -22 159 -50t40 -78q0 -54 -52 -93.5t-152 -39.5q-42 0 -92.5 13.5t-70.5 27.5q-40 27 -22 57q6 8 24 0q38 -18 81.5 -28t81.5 -10q63 0 97 17t34 51q0 41 -42 55t-126 32q-69 17 -103 46t-34 80q0 53 54 88t138 35q51 0 94 -13.5t61 -27.5q13 -9 16.5 -15.5
t-1.5 -16.5q-8 -14 -22 -17t-30 4q-23 10 -57.5 18t-69.5 8q-49 0 -80.5 -16.5t-31.5 -49.5q0 -38 31 -53t75 -24zM890 429q0 -188 -122.5 -313t-305.5 -125q-179 0 -305 125t-126 313q0 180 124 308t307 128t305.5 -128t122.5 -308zM848 430q0 165 -110.5 279t-275.5 114
q-167 0 -278 -114t-111 -279t111 -280.5t278 -115.5q165 0 275.5 115.5t110.5 280.5z" />
    <glyph glyph-name="uni24E3" unicode="&#x24e3;" horiz-adv-x="910" 
d="M575 597q20 0 26 -4t6 -12q0 -10 -12.5 -26.5t-31.5 -16.5h-107v-178q0 -37 1.5 -64.5t12.5 -51.5q25 -62 83 -62q8 0 15.5 2.5t13.5 5.5q7 -20 -10.5 -33.5t-45.5 -13.5q-39 0 -71.5 26t-50.5 71q-12 31 -15 65.5t-3 57.5v346q0 8 10 14.5t25 6.5t25 -6.5t10 -14.5v-112
h119zM890 429q0 -188 -122.5 -313t-305.5 -125q-179 0 -305 125t-126 313q0 180 124 308t307 128t305.5 -128t122.5 -308zM848 430q0 165 -110.5 279t-275.5 114q-167 0 -278 -114t-111 -279t111 -280.5t278 -115.5q165 0 275.5 115.5t110.5 280.5z" />
    <glyph glyph-name="uni24E4" unicode="&#x24e4;" horiz-adv-x="910" 
d="M631 661q18 0 26.5 -7.5t8.5 -19.5v-408q0 -7 -10 -13.5t-25 -6.5q-17 0 -26 6t-9 14v72q-21 -31 -76 -62t-106 -31q-69 0 -113.5 42.5t-44.5 144.5v242q0 12 9.5 20t25.5 8q18 0 26.5 -8t8.5 -20v-258q0 -45 26.5 -78t77.5 -33q71 0 118.5 47.5t47.5 94.5v226
q0 13 9 20.5t26 7.5zM890 429q0 -188 -122.5 -313t-305.5 -125q-179 0 -305 125t-126 313q0 180 124 308t307 128t305.5 -128t122.5 -308zM848 430q0 165 -110.5 279t-275.5 114q-167 0 -278 -114t-111 -279t111 -280.5t278 -115.5q165 0 275.5 115.5t110.5 280.5z" />
    <glyph glyph-name="uni24E5" unicode="&#x24e5;" horiz-adv-x="910" 
d="M626 646q13 0 20.5 -5.5t3.5 -15.5l-151 -412q-6 -15 -15.5 -21.5t-22.5 -6.5q-15 0 -23.5 6.5t-15.5 19.5l-150 414q-4 10 3.5 15.5t20.5 5.5q15 0 26.5 -4.5t19.5 -19.5l118 -330l121 330q7 15 18.5 19.5t26.5 4.5zM890 429q0 -188 -122.5 -313t-305.5 -125
q-179 0 -305 125t-126 313q0 180 124 308t307 128t305.5 -128t122.5 -308zM848 430q0 165 -110.5 279t-275.5 114q-167 0 -278 -114t-111 -279t111 -280.5t278 -115.5q165 0 275.5 115.5t110.5 280.5z" />
    <glyph glyph-name="uni24E6" unicode="&#x24e6;" horiz-adv-x="910" 
d="M727 636q12 0 18.5 -5.5t5.5 -15.5l-108 -413q-6 -14 -17 -21t-25 -7q-15 0 -25.5 6.5t-16.5 20.5l-99 314l-101 -314q-6 -14 -16.5 -21t-24.5 -7q-15 0 -26 6.5t-17 20.5l-105 414q-2 10 5 15.5t19 5.5q16 0 27.5 -4.5t18.5 -19.5l80 -343l106 341q4 14 12.5 21t22.5 7
q15 0 24 -6.5t13 -20.5l102 -340l82 341q3 15 16 20t29 5zM890 429q0 -188 -122.5 -313t-305.5 -125q-179 0 -305 125t-126 313q0 180 124 308t307 128t305.5 -128t122.5 -308zM848 430q0 165 -110.5 279t-275.5 114q-167 0 -278 -114t-111 -279t111 -280.5t278 -115.5
q165 0 275.5 115.5t110.5 280.5z" />
    <glyph glyph-name="uni24E7" unicode="&#x24e7;" horiz-adv-x="910" 
d="M603 215l-338 402q-10 11 -11 17t3 11q3 4 16 8.5t21 4.5q7 0 16.5 -5t17.5 -17l338 -398q9 -12 11 -19.5t-1 -12.5q-4 -5 -18 -9t-20 -4q-8 0 -17 5.5t-18 16.5zM315 218q-7 -10 -15 -17t-18 -7q-13 0 -23 3.5t-16 9.5q-5 5 -3.5 11.5t10.5 18.5l330 398q8 9 16 16.5
t16 7.5q14 0 24.5 -3.5t15.5 -9.5q7 -5 4.5 -12t-11.5 -19zM890 429q0 -188 -122.5 -313t-305.5 -125q-179 0 -305 125t-126 313q0 180 124 308t307 128t305.5 -128t122.5 -308zM848 430q0 165 -110.5 279t-275.5 114q-167 0 -278 -114t-111 -279t111 -280.5t278 -115.5
q165 0 275.5 115.5t110.5 280.5z" />
    <glyph glyph-name="uni24E8" unicode="&#x24e8;" horiz-adv-x="910" 
d="M642 722q13 0 16 -10t-5 -30l-230 -566q-10 -24 -27 -29t-38 0q-11 4 -11 16t8 31l87 203l-192 349q-9 16 -3.5 26t18.5 10q24 0 35.5 -4t22.5 -22l151 -276l109 271q12 22 22 26.5t37 4.5zM890 429q0 -188 -122.5 -313t-305.5 -125q-179 0 -305 125t-126 313
q0 180 124 308t307 128t305.5 -128t122.5 -308zM848 430q0 165 -110.5 279t-275.5 114q-167 0 -278 -114t-111 -279t111 -280.5t278 -115.5q165 0 275.5 115.5t110.5 280.5z" />
    <glyph glyph-name="uni24E9" unicode="&#x24e9;" horiz-adv-x="910" 
d="M579 211h-256q-31 0 -41.5 17.5t7.5 43.5l231 334h-197q-14 0 -25.5 3t-11.5 12q0 21 15.5 33t41.5 12h253q18 0 22 -14.5t-4 -31.5l-242 -349h217q28 0 36.5 -4.5t8.5 -12.5q0 -12 -15.5 -27.5t-39.5 -15.5zM890 429q0 -188 -122.5 -313t-305.5 -125q-179 0 -305 125
t-126 313q0 180 124 308t307 128t305.5 -128t122.5 -308zM848 430q0 165 -110.5 279t-275.5 114q-167 0 -278 -114t-111 -279t111 -280.5t278 -115.5q165 0 275.5 115.5t110.5 280.5z" />
    <glyph glyph-name="SF100000" unicode="&#x2500;" horiz-adv-x="910" 
d="M0 426h910v-51h-910v51z" />
    <glyph glyph-name="uni2501" unicode="&#x2501;" horiz-adv-x="910" 
d="M0 447h910v-92h-910v92z" />
    <glyph glyph-name="SF110000" unicode="&#x2502;" horiz-adv-x="910" 
d="M482 911v-1024h-51v1024h51z" />
    <glyph glyph-name="uni2503" unicode="&#x2503;" horiz-adv-x="910" 
d="M503 911v-1024h-92v1024h92z" />
    <glyph glyph-name="SF010000" unicode="&#x250c;" horiz-adv-x="910" 
d="M482 -113h-51v539h479v-51h-428v-488z" />
    <glyph glyph-name="uni250D" unicode="&#x250d;" horiz-adv-x="910" 
d="M482 -113h-51v560h479v-92h-428v-468z" />
    <glyph glyph-name="uni250E" unicode="&#x250e;" horiz-adv-x="910" 
d="M503 -113h-92v539h499v-51h-407v-488z" />
    <glyph glyph-name="uni250F" unicode="&#x250f;" horiz-adv-x="910" 
d="M910 447v-92h-407v-468h-92v560h499z" />
    <glyph glyph-name="SF030000" unicode="&#x2510;" horiz-adv-x="910" 
d="M431 375h-431v51h482v-539h-51v488z" />
    <glyph glyph-name="uni2511" unicode="&#x2511;" horiz-adv-x="910" 
d="M431 355h-431v92h482v-560h-51v468z" />
    <glyph glyph-name="uni2512" unicode="&#x2512;" horiz-adv-x="910" 
d="M411 375h-411v51h503v-539h-92v488z" />
    <glyph glyph-name="uni2513" unicode="&#x2513;" horiz-adv-x="910" 
d="M503 447v-560h-92v468h-411v92h503z" />
    <glyph glyph-name="SF020000" unicode="&#x2514;" horiz-adv-x="910" 
d="M482 426h428v-51h-479v536h51v-485z" />
    <glyph glyph-name="uni2515" unicode="&#x2515;" horiz-adv-x="910" 
d="M482 447h428v-92h-479v556h51v-464z" />
    <glyph glyph-name="uni2516" unicode="&#x2516;" horiz-adv-x="910" 
d="M503 426h407v-51h-499v536h92v-485z" />
    <glyph glyph-name="uni2517" unicode="&#x2517;" horiz-adv-x="910" 
d="M411 355v556h92v-464h407v-92h-499z" />
    <glyph glyph-name="SF040000" unicode="&#x2518;" horiz-adv-x="910" 
d="M431 911h51v-536h-482v51h431v485z" />
    <glyph glyph-name="uni2519" unicode="&#x2519;" horiz-adv-x="910" 
d="M431 911h51v-556h-482v92h431v464z" />
    <glyph glyph-name="uni251A" unicode="&#x251a;" horiz-adv-x="910" 
d="M411 911h92v-536h-503v51h411v485z" />
    <glyph glyph-name="uni251B" unicode="&#x251b;" horiz-adv-x="910" 
d="M0 355v92h411v464h92v-556h-503z" />
    <glyph glyph-name="SF080000" unicode="&#x251c;" horiz-adv-x="910" 
d="M482 426h428v-51h-428v-488h-51v1024h51v-485z" />
    <glyph glyph-name="uni251D" unicode="&#x251d;" horiz-adv-x="910" 
d="M482 447h428v-92h-428v-468h-51v1024h51v-464z" />
    <glyph glyph-name="uni251E" unicode="&#x251e;" horiz-adv-x="910" 
d="M503 426h407v-51h-429v-488h-50v509h-20v515h92v-485z" />
    <glyph glyph-name="uni251F" unicode="&#x251f;" horiz-adv-x="910" 
d="M482 426h428v-51h-407v-488h-92v519h20v505h51v-485z" />
    <glyph glyph-name="uni2520" unicode="&#x2520;" horiz-adv-x="910" 
d="M411 -113v1024h92v-485h407v-51h-407v-488h-92z" />
    <glyph glyph-name="uni2521" unicode="&#x2521;" horiz-adv-x="910" 
d="M503 447h407v-92h-428v-468h-51v509h-20v515h92v-464z" />
    <glyph glyph-name="uni2522" unicode="&#x2522;" horiz-adv-x="910" 
d="M482 447h428v-92h-407v-468h-92v519h20v505h51v-464z" />
    <glyph glyph-name="uni2523" unicode="&#x2523;" horiz-adv-x="910" 
d="M411 -113v1024h92v-464h407v-92h-407v-468h-92z" />
    <glyph glyph-name="SF090000" unicode="&#x2524;" horiz-adv-x="910" 
d="M431 375h-431v51h431v485h51v-1024h-51v488z" />
    <glyph glyph-name="uni2525" unicode="&#x2525;" horiz-adv-x="910" 
d="M431 355h-431v92h431v464h51v-1024h-51v468z" />
    <glyph glyph-name="uni2526" unicode="&#x2526;" horiz-adv-x="910" 
d="M431 375h-431v51h411v485h92v-515h-21v-509h-51v488z" />
    <glyph glyph-name="uni2527" unicode="&#x2527;" horiz-adv-x="910" 
d="M411 375h-411v51h431v485h51v-505h21v-519h-92v488z" />
    <glyph glyph-name="uni2528" unicode="&#x2528;" horiz-adv-x="910" 
d="M411 -113v488h-411v51h411v485h92v-1024h-92z" />
    <glyph glyph-name="uni2529" unicode="&#x2529;" horiz-adv-x="910" 
d="M431 355h-431v92h411v464h92v-515h-21v-509h-51v468z" />
    <glyph glyph-name="uni252A" unicode="&#x252a;" horiz-adv-x="910" 
d="M411 355h-411v92h431v464h51v-505h21v-519h-92v468z" />
    <glyph glyph-name="uni252B" unicode="&#x252b;" horiz-adv-x="910" 
d="M411 -113v468h-411v92h411v464h92v-1024h-92z" />
    <glyph glyph-name="SF060000" unicode="&#x252c;" horiz-adv-x="910" 
d="M482 375v-488h-51v488h-462v51h941v-51h-428z" />
    <glyph glyph-name="uni252D" unicode="&#x252d;" horiz-adv-x="910" 
d="M482 375v-488h-51v468h-431v92h462v-21h448v-51h-428z" />
    <glyph glyph-name="uni252E" unicode="&#x252e;" horiz-adv-x="910" 
d="M482 355v-468h-51v488h-431v51h452v21h458v-92h-428z" />
    <glyph glyph-name="uni252F" unicode="&#x252f;" horiz-adv-x="910" 
d="M431 -113v468h-431v92h910v-92h-428v-468h-51z" />
    <glyph glyph-name="uni2530" unicode="&#x2530;" horiz-adv-x="910" 
d="M503 375v-488h-92v488h-411v51h910v-51h-407z" />
    <glyph glyph-name="uni2531" unicode="&#x2531;" horiz-adv-x="910" 
d="M503 375v-488h-92v468h-411v92h462v-21h448v-51h-407z" />
    <glyph glyph-name="uni2532" unicode="&#x2532;" horiz-adv-x="910" 
d="M0 375v51h452v21h458v-92h-407v-468h-92v488h-411z" />
    <glyph glyph-name="uni2533" unicode="&#x2533;" horiz-adv-x="910" 
d="M411 -113v468h-411v92h910v-92h-407v-468h-92z" />
    <glyph glyph-name="SF070000" unicode="&#x2534;" horiz-adv-x="910" 
d="M430 426v485h51v-485h429v-51h-910v51h430z" />
    <glyph glyph-name="uni2535" unicode="&#x2535;" horiz-adv-x="910" 
d="M431 447v464h51v-485h428v-51h-448v-20h-462v92h431z" />
    <glyph glyph-name="uni2536" unicode="&#x2536;" horiz-adv-x="910" 
d="M910 447v-92h-458v20h-452v51h431v485h51v-464h428z" />
    <glyph glyph-name="uni2537" unicode="&#x2537;" horiz-adv-x="910" 
d="M482 911v-464h428v-92h-910v92h431v464h51z" />
    <glyph glyph-name="uni2538" unicode="&#x2538;" horiz-adv-x="910" 
d="M411 426v485h92v-485h407v-51h-910v51h411z" />
    <glyph glyph-name="uni2539" unicode="&#x2539;" horiz-adv-x="910" 
d="M411 447v464h92v-485h407v-51h-448v-20h-462v92h411z" />
    <glyph glyph-name="uni253A" unicode="&#x253a;" horiz-adv-x="910" 
d="M910 447v-92h-458v20h-452v51h411v485h92v-464h407z" />
    <glyph glyph-name="uni253B" unicode="&#x253b;" horiz-adv-x="910" 
d="M503 911v-464h407v-92h-910v92h411v464h92z" />
    <glyph glyph-name="SF050000" unicode="&#x253c;" horiz-adv-x="910" 
d="M430 375h-430v51h430v485h51v-485h429v-51h-429v-488h-51v488z" />
    <glyph glyph-name="uni253D" unicode="&#x253d;" horiz-adv-x="910" 
d="M431 355h-431v96h431v460h51v-485h428v-51h-428v-488h-51v468z" />
    <glyph glyph-name="uni253E" unicode="&#x253e;" horiz-adv-x="910" 
d="M431 375h-431v51h431v485h51v-464h428v-92h-428v-468h-51v488z" />
    <glyph glyph-name="uni253F" unicode="&#x253f;" horiz-adv-x="910" 
d="M482 911v-464h428v-92h-428v-468h-51v468h-431v92h431v464h51z" />
    <glyph glyph-name="uni2540" unicode="&#x2540;" horiz-adv-x="910" 
d="M431 375h-431v51h411v485h92v-485h407v-51h-428v-488h-51v488z" />
    <glyph glyph-name="uni2541" unicode="&#x2541;" horiz-adv-x="910" 
d="M431 911h51v-485h428v-51h-407v-488h-92v488h-411v51h431v485z" />
    <glyph glyph-name="uni2542" unicode="&#x2542;" horiz-adv-x="910" 
d="M411 375h-411v51h411v485h92v-485h407v-51h-407v-488h-92v488z" />
    <glyph glyph-name="uni2543" unicode="&#x2543;" horiz-adv-x="910" 
d="M482 -113h-51v468h-431v92h411v464h92v-485h407v-51h-428v-488z" />
    <glyph glyph-name="uni2544" unicode="&#x2544;" horiz-adv-x="910" 
d="M431 375h-431v51h411v485h92v-464h407v-92h-428v-468h-51v488z" />
    <glyph glyph-name="uni2545" unicode="&#x2545;" horiz-adv-x="910" 
d="M482 426h428v-51h-407v-488h-92v468h-411v92h431v464h51v-485z" />
    <glyph glyph-name="uni2546" unicode="&#x2546;" horiz-adv-x="910" 
d="M431 911h51v-464h428v-92h-407v-468h-92v488h-411v51h431v485z" />
    <glyph glyph-name="uni2547" unicode="&#x2547;" horiz-adv-x="910" 
d="M431 355h-431v92h411v464h92v-464h407v-92h-428v-468h-51v468z" />
    <glyph glyph-name="uni2548" unicode="&#x2548;" horiz-adv-x="910" 
d="M431 911h51v-464h428v-92h-407v-468h-92v468h-411v92h431v464z" />
    <glyph glyph-name="uni2549" unicode="&#x2549;" horiz-adv-x="910" 
d="M503 -113h-92v468h-411v92h411v464h92v-485h407v-51h-407v-488z" />
    <glyph glyph-name="uni254A" unicode="&#x254a;" horiz-adv-x="910" 
d="M411 375h-411v51h411v485h92v-464h407v-92h-407v-468h-92v488z" />
    <glyph glyph-name="uni254B" unicode="&#x254b;" horiz-adv-x="910" 
d="M503 911v-464h407v-92h-407v-468h-92v468h-411v92h411v464h92z" />
    <glyph glyph-name="shade" unicode="&#x2592;" horiz-adv-x="910" 
d="M89 788h60v-58h-60v58zM201 788h60v-58h-60v58zM313 788h61v-58h-61v58zM425 788h61v-58h-61v58zM537 788h61v-58h-61v58zM650 788h60v-58h-60v58zM762 788h60v-58h-60v58zM89 676h60v-58h-60v58zM201 676h60v-58h-60v58zM313 676h61v-58h-61v58zM425 676h61v-58h-61v58z
M537 676h61v-58h-61v58zM650 676h60v-58h-60v58zM762 676h60v-58h-60v58zM89 564h60v-59h-60v59zM201 564h60v-59h-60v59zM313 564h61v-59h-61v59zM425 564h61v-59h-61v59zM537 564h61v-59h-61v59zM650 564h60v-59h-60v59zM762 564h60v-59h-60v59zM89 451h60v-58h-60v58z
M201 451h60v-58h-60v58zM313 451h61v-58h-61v58zM425 451h61v-58h-61v58zM537 451h61v-58h-61v58zM650 451h60v-58h-60v58zM762 451h60v-58h-60v58zM89 339h60v-58h-60v58zM201 339h60v-58h-60v58zM313 339h61v-58h-61v58zM425 339h61v-58h-61v58zM537 339h61v-58h-61v58z
M650 339h60v-58h-60v58zM762 339h60v-58h-60v58zM89 227h60v-58h-60v58zM201 227h60v-58h-60v58zM313 227h61v-58h-61v58zM425 227h61v-58h-61v58zM537 227h61v-58h-61v58zM650 227h60v-58h-60v58zM762 227h60v-58h-60v58zM89 115h60v-58h-60v58zM201 115h60v-58h-60v58z
M313 115h61v-58h-61v58zM425 115h61v-58h-61v58zM537 115h61v-58h-61v58zM650 115h60v-58h-60v58zM762 115h60v-58h-60v58z" />
    <glyph glyph-name="filledbox" unicode="&#x25a0;" horiz-adv-x="910" 
d="M177 677h604v-605h-604v605z" />
    <glyph glyph-name="H22073" unicode="&#x25a1;" horiz-adv-x="910" 
d="M210 641v-517h509v517h-509zM145 700h637v-632h-637v632z" />
    <glyph glyph-name="uni25A3" unicode="&#x25a3;" horiz-adv-x="910" 
d="M139 100v644h649v-644h-649zM736 692h-545v-540h545v540zM288 242v360h354v-360h-354z" />
    <glyph glyph-name="uni25A4" unicode="&#x25a4;" horiz-adv-x="910" 
d="M93 75v709h714v-709h-714zM750 731h-600v-100h600v100zM750 579h-600v-119h600v119zM750 412h-600v-122h600v122zM750 237h-600v-105h600v105z" />
    <glyph glyph-name="uni25A5" unicode="&#x25a5;" horiz-adv-x="910" 
d="M93 75v709h714v-709h-714zM750 731h-108v-599h108v599zM585 731h-106v-599h106v599zM426 731h-104v-599h104v599zM261 731h-111v-599h111v599z" />
    <glyph glyph-name="uni25A6" unicode="&#x25a6;" horiz-adv-x="910" 
d="M90 85v709h713v-709h-713zM746 741h-108v-113h108v113zM585 741h-110v-113h110v113zM746 570h-108v-113h108v113zM422 741h-109v-113h109v113zM746 410h-108v-106h108v106zM585 570h-110v-113h110v113zM746 247h-108v-105h108v105zM257 741h-111v-113h111v113zM585 410
h-110v-106h110v106zM422 570h-109v-113h109v113zM585 247h-110v-105h110v105zM422 410h-109v-106h109v106zM257 570h-111v-113h111v113zM422 247h-109v-105h109v105zM257 410h-111v-106h111v106zM257 247h-111v-105h111v105z" />
    <glyph glyph-name="uni25A7" unicode="&#x25a7;" horiz-adv-x="910" 
d="M97 75v709h714v-709h-714zM754 731h-247l247 -249v249zM754 407l-323 324h-237l560 -555v231zM155 692v-242l324 -318h236zM155 377v-245h250z" />
    <glyph glyph-name="uni25A8" unicode="&#x25a8;" horiz-adv-x="910" 
d="M102 75v709h714v-709h-714zM482 731l-323 -324v-236l560 560h-237zM159 731v-249l246 249h-246zM759 688l-560 -556h239l321 315v241zM759 371l-245 -239h245v239z" />
    <glyph glyph-name="uni25A9" unicode="&#x25a9;" horiz-adv-x="910" 
d="M93 75v709h714v-709h-714zM501 731l106 -105l103 105h-209zM750 684l-104 -97l104 -105v202zM607 543l-120 -114l120 -113l112 113zM454 701l-120 -119l120 -118l113 123zM750 381q-11 -10 -27.5 -24t-27.5 -34q-19 -11 -31.5 -27t-17.5 -24l104 -101v210zM187 731
l104 -108l110 108h-214zM150 684v-202l101 100zM607 231l-106 -99h205zM454 390l-120 -118l120 -114l109 114zM291 538l-113 -109l113 -113l119 113zM150 377v-206l101 101zM291 231l-101 -99h206z" />
    <glyph glyph-name="triagup" unicode="&#x25b2;" horiz-adv-x="910" 
d="M799 108h-689l347 592z" />
    <glyph glyph-name="uni25B3" unicode="&#x25b3;" horiz-adv-x="910" 
d="M818 108h-717l359 604zM465 593l-254 -426h499z" />
    <glyph glyph-name="uni25B6" unicode="&#x25b6;" horiz-adv-x="910" 
d="M224 115v680l525 -338z" />
    <glyph glyph-name="uni25B7" unicode="&#x25b7;" horiz-adv-x="910" 
d="M234 115v680l525 -338zM285 705v-498l383 250z" />
    <glyph glyph-name="triagdn" unicode="&#x25bc;" horiz-adv-x="910" 
d="M459 64l-347 593h693z" />
    <glyph glyph-name="uni25BD" unicode="&#x25bd;" horiz-adv-x="910" 
d="M454 196l255 425h-500zM816 681l-357 -601l-360 601h717z" />
    <glyph glyph-name="uni25C0" unicode="&#x25c0;" horiz-adv-x="910" 
d="M159 462l531 338v-676z" />
    <glyph glyph-name="uni25C1" unicode="&#x25c1;" horiz-adv-x="910" 
d="M189 450l531 338v-676zM665 692l-382 -242l382 -247v489z" />
    <glyph glyph-name="uni25C6" unicode="&#x25c6;" horiz-adv-x="910" 
d="M97 382l360 354l353 -354l-353 -354z" />
    <glyph glyph-name="uni25C7" unicode="&#x25c7;" horiz-adv-x="910" 
d="M78 382l381 379l378 -379l-383 -377zM459 84l294 298l-294 295l-297 -299z" />
    <glyph glyph-name="uni25C8" unicode="&#x25c8;" horiz-adv-x="910" 
d="M453 48l-382 382l382 378l378 -378zM453 736l-311 -306l311 -315l306 315zM453 156l-268 270l268 262l263 -258z" />
    <glyph glyph-name="circle" unicode="&#x25cb;" horiz-adv-x="910" 
d="M666 179q84 84 84 203q0 111 -88 199q-83 84 -203 84q-114 0 -198 -88q-82 -84 -82 -199t82 -199q84 -83 203 -83q115 0 202 83zM714 633q104 -104 104 -251q0 -151 -104 -255q-102 -96 -250 -96q-151 0 -254 96q-101 104 -101 251q0 151 101 255q103 103 249 103
q153 0 255 -103z" />
    <glyph glyph-name="uni25CE" unicode="&#x25ce;" horiz-adv-x="910" 
d="M715 633q108 -108 108 -251q0 -147 -108 -255q-106 -99 -250 -99q-147 0 -254 99q-105 108 -105 251q0 147 105 255q107 107 249 107q149 0 255 -107zM685 164q87 87 87 218q0 128 -91 220q-88 86 -221 86q-126 0 -214 -91q-88 -87 -88 -219q0 -127 88 -214
q88 -89 219 -89q128 0 220 89zM613 529q63 -63 63 -147q0 -87 -63 -147q-65 -64 -148 -64q-87 0 -147 60q-63 64 -63 147q0 88 59 151q64 64 146 64q88 0 153 -64zM580 267q44 44 44 115q0 68 -47 115q-44 43 -117 43q-66 0 -110 -47q-44 -43 -44 -115q0 -67 44 -111
t115 -44q68 0 115 44z" />
    <glyph glyph-name="H18533" unicode="&#x25cf;" horiz-adv-x="910" 
d="M706 625q101 -100 101 -243q0 -147 -101 -247q-98 -90 -242 -90q-147 0 -245 90q-97 100 -97 243q0 147 97 247q98 99 240 99q149 0 247 -99z" />
    <glyph glyph-name="uni25D0" unicode="&#x25d0;" horiz-adv-x="910" 
d="M449 87q-82 0 -146 30.5t-103 78.5q-43 46 -63 108t-20 122q0 63 20 125t63 110q39 48 103 75.5t146 27.5q84 0 150 -27.5t110 -75.5t68 -110t24 -125q0 -60 -24 -122t-68 -108q-44 -48 -110 -78.5t-150 -30.5zM459 721v-590q67 4 121 30t90 70q34 40 54 91t20 104
q0 56 -20 107t-54 92q-36 40 -90 68t-121 28z" />
    <glyph glyph-name="uni25D1" unicode="&#x25d1;" horiz-adv-x="910" 
d="M459 87q-88 0 -151.5 30.5t-102.5 78.5q-44 46 -64 108t-20 122q0 63 20 125t64 110q39 48 102.5 75.5t151.5 27.5q83 0 147 -27.5t108 -75.5q43 -48 65 -110t22 -125q0 -60 -22 -122t-65 -108q-44 -48 -108 -78.5t-147 -30.5zM442 721q-67 0 -117 -28t-86 -68
q-30 -41 -48.5 -92t-18.5 -107t18.5 -107.5t48.5 -91.5q36 -40 86 -66t117 -30v590z" />
    <glyph glyph-name="uni2605" unicode="&#x2605;" horiz-adv-x="910" 
d="M91 470h278l90 278l88 -278h279l-230 -159l88 -263l-228 159l-223 -159l88 263z" />
    <glyph glyph-name="uni2606" unicode="&#x2606;" horiz-adv-x="910" 
d="M327 171l134 92l137 -92l-44 155l136 96h-172l-52 147l-56 -147h-171l136 -96zM461 211l-222 -159l88 259l-226 159h278l82 262l88 -262h279l-226 -159l88 -259z" />
    <glyph glyph-name="uni260E" unicode="&#x260e;" horiz-adv-x="910" 
d="M798 448q-21 5 -50 8.5t-53 17.5q-24 9 -43 22t-19 31q0 9 2.5 17.5t6.5 17.5q0 8 4.5 15.5t4.5 14.5q-5 9 -16.5 13.5t-24.5 4.5v-21q0 -48 14 -85.5t47 -72.5l28 -31q35 -34 47.5 -60.5t20.5 -55.5v-15t6 -18q0 -10 2 -20t12 -19q11 -13 7 -28.5t-17 -28.5
q-14 -13 -33.5 -19.5t-33.5 -6.5h-588q-16 5 -24 15.5t-8 27.5q-4 14 -0.5 29t16.5 24q0 4 3 8t3 14l5 31q0 26 8.5 45.5t20.5 37.5q13 12 27 27.5t30 33.5q40 35 57.5 67.5t17.5 86.5v37q-13 0 -24 -8t-11 -20q0 -5 2 -10t6 -13q6 -5 8 -13t2 -22q0 -18 -15 -31t-43 -26
q-21 -10 -53.5 -16t-63.5 -10q-27 0 -47 15t-10 54q0 44 22 83.5t75 70.5q48 31 124 48t194 17q210 0 308.5 -54.5t107.5 -155.5q0 -43 -13.5 -58.5t-48.5 -15.5zM541 633q-66 -14 -107.5 -9.5t-80.5 9.5v-44q0 -13 6.5 -22.5t32.5 -9.5h95q27 0 40.5 9.5t13.5 22.5v44z
M449 497q-39 0 -65.5 -13.5t-44.5 -30.5q-17 -22 -25.5 -48.5t-8.5 -51.5q0 -31 8.5 -57.5t25.5 -44.5q18 -22 44.5 -35t65.5 -13q65 0 105 46t40 98q0 63 -40 106.5t-105 43.5z" />
    <glyph glyph-name="uni260F" unicode="&#x260f;" horiz-adv-x="910" 
d="M807 443q-25 0 -54 3.5t-52 17.5q-25 9 -42 22t-17 31q0 9 2 17.5t7 17.5q0 8 3 15.5t3 14.5q-3 9 -16 13.5t-28 4.5v-21q0 -48 14.5 -85.5t54.5 -72.5l24 -31q33 -34 45 -60.5t22 -55.5v-15t4 -22q0 -10 2.5 -18t10.5 -22q8 -13 4 -28.5t-17 -23.5q-10 -13 -26.5 -19.5
t-35.5 -6.5h-585q-13 5 -23 17.5t-10 25.5q-4 14 0.5 29t19.5 24v8v14l9 35q4 27 12 44t17 35q15 12 29.5 27.5t32.5 33.5q40 35 55 67.5t15 86.5l-5 43q-13 0 -24 -11t-11 -23v-4.5t4 -15.5q6 -8 10 -16t4 -22t-15.5 -29t-36.5 -24q-26 -8 -56.5 -17t-63.5 -13
q-25 0 -44.5 15t-14.5 54q4 44 26 82t70 67q48 32 126 51t193 19q208 0 307 -52t109 -158q0 -39 -16 -54t-42 -15zM454 684q-62 0 -125.5 -7.5t-121.5 -28.5q-52 -17 -90.5 -49.5t-43.5 -86.5q0 -25 4.5 -34t15.5 -9q66 13 99.5 28t33.5 29l-13 26q-10 18 -5 33t18 28
q8 13 25.5 22t35.5 9q26 4 32.5 -24.5t2.5 -81.5q-5 -47 -27 -82t-52 -71l-36 -34q-25 -28 -36.5 -44.5t-11.5 -51.5q-4 -24 -8.5 -34t-9.5 -24q-3 -4 -3 -6v-7q-4 -3 -4 -8v-9q0 -5 6 -7t15 -2h540q48 0 58 11.5t-3 32.5q-7 13 -9 21t-7 18q0 9 -2 18t-2 15q-6 25 -15 47
t-33 47q-69 57 -88 110t-19 113q0 40 22 48.5t74 -13.5q15 -8 19.5 -17t4.5 -18q4 -9 2 -17t-2 -22q-5 -5 -7 -11t-2 -15q-4 -4 -4 -9t8 -9q11 -9 47 -17.5t66 -12.5q13 0 20 8t3 49q-10 44 -43 72t-84 45q-53 17 -116.5 24.5t-128.5 7.5zM567 570q0 -27 -20.5 -37.5
t-49.5 -10.5h-101q-26 0 -41.5 10.5t-15.5 37.5v74q48 -9 94 -13.5t112 9.5h22v-70zM449 162q-48 0 -81.5 15.5t-54.5 41.5q-26 22 -35 55t-9 63q0 34 9 65.5t35 57.5q21 27 54.5 42t81.5 15q43 0 76 -15t60 -42q22 -26 32.5 -57.5t10.5 -65.5q0 -30 -13 -63t-36 -55
q-21 -26 -54 -41.5t-76 -15.5zM526 600q-39 -4 -75.5 -4t-76.5 7v-21q0 -12 6.5 -19.5t20.5 -7.5h96q0 5 5 5h9h4h8l1.5 3t1.5 7v30zM449 487q-39 0 -65.5 -13.5t-44.5 -30.5q-17 -22 -25.5 -48.5t-8.5 -51.5q0 -31 8.5 -57.5t25.5 -44.5q18 -22 44.5 -35t65.5 -13
q65 0 105 46t40 98q0 63 -40 106.5t-105 43.5z" />
    <glyph glyph-name="uni261C" unicode="&#x261c;" horiz-adv-x="910" 
d="M763 289v24q-13 0 -23 -3.5t-21 -3.5q-9 -4 -19 -8.5t-18 -8.5q-28 -9 -62.5 -17t-88.5 -10q-20 0 -40.5 1t-36.5 7h-14.5h-8.5h-11h-10q-36 0 -60 13.5t-20 39.5q-30 10 -47.5 18.5t-21.5 16.5q-10 9 -7 20.5t7 18.5q-30 18 -42 40t15 47q-21 0 -38.5 2.5t-36.5 2.5
h-35.5h-33.5q-37 4 -51 18t-14 26q0 17 14 32.5t47 15.5q96 18 192 25t197 7q36 3 64 1.5t50 -6.5q18 0 35.5 -4.5t29.5 -10.5l41 -24q11 -4 25 -11.5t39 -15.5h4v39h107v-292h-107zM838 550h-40v-232h40v232zM567 581q-4 5 -15 5h-26q-51 0 -101.5 -2.5t-102.5 -6.5
q-53 -5 -114.5 -11t-129.5 -16q-19 0 -22 -6.5t-3 -10.5l12.5 -6t36.5 -6l193 -5q5 0 11.5 2.5t15.5 2.5q4 0 10.5 -2.5t15.5 -6.5q5 4 9 6.5t9 6.5q4 3 8 5.5t13 2.5q5 9 14 16t21 7q13 13 46 19t99 6zM763 512q-17 4 -30.5 8.5t-26.5 7.5q-11 5 -25.5 11t-26.5 11
q-8 6 -14.5 10.5t-16.5 8.5q-4 0 -12.5 4t-12.5 4v-21l-119 -11q-16 0 -30 -4t-18 -13q-12 -3 -28 -14.5t-29 -24.5l-44 -39q-13 -4 -15 -8.5t2 -4.5q5 -4 13.5 -2t17.5 2q18 0 35.5 6.5t30.5 15.5q5 4 8.5 11t12.5 11q3 3 11 5.5t21 2.5q8 0 16.5 -2.5t17.5 -2.5
q10 -3 17.5 -3h22.5q13 3 23.5 -3t-1.5 -19q12 -22 38.5 -45.5t74.5 -38.5l-5 -22q-48 8 -84.5 35t-60.5 66q-12 5 -13.5 5t-1.5 -5v0q20 -8 25 -21.5t-5 -30.5q19 -12 19 -30.5t-9 -30.5q-10 -18 -27 -31t-27 -21q14 0 23 -2.5t16 -2.5q59 9 92 17t53 17q24 15 43.5 21.5
t48.5 6.5v166zM291 415l-4.5 6.5l-4.5 6.5q-9 9 -6.5 17.5t11.5 17.5q8 9 17 15t18 6v0h-5h-12q-32 0 -45 -12.5t-9 -25.5q0 -6 11 -14t29 -17zM470 454h-7.5h-8.5q-16 -8 -28 -14.5t-25 -15.5q-14 -5 -27 -12t-30 -10h13q25 0 53 15.5t60 32.5v2v2zM487 433
q-38 -31 -66.5 -46.5t-59.5 -15.5q-17 0 -34.5 4.5t-31.5 8.5h-13v-9q9 -14 35.5 -19.5t48.5 -5.5q48 3 84.5 23.5t60.5 50.5v4q0 5 -7 7t-17 -2zM514 375q-22 -14 -61 -33t-79 -24h-13v0v-5q0 -4 17.5 -10t43.5 -6q13 0 29 6t28 20q13 10 24 20t16 18l4 10q0 4 -4.5 6.5
t-4.5 -2.5z" />
    <glyph glyph-name="uni261E" unicode="&#x261e;" horiz-adv-x="910" 
d="M870 538q-5 -12 -22.5 -23.5t-44.5 -15.5h-39h-34q-20 0 -37 -2.5t-36 -2.5q19 -25 9.5 -47t-38.5 -40q5 -7 5 -18.5t-5 -20.5q-9 -8 -24 -16.5t-46 -18.5q0 -26 -23.5 -39.5t-52.5 -13.5h-18h-10h-10.5h-8.5q-21 -6 -39 -7t-35 -1q-56 2 -93 10t-65 17
q-16 13 -36.5 18.5t-40.5 5.5v-24h-101v292h101v-39h4q20 8 36 15.5t28 11.5l44 24q13 6 26.5 10.5t35.5 4.5q22 5 50 6.5t69 -1.5q95 0 197.5 -10t199.5 -22q26 0 40 -15.5t14 -37.5zM550 412h4q-23 3 -38 10t-29 12q-12 9 -25 15.5t-27 14.5h-11h-2l-1.5 -2l-1.5 -2
q25 -17 58.5 -32.5t57.5 -15.5h15zM589 494h-19h-3v0q12 -3 29 -20.5t11 -35.5l-2.5 -4.5l-2.5 -4.5q11 5 23.5 13t16.5 14q0 13 -16 25.5t-37 12.5zM287 587q-14 -5 -27 -11t-26 -16q-31 -13 -53 -21t-55 -17v-166q12 0 22.5 -2.5t25.5 -6.5q8 -4 20.5 -9t26.5 -10
q17 -9 48 -17t92 -17q5 0 15.5 2.5t24.5 2.5q-14 8 -31 21t-26 31q-10 12 -10 30.5t23 30.5q-9 17 -6.5 30.5t27.5 21.5v0q0 5 -6 5t-6 -5q-27 -39 -64 -66t-85 -35l-4 22q48 15 74 38.5t39 45.5q-13 13 -2.5 19t24.5 3h15.5t18.5 3q10 0 21 2.5t19 2.5q9 0 15.5 -2.5
t11.5 -5.5q9 -4 13.5 -11t12.5 -11q12 -9 30 -15.5t36 -6.5q9 0 17.5 -2t11.5 2q5 0 5 4.5t-12 8.5l-44 39q-8 4 -17.5 11t-19.5 12q-7 4 -15.5 10t-12.5 6q-5 9 -16.5 13t-27.5 4l-123 11v21zM811 560q-72 10 -135 16t-113 11q-52 4 -100.5 6.5t-96.5 2.5h-26.5t-17.5 -5
q65 0 98.5 -6t46.5 -19q12 0 18.5 -7t15.5 -16q6 0 9.5 -2.5t8.5 -5.5q4 -4 8 -6.5t14 -6.5q4 4 10.5 6.5t11.5 2.5q7 0 14.5 -2.5t16.5 -2.5l193 5q24 0 35 6l11 6q0 4 -3.5 10.5t-18.5 6.5zM594 394q-9 0 -18 -4.5t-13 -4.5q-9 -4 -18.5 -4h-13.5q-39 0 -66 15.5t-64 46.5
q-14 4 -16.5 2t-2.5 -7v-4q14 -30 51 -50.5t90 -23.5q22 0 46.5 5.5t37.5 19.5q0 9 -2.5 9h-10.5zM531 328h-17q-47 5 -82.5 24t-57.5 33q-4 5 -4 2.5v-6.5v-10q4 -15 34.5 -39.5t65.5 -24.5q27 0 41.5 6t19.5 10v5v0zM93 560h-40v-232h40v232z" />
    <glyph glyph-name="female" unicode="&#x2640;" horiz-adv-x="910" 
d="M409 752q-28 0 -50 -10t-38 -25q-21 -21 -26.5 -42.5t-5.5 -46.5q0 -23 5.5 -46.5t26.5 -36.5q16 -20 38 -27.5t50 -7.5q23 0 45 7.5t38 27.5q16 13 25.5 36.5t9.5 46.5q0 25 -9.5 46.5t-25.5 42.5q-16 15 -38 25t-45 10zM443 445v-119h243v-67h-243v-279h-70v279h-244
v67h244v119q-36 5 -62 21t-50 44q-23 23 -33.5 53t-10.5 65q0 37 14 72.5t42 63.5q24 24 60 40t76 16q34 0 68.5 -16t62.5 -40q27 -28 41 -63.5t14 -72.5q0 -35 -9.5 -65t-33.5 -53q-25 -28 -50.5 -44t-58.5 -21z" />
    <glyph glyph-name="male" unicode="&#x2642;" horiz-adv-x="910" 
d="M409 295q-28 0 -50 -10t-38 -26q-21 -20 -26.5 -41.5t-5.5 -46.5q0 -23 5.5 -45t26.5 -39q16 -19 38 -27t50 -8q23 0 45 8t38 27q16 17 25.5 39t9.5 45q0 25 -9.5 46.5t-25.5 41.5q-16 16 -38 26t-45 10zM373 359v329l-188 -226l-44 44l268 318l267 -323l-48 -44
l-185 231v-329q33 -8 58.5 -24t50.5 -40q24 -28 33.5 -58t9.5 -66q0 -40 -14 -73.5t-41 -56.5q-28 -29 -62.5 -43t-68.5 -14q-40 0 -76 14t-60 43q-28 23 -42 56.5t-14 73.5q0 36 10.5 66t33.5 58q24 24 50 40t62 24z" />
    <glyph glyph-name="spade" unicode="&#x2660;" horiz-adv-x="910" 
d="M613 223q-19 0 -47.5 9.5t-54.5 26.5q0 -24 5.5 -43.5t16.5 -40.5q4 -8 8.5 -15.5t12.5 -11.5q4 -9 8 -15t11 -13v-33h-219v28q5 12 9 18t8 15q8 8 12 15.5t7 15.5q8 21 14 36.5t11 39.5q-21 -9 -36.5 -16.5t-31.5 -11.5t-28 -6t-16 -6q-15 0 -39.5 8t-43.5 23
q-25 17 -38 45t-13 72q0 36 13 67.5t49 79.5q13 23 35 53t49 65q28 37 64 80.5t80 94.5q83 -103 138 -172t91 -121q34 -48 49.5 -84t15.5 -71q0 -60 -39.5 -96t-100.5 -36z" />
    <glyph glyph-name="uni2661" unicode="&#x2661;" horiz-adv-x="910" 
d="M463 48q-61 60 -116.5 123.5t-98.5 135.5q-43 71 -69.5 144.5t-26.5 145.5q0 71 41.5 121t113.5 50q64 0 97.5 -29.5t58.5 -90.5q19 61 51 90.5t99 29.5q29 0 56 -10t53 -34q18 -24 32.5 -57.5t14.5 -85.5q0 -67 -30 -139t-74 -139q-44 -68 -99 -133.5t-103 -121.5z
M605 712q-28 0 -43.5 -12t-28.5 -32q-11 -20 -16.5 -41.5t-10.5 -45.5q-8 -19 -19.5 -33.5t-27.5 -14.5q-17 0 -30.5 10.5t-18.5 33.5q-8 20 -12 43.5t-15 44.5q-8 19 -24 33t-40 14q-59 0 -83 -35.5t-24 -95.5q0 -59 24 -120.5t59 -118.5q40 -59 84 -111t84 -96
q30 40 72 94t82 109q35 56 63.5 116t28.5 111q0 63 -24.5 105t-79.5 42z" />
    <glyph glyph-name="club" unicode="&#x2663;" horiz-adv-x="910" 
d="M645 215q-63 0 -105 35t-51 92q-3 0 -5 -11.5t2 -40.5q3 -55 25 -100.5t51 -81.5v-28h-208v32q25 36 45 79.5t32 98.5q0 25 -2 36.5l-2 11.5q-12 -59 -58 -91t-102 -32q-44 0 -73 13.5t-51 34.5q-18 22 -28.5 50.5t-10.5 56.5q0 33 10.5 60t32.5 48q22 23 51 35t73 12
q36 0 66 -12t42 -28q4 0 6 4l2 4q-52 21 -75.5 70.5t-16.5 104.5q8 53 46 92.5t118 39.5q70 0 109.5 -39.5t44.5 -92.5q8 -55 -16 -104.5t-75 -74.5l2 -3.5l2 -3.5q16 15 44 29t78 14q38 0 67 -14t51 -33q18 -24 30 -51.5t12 -56.5q0 -28 -12 -56.5t-30 -50.5
q-22 -21 -51 -34.5t-70 -13.5z" />
    <glyph glyph-name="uni2664" unicode="&#x2664;" horiz-adv-x="910" 
d="M608 215q-14 0 -36 6t-50 21q4 -35 14 -66.5t33 -67.5v-28h-219v24q13 27 25 63t23 72q-19 -8 -35 -14t-28 -10q-12 0 -22 -2t-18 -6q-16 0 -38 8t-45 24q-21 16 -34 44t-13 72q0 35 13 68.5t49 82.5q12 23 34.5 53l49.5 66q28 36 63.5 79.5t79.5 95.5
q83 -104 140.5 -175t93.5 -119q34 -52 49.5 -88t15.5 -71q0 -62 -41.5 -97t-103.5 -35zM613 518q-19 22 -37 46.5t-39 52.5q-19 24 -39 51.5t-39 55.5q-25 -28 -47 -55.5t-41 -51.5q-21 -28 -38.5 -52.5t-33.5 -46.5q-36 -44 -57.5 -84t-21.5 -75q0 -44 20 -72t55 -32
q12 0 26 4t29 12q17 8 28.5 18t23.5 14q25 4 36 -8t8 -40q0 -13 -4 -26.5t-8 -25.5q-3 -16 -9 -31.5t-10 -40.5h96q-25 36 -32.5 68t-7.5 56q0 28 7.5 38t27.5 10q12 0 19.5 -6.5t11.5 -11.5q5 0 15 -3t17 -7q8 -4 18.5 -6t20.5 -6q9 0 24.5 4t27.5 16q18 7 27 26.5t9 45.5
q0 31 -24 71t-59 92z" />
    <glyph glyph-name="heart" unicode="&#x2665;" horiz-adv-x="910" 
d="M459 60q-61 60 -114.5 123t-96.5 136q-43 67 -69.5 138.5t-26.5 144.5q0 75 41.5 124.5t113.5 49.5q64 0 95.5 -29.5t56.5 -85.5q16 56 49.5 85.5t99.5 29.5q30 0 55 -10t51 -34q18 -23 32.5 -59t14.5 -89q0 -62 -30.5 -132t-74.5 -137q-43 -73 -96.5 -136.5
t-100.5 -118.5z" />
    <glyph glyph-name="uni2667" unicode="&#x2667;" horiz-adv-x="910" 
d="M652 200q-35 0 -64.5 11.5t-50.5 30.5q-8 9 -9.5 6.5t-1.5 -9.5q-4 -8 -0.5 -28t7.5 -32l13 -44l8 -23v-32h-195v32q0 8 2 13.5t6 13.5q0 5 2 11t6 14q4 15 8 33t7 34q0 8 -1.5 11.5l-1.5 3.5h-4t-8 -7q-28 -20 -54 -31.5t-61 -11.5q-33 0 -60.5 11.5t-47.5 31.5t-32 52
t-12 72q0 31 10.5 59t24.5 48q22 23 49.5 35.5t63.5 12.5q11 0 25 -2t30 -6q12 -4 25.5 -10.5t30.5 -14.5q4 0 8 4t0 8q-32 25 -56 62.5t-24 88.5q0 29 8 56.5t32 47.5q19 20 49.5 34t74.5 14q34 0 62.5 -14t47.5 -34q21 -24 32.5 -51.5t11.5 -59.5q0 -52 -23.5 -84
t-47.5 -56q-9 -12 -4.5 -15.5t16.5 -0.5q23 21 49.5 29t61.5 8t61.5 -14.5t45.5 -33.5q16 -24 26 -52t10 -56q0 -32 -14 -63.5t-33 -51.5q-25 -24 -52 -37.5t-57 -13.5zM660 474q-18 0 -30.5 -4t-24.5 -8q-11 -8 -25 -14t-26 -10q-17 -8 -32.5 -6t-28.5 13q-11 12 -13 30
t9 39q13 15 26.5 27.5t21.5 27.5q13 15 19 31.5t6 40.5q0 20 -10 37.5t-23 33.5q-14 16 -32.5 24t-37.5 8q-44 0 -76.5 -24t-32.5 -72q0 -20 4.5 -35.5t12.5 -31.5q8 -12 19.5 -24t23.5 -28l4.5 -3.5t8.5 -7.5t7.5 -8t7.5 -9q4 -16 2 -31.5t-9 -24.5q-12 -11 -26.5 -15
t-29.5 0q-8 4 -14.5 6t-13.5 6q-8 0 -13.5 4t-10.5 4q-12 7 -28 11.5t-39 4.5q-36 0 -65.5 -28t-29.5 -75q0 -29 7.5 -51t22.5 -33q18 -16 35.5 -22t36.5 -6q32 0 59.5 17t60.5 43q27 27 41 17.5t18 -45.5q0 -32 -5.5 -68t-17.5 -88h70q-3 12 -5 30t-6 39q-3 19 -5 39t2 40
q0 44 13.5 55.5t53.5 -27.5q27 -24 51 -38t59 -14q18 0 33 8t33 24q14 12 24.5 33.5t10.5 49.5q0 56 -28.5 82t-64.5 26z" />
    <glyph glyph-name="uni2668" unicode="&#x2668;" horiz-adv-x="910" 
d="M598 307q-23 -27 -33.5 -51.5t-14.5 -58.5h-15q-9 27 -10.5 46.5t1.5 41.5q5 18 10 40t9 43q0 13 4.5 28.5t4.5 28.5t-2 24t-7 24q0 9 -5 19.5t-5 24.5q-4 14 -6.5 22t-5.5 21q-4 15 -4 29v29q0 22 3.5 36.5t8.5 33.5q10 18 18.5 33t17.5 29q0 12 4 25t8 31h19
q4 -27 4 -48.5t-4 -44.5q0 -21 -4.5 -43t-4.5 -47q0 -27 4.5 -51.5t13.5 -49.5q6 -23 13.5 -47.5t7.5 -49.5q0 -35 -9 -63.5t-21 -54.5zM470 303q-16 -29 -27.5 -52.5t-16.5 -57.5h-21q-9 26 -6.5 46t6.5 41q5 19 11 38t15 45q0 14 2 27.5t2 24.5q0 19 -4.5 41t-11.5 43
q-5 23 -11.5 42t-11.5 38q-14 47 -4.5 82t34.5 75q12 30 17.5 52t10.5 62l16 -6q12 -38 14.5 -64t-2.5 -54q-7 -20 -11 -47t-4 -53v-26t3 -21q5 -13 7 -24.5t10 -23.5q10 -23 18.5 -47t8.5 -59q0 -31 -16 -61.5t-28 -60.5zM348 307q-9 -13 -17.5 -24t-13.5 -24
q-4 -13 -8 -28.5t-4 -33.5h-18q-9 27 -9 46.5v36.5q4 23 8.5 43t13.5 40q0 14 4.5 31.5t4.5 30.5t-2 24t-7 24q-5 9 -7 19.5t-2 19.5q-9 26 -13.5 52.5t-4.5 61.5q0 22 4.5 37.5t9.5 32.5q8 14 15 29.5t15 28.5q5 12 9 23t8 29h19q4 -27 4 -48.5t-4 -44.5q-5 -21 -7 -43
t-2 -47q0 -27 4.5 -53.5t12.5 -52.5q5 -26 11 -52.5t6 -52.5q0 -27 -8.5 -53t-21.5 -52zM449 66q-83 0 -153 13.5t-118 34.5q-52 27 -81 62t-29 79q0 57 59.5 98t150.5 62l4 -15q-61 -23 -102.5 -55.5t-41.5 -70.5q0 -43 67.5 -75t232.5 -32q63 0 122 8.5t102 21.5
q44 18 70.5 40t26.5 48q0 14 -10 28.5t-30 29.5q-18 13 -40 25.5t-37 21.5l12 17q32 -7 62 -21.5t51 -29.5q27 -19 43 -42.5t16 -50.5q0 -79 -94 -138t-283 -59z" />
    <glyph glyph-name="uni2669" unicode="&#x2669;" horiz-adv-x="910" 
d="M497 269q0 -22 -13.5 -48t-29.5 -47q-23 -27 -47.5 -42.5t-49.5 -15.5q-40 0 -57.5 21.5t-4.5 48.5q5 26 29 50.5t63 37.5q5 7 18.5 7h25.5q7 0 12.5 3t5.5 12v560h48v-587z" />
    <glyph glyph-name="musicalnote" unicode="&#x266a;" horiz-adv-x="910" 
d="M563 291l-22 18q22 15 45.5 39.5t41.5 52.5q18 20 28 45t10 47q0 35 -16.5 59t-42.5 41q-18 12 -31 24l-26 24q-19 9 -31 22t-27 22v-416q0 -26 -14.5 -54.5t-33.5 -55.5q-22 -22 -48 -37t-52 -15q-39 0 -57 22t-5 49q5 25 26.5 49.5t57.5 33.5q12 13 30 13h39l7 1.5
t7 5.5v597h18q12 -22 23 -40t24 -31q9 -13 18 -22l13 -13q34 -26 71.5 -56.5t69.5 -62.5q44 -51 46 -103.5t-22 -99.5q-20 -49 -61.5 -90.5t-85.5 -68.5z" />
    <glyph glyph-name="uni266C" unicode="&#x266c;" horiz-adv-x="910" 
d="M724 353q0 -18 -12.5 -45t-35.5 -52q-22 -25 -45.5 -43t-51.5 -18q-25 0 -45 15.5t-20 32.5q-3 22 4.5 46t26.5 41q18 23 40 35.5t43 17.5q5 4 14 4h12q12 6 17 8t5 6v196l-363 -83v-233q0 -29 -13 -62t-39 -60q-23 -25 -55 -42.5t-72 -17.5q-28 0 -42 17.5t-6 42.5
q0 27 13 44.5t35 30.5q16 18 40.5 26.5t46.5 13.5q10 3 16 3t14 4q6 6 10 12.5t4 19.5v447l459 104v-511zM676 742l-363 -83v-34l363 87v30z" />
    <glyph glyph-name="uni266D" unicode="&#x266d;" horiz-adv-x="910" 
d="M330 147v665h57v-268q39 41 85.5 51t85.5 2q40 -9 68 -39t28 -79q0 -52 -22 -104.5t-62 -97.5q-44 -46 -102 -79.5t-138 -50.5zM492 544q-29 0 -60 -19t-45 -46v-271q32 18 62 43.5t58 61.5q19 31 35 68t16 73q0 39 -22 64.5t-44 25.5z" />
    <glyph glyph-name="uni3001" unicode="&#x3001;" horiz-adv-x="910" 
d="M255 22q-88 96 -178 160l50 61q118 -70 197 -157z" />
    <glyph glyph-name="uni3002" unicode="&#x3002;" horiz-adv-x="910" 
d="M71 149q0 46 32 80q13 17 33.5 26.5t45.5 9.5q22 0 42 -9t36 -26q14 -16 23 -37t9 -44t-9 -44.5t-23 -36.5q-16 -16 -36 -25.5t-42 -9.5q-49 0 -80 34q-31 31 -31 82v0zM120 148q0 -26 18.5 -45.5t43.5 -19.5q23 0 42 19.5t19 45.5q0 28 -19 47t-42 19q-25 0 -43.5 -19
t-18.5 -47v0z" />
    <glyph glyph-name="uni3003" unicode="&#x3003;" horiz-adv-x="910" 
d="M487 219h-66l98 335h96zM300 554h92l-127 -335h-64z" />
    <glyph glyph-name="uni3008" unicode="&#x3008;" horiz-adv-x="412" 
d="M298 772l64 -32l-204 -337l208 -339l-59 -36l-228 375z" />
    <glyph glyph-name="uni3009" unicode="&#x3009;" horiz-adv-x="412" 
d="M116 772l218 -369l-225 -375l-61 36l207 339l-203 337z" />
    <glyph glyph-name="uni300A" unicode="&#x300a;" horiz-adv-x="490" 
d="M388 772l64 -32l-204 -337l208 -339l-59 -36l-228 375zM245 772l65 -32l-203 -337l207 -339l-61 -36l-226 375z" />
    </font>
</defs>
</svg>
