<svg width="20" height="23" fill="none" xmlns="http://www.w3.org/2000/svg"><path d="m8.873 11.15-8.79 9.34a2.375 2.375 0 0 0 3.5 1.43l.024-.016 9.888-5.711-4.63-5.05.008.007Z" fill="#EA4335"/><path d="M17.762 9.563h-.008l-4.268-2.488-4.811 4.29 4.828 4.836 4.25-2.455A2.382 2.382 0 0 0 19 11.655a2.35 2.35 0 0 0-1.238-2.083v-.009Z" fill="#FBBC04"/><path d="M.083 2.769A2.46 2.46 0 0 0 0 3.38v16.498c0 .215.025.413.083.612l9.087-9.1L.083 2.768Z" fill="#4285F4"/><path d="m8.939 11.63 4.547-4.555-9.88-5.736A2.385 2.385 0 0 0 .083 2.76l8.857 8.86v.009Z" fill="#34A853"/></svg>