<?xml version="1.0" encoding="UTF-8"?>
<svg width="63px" height="73px" viewBox="0 0 63 73" version="1.1" xmlns="http://www.w3.org/2000/svg" xmlns:xlink="http://www.w3.org/1999/xlink">
    <title>5BB00FA0-AFA8-4466-95A3-FE0B77C0FF27</title>
    <defs>
        <filter x="-21.2%" y="-50.8%" width="142.4%" height="201.7%" filterUnits="objectBoundingBox" id="filter-1">
            <feMorphology radius="3" operator="erode" in="SourceAlpha" result="shadowSpreadOuter1"></feMorphology>
            <feOffset dx="0" dy="26" in="shadowSpreadOuter1" result="shadowOffsetOuter1"></feOffset>
            <feGaussianBlur stdDeviation="11.5" in="shadowOffsetOuter1" result="shadowBlurOuter1"></feGaussianBlur>
            <feColorMatrix values="0 0 0 0 0.550478113   0 0 0 0 0.555778381   0 0 0 0 0.651183197  0 0 0 0.647508741 0" type="matrix" in="shadowBlurOuter1" result="shadowMatrixOuter1"></feColorMatrix>
            <feMerge>
                <feMergeNode in="shadowMatrixOuter1"></feMergeNode>
                <feMergeNode in="SourceGraphic"></feMergeNode>
            </feMerge>
        </filter>
    </defs>
    <g id="aa" stroke="none" stroke-width="1" fill="none" fill-rule="evenodd">
        <g id="aaa" transform="translate(-551.000000, -647.000000)" fill="#C6C8C9" fill-rule="nonzero">
            <g id="sub_MG_list_04-Copy-20" filter="url(#filter-1)" transform="translate(356.000000, 532.000000)">
                <g id="Group-12" transform="translate(171.201835, 36.000000)">
                    <g id="aaaaa" transform="translate(45.000000, 79.000000)">
                        <path d="M10.8493736,5.72727275 C11.9361896,5.72727275 13.2985363,4.96994737 14.1098215,3.96018032 C14.8445703,3.04507884 15.3803246,1.76709243 15.3803246,0.489105886 C15.3803246,0.31555221 15.3650174,0.141998533 15.3344028,-1.69561335e-15 C14.1251287,0.0473328445 12.6709384,0.836213368 11.7984242,1.89331326 C11.1095972,2.69797148 10.4819992,3.96018032 10.4819992,5.25394443 C10.4819992,5.44327568 10.5126139,5.63260706 10.5279211,5.69571747 C10.6044574,5.71149518 10.7269155,5.72727275 10.8493736,5.72727275 Z M7.02255707,24.8181818 C8.50736188,24.8181818 9.16557441,23.7926371 11.0177536,23.7926371 C12.9005475,23.7926371 13.3138436,24.7866265 14.9670284,24.7866265 C16.5895987,24.7866265 17.6764147,23.2404208 18.7020015,21.7257701 C19.8500465,19.9902329 20.3245718,18.286251 20.3551863,18.2073629 C20.2480355,18.1758077 17.1406603,16.8662659 17.1406603,13.1900826 C17.1406603,10.0030053 19.589823,8.56724263 19.7275883,8.45679937 C18.1050182,6.05860253 15.6405482,5.99549211 14.9670284,5.99549211 C13.1454638,5.99549211 11.6606588,7.13148012 10.7269155,7.13148012 C9.71663602,7.13148012 8.38490374,6.05860253 6.8082552,6.05860253 C3.80803092,6.05860253 0.761884904,8.61457548 0.761884904,13.4425244 C0.761884904,16.4402704 1.89462264,19.6115702 3.28758398,21.6626596 C4.48155066,23.3981969 5.5224448,24.8181818 7.02255707,24.8181818 Z" id=""></path>
                    </g>
                </g>
            </g>
        </g>
    </g>
</svg>