<?xml version="1.0" encoding="UTF-8"?>
<svg width="186px" height="68px" viewBox="0 0 186 68" version="1.1" xmlns="http://www.w3.org/2000/svg" xmlns:xlink="http://www.w3.org/1999/xlink">
    <title>앱스토어 오버</title>
    <g id="Page-1" stroke="none" stroke-width="1" fill="none" fill-rule="evenodd">
        <g id="리소스수정" transform="translate(-554.000000, -186.000000)">
            <g id="앱스토어-오버" transform="translate(554.000000, 186.000000)">
                <rect id="Rectangle" fill="#272727" x="0" y="0" width="186" height="68" rx="6"></rect>
                <g id="Group-5" transform="translate(41.687500, 22.400000)" fill="#FFFFFF" fill-rule="nonzero">
                    <path d="M9.26718744,5.26153848 C10.265625,5.26153848 11.5171874,4.5657978 12.2625,3.63814368 C12.9375,2.79745704 13.4296874,1.6233948 13.4296874,0.44933244 C13.4296874,0.28989192 13.415625,0.1304514 13.3875,0 C12.2765624,0.0434838 10.940625,0.7682136 10.1390624,1.73935152 C9.50625,2.478576 8.92968744,3.63814368 8.92968744,4.8267006 C8.92968744,5.00063568 8.95781256,5.17457088 8.971875,5.23254924 C9.04218744,5.24704392 9.15468744,5.26153848 9.26718744,5.26153848 Z M5.75156256,22.8 C7.115625,22.8 7.72031256,21.8578512 9.421875,21.8578512 C11.1515626,21.8578512 11.53125,22.7710108 13.05,22.7710108 C14.540625,22.7710108 15.5390626,21.3505404 16.48125,19.9590592 C17.5359374,18.3646535 17.971875,16.7992372 18,16.7267641 C17.9015626,16.697775 15.046875,15.4947234 15.046875,12.1174825 C15.046875,9.18957408 17.296875,7.87056576 17.4234374,7.7691036 C15.9328126,5.56592496 13.66875,5.5079466 13.05,5.5079466 C11.3765626,5.5079466 10.0125,6.55155756 9.15468744,6.55155756 C8.22656256,6.55155756 7.003125,5.56592496 5.55468744,5.56592496 C2.79843744,5.56592496 0,7.91404956 0,12.3493961 C0,15.1033693 1.040625,18.0167832 2.32031256,19.9010807 C3.41718744,21.4954864 4.37343744,22.8 5.75156256,22.8 Z" id=""></path>
                    <path d="M50.7601091,12.59 L50.7601091,5.225 L49.2901091,5.225 L49.2901091,8.195 L47.8651091,8.195 L47.8651091,5.465 L46.4101091,5.465 L46.4101091,12.5 L47.8651091,12.5 L47.8651091,9.455 L49.2901091,9.455 L49.2901091,12.59 L50.7601091,12.59 Z M42.4651091,12.155 C44.2801091,12.155 45.5701091,10.88 45.5701091,9.05 C45.5701091,7.22 44.2801091,5.945 42.4651091,5.945 C40.6651091,5.945 39.3901091,7.22 39.3901091,9.05 C39.3901091,10.88 40.6651091,12.155 42.4651091,12.155 Z M42.4651091,10.895 C41.4901091,10.895 40.7851091,10.16 40.7851091,9.05 C40.7851091,7.925 41.4901091,7.205 42.4651091,7.205 C43.4551091,7.205 44.1751091,7.925 44.1751091,9.05 C44.1751091,10.16 43.4551091,10.895 42.4651091,10.895 Z M50.7601091,18.59 L50.7601091,13.175 L49.2451091,13.175 L49.2451091,14.63 L43.2751091,14.63 L43.2751091,13.175 L41.7451091,13.175 L41.7451091,18.59 L50.7601091,18.59 Z M49.2451091,17.345 L43.2751091,17.345 L43.2751091,15.83 L49.2451091,15.83 L49.2451091,17.345 Z M64.0034424,13.1 L64.6784424,11.825 C62.0084424,11.345 59.8334424,9.26 59.8334424,7.1 L59.8334424,6.08 L58.1984424,6.08 L58.1984424,7.1 C58.1984424,9.245 56.0234424,11.33 53.3534424,11.825 L54.0134424,13.1 C56.2184424,12.65 58.1234424,11.24 59.0084424,9.38 C59.8934424,11.24 61.7984424,12.65 64.0034424,13.1 Z M65.2034424,17.015 L65.2034424,15.74 L52.9334424,15.74 L52.9334424,17.015 L65.2034424,17.015 Z M78.8367758,17.165 L78.8367758,15.89 L73.4667758,15.89 L73.4667758,13.34 L77.4717758,13.34 L77.4717758,12.11 L69.6567758,12.11 L69.6567758,10.34 L77.0517758,10.34 L77.0517758,9.125 L69.6567758,9.125 L69.6567758,7.49 L77.3517758,7.49 L77.3517758,6.23 L68.0817758,6.23 L68.0817758,13.34 L71.9067758,13.34 L71.9067758,15.89 L66.5667758,15.89 L66.5667758,17.165 L78.8367758,17.165 Z M91.4501091,18.785 L91.4501091,5.195 L89.8901091,5.195 L89.8901091,10.25 L87.2501091,10.25 C87.0401091,7.76 85.6601091,6.2 83.8451091,6.2 C81.8501091,6.2 80.4251091,8.06 80.4251091,10.97 C80.4251091,13.91 81.8501091,15.755 83.8451091,15.755 C85.7051091,15.755 87.0851091,14.135 87.2651091,11.51 L89.8901091,11.51 L89.8901091,18.785 L91.4501091,18.785 Z M83.8451091,14.375 C82.6901091,14.375 81.8951091,13.115 81.8951091,10.97 C81.8951091,8.87 82.6901091,7.595 83.8451091,7.595 C85.0151091,7.595 85.8101091,8.87 85.8101091,10.97 C85.8101091,13.115 85.0151091,14.375 83.8451091,14.375 Z" id="앱스토어"></path>
                </g>
            </g>
        </g>
    </g>
</svg>