<svg width="186" height="68" fill="none" xmlns="http://www.w3.org/2000/svg"><g clip-path="url(#btn-playstore-on__a)"><path d="M180 0H6a6 6 0 0 0-6 6v56a6 6 0 0 0 6 6h174a6 6 0 0 0 6-6V6a6 6 0 0 0-6-6Z" fill="#272727"/><path d="M79.705 41.155V35.5h5.4v-1.275h-1.89c.345-1.92.345-3.33.345-4.605v-1.185h-9.24v1.245h7.725c0 1.245 0 2.655-.39 4.545H72.85V35.5h5.295v5.655h1.56Zm19.048-7.38V32.53h-1.815c.261-1.32.283-2.388.285-3.238v-1.127h-9.195v1.245h7.68c0 .84-.045 1.83-.315 3.12h-8.91v1.245h12.27Zm-1.17 7.245v-1.215h-8.115V38.53h7.77v-3.6h-9.345v1.23h7.8v1.215h-7.77v3.645h9.66Zm13.573-8.475v-1.17h-1.83v-2.19h1.905V28h-10.035v1.185h1.92v2.19h-1.845v1.17h9.885Zm-3.375-1.17h-3.12v-2.19h3.12v2.19Zm4.59 3.345v-1.23h-12.27v1.23h12.27Zm-1.155 6.315V39.88h-8.1v-1.02h7.71v-3.15h-9.27v1.14h7.755v.945h-7.725v3.24h9.63Zm14.084.12V27.61h-1.47v13.545h1.47Zm-2.775-.675V27.91h-1.44v4.44h-1.53v1.275h1.53v6.855h1.44ZM115.1 37.9c1.695 0 3.21-.045 5.04-.36l-.135-1.275c-1.59.27-2.925.345-4.35.36v-2.67h3.3v-4.92h-4.815v1.245h3.33v2.43h-3.3v5.19h.93Zm23.428 3.285v-13.59h-1.56v13.59h1.56Zm-7.215-3.03c2.025 0 3.495-1.845 3.495-4.785 0-2.91-1.47-4.77-3.495-4.77-2.01 0-3.48 1.86-3.48 4.77 0 2.94 1.47 4.785 3.48 4.785Zm0-1.38c-1.17 0-1.995-1.275-1.995-3.405 0-2.1.825-3.375 1.995-3.375 1.185 0 2.01 1.275 2.01 3.375 0 2.13-.825 3.405-2.01 3.405Z" fill="#fff"/><path d="m42.873 34.15-8.79 9.34a2.375 2.375 0 0 0 3.5 1.43l.024-.016 9.888-5.711-4.63-5.05.008.007Z" fill="#EA4335"/><path d="M51.762 32.563h-.008l-4.267-2.488-4.812 4.29 4.828 4.836 4.25-2.455A2.381 2.381 0 0 0 53 34.655a2.35 2.35 0 0 0-1.238-2.083v-.009Z" fill="#FBBC04"/><path d="M34.083 25.769c-.05.198-.083.397-.083.612v16.498c0 .215.025.413.083.612l9.087-9.1-9.087-8.622Z" fill="#4285F4"/><path d="m42.939 34.63 4.547-4.555-9.88-5.736a2.385 2.385 0 0 0-3.524 1.422l8.857 8.86v.009Z" fill="#34A853"/></g><defs><clipPath id="btn-playstore-on__a"><path fill="#fff" d="M0 0h186v68H0z"/></clipPath></defs></svg>