<?xml version="1.0" encoding="UTF-8"?>
<svg width="11px" height="12px" viewBox="0 0 11 12" version="1.1" xmlns="http://www.w3.org/2000/svg" xmlns:xlink="http://www.w3.org/1999/xlink">
    <title>3985851A-71FA-45B6-A0B5-A0A3174F8CB9</title>
    <g id="Page-1" stroke="none" stroke-width="1" fill="none" fill-rule="evenodd">
        <g id="리소스수정" transform="translate(-484.000000, -347.000000)" fill="#37AF00">
            <g id="sns-share" transform="translate(356.000000, 338.000000)">
                <g id="커뮤니티-over" transform="translate(116.000000, 0.000000)">
                    <g id="Group" transform="translate(12.000000, 3.000000)">
                        <path d="M0,6.01339462 C0.00773607826,9.83831951 0.00246147945,13.663846 0.00246147945,17.4889714 C1.2586951,17.4971927 2.51633527,17.4947865 3.77168979,17.4901745 C3.79085417,15.5936534 3.74865737,13.6955282 3.7938431,11.7992076 C4.20631673,12.4555106 4.58221981,13.1410895 5.00278115,13.7907753 C5.70588517,15.036207 6.50182213,16.2132612 7.1780257,17.4779428 C8.4428745,17.5158411 9.70754747,17.4765391 10.9727479,17.5 C10.986286,17.3203338 11,17.1414697 11,16.9614024 C10.9815389,13.3107297 11.0149447,9.6594554 10.9825938,6.00918369 C9.73128317,5.99815507 8.48120325,6.01219149 7.23077169,6.00356912 C7.22110159,7.91031674 7.24061761,9.818468 7.21987085,11.723812 C6.05787673,9.83831951 4.95970526,7.89688188 3.77028323,6.03505081 C2.51668691,5.97008223 1.25623362,6.01580086 0,6.01339462" id="Path"></path>
                    </g>
                </g>
            </g>
        </g>
    </g>
</svg>