<?xml version="1.0" encoding="UTF-8"?>
<svg width="158px" height="31px" viewBox="0 0 158 31" version="1.1" xmlns="http://www.w3.org/2000/svg" xmlns:xlink="http://www.w3.org/1999/xlink">
    <title>F77F8E37-19C6-4A09-BA96-E7E5DE2DD55B</title>
    <defs>
        <polygon id="path-1" points="0.0289753381 0.16037 19.1820595 0.16037 19.1820595 19.1857143 0.0289753381 19.1857143"></polygon>
        <polygon id="path-3" points="0.838077143 0.0838305732 5.80830571 0.0838305732 5.80830571 26.9530849 0.838077143 26.9530849"></polygon>
        <polygon id="path-5" points="0.165787143 1.0902 17.5438035 1.0902 17.5438035 28.2139471 0.165787143 28.2139471"></polygon>
    </defs>
    <g id="Page-1" stroke="none" stroke-width="1" fill="none" fill-rule="evenodd">
        <g id="리소스수정" transform="translate(-85.000000, -103.000000)">
            <g id="netmarble_ci" transform="translate(85.000000, 103.000000)">
                <path d="M14.7542657,28.0035814 C13.0693086,28.0035814 12.2838229,27.0442957 12.2838229,26.3987529 L12.2838229,16.5056957 C12.2838229,15.6581386 12.2838229,13.08161 9.57186571,13.08161 C6.60259429,13.08161 4.96955143,15.4098529 4.96955143,19.64651 L4.96955143,26.3987529 C4.96955143,27.0691243 4.10619429,28.0035814 2.49008,28.0035814 C0.86268,28.0035814 0.000451428571,27.0691243 0.000451428571,26.3987529 L0.000451428571,10.8425243 C0.000451428571,10.1597386 0.86268,9.22753857 2.49008,9.22753857 C4.10619429,9.22753857 4.96955143,10.1597386 4.96955143,10.8425243 L4.96955143,11.5185386 L5.31263714,11.2183386 C6.80009429,9.92838143 8.05845143,9.22753857 10.42958,9.22753857 C15.0239943,9.22753857 17.2540514,11.8559814 17.2540514,17.2742529 L17.2540514,26.3987529 C17.2540514,27.0442957 16.4617943,28.0035814 14.7542657,28.0035814" id="Fill-1" fill="#4A3B32"></path>
                <path d="M29.8985657,13.0819486 C28.22828,13.0819486 25.9891943,13.9532057 25.1766229,16.4101057 L25.1371229,16.5263486 L25.2319229,16.59632 C25.6675514,16.9552057 27.4292514,17.9607629 29.6931657,17.9607629 C31.5124229,17.9607629 32.7933514,17.2745914 33.1274086,16.13022 C33.3294229,15.4530771 33.2143086,14.7533629 32.81028,14.2082629 C32.4254371,13.6958914 31.6106086,13.0819486 29.8985657,13.0819486 M30.5757086,28.2522057 C26.9259086,28.2522057 23.4228229,26.6225486 21.64758,24.1080914 C19.4897514,21.0485343 19.1466657,17.2170343 20.7514943,14.1202343 C22.3653514,11.0098914 25.6867371,9.22787714 29.8590657,9.22787714 C33.9467514,9.22787714 36.8279943,10.7480629 37.76358,13.4002057 C38.5422943,15.6031771 37.7184371,18.1706771 35.70958,19.7856629 C34.4275229,20.8194343 32.3881943,21.4378914 30.2619657,21.4378914 C27.5793514,21.4378914 25.6596514,20.4616771 24.9520371,20.03282 L24.66538,19.8635343 L24.6924657,20.19872 C24.77598,21.2697343 25.4497371,24.77282 30.5226657,24.77282 C32.7594943,24.77282 35.0188943,23.9207486 36.3280371,22.6025771 C36.8020371,22.8598914 37.1202943,23.4828629 37.1349657,24.1972486 C37.1485086,24.8348914 36.9160229,26.4329486 34.4681514,27.5039629 C33.35538,27.9971486 32.0067371,28.2522057 30.5757086,28.2522057" id="Fill-3" fill="#4A3B32"></path>
                <path d="M149.387081,13.0819486 C147.716796,13.0819486 145.47771,13.9532057 144.662881,16.4101057 L144.626767,16.5263486 L144.720439,16.59632 C145.157196,16.9552057 146.917767,17.9607629 149.181681,17.9607629 C150.99981,17.9607629 152.284124,17.2745914 152.617053,16.13022 C152.820196,15.4530771 152.702824,14.7533629 152.297667,14.2082629 C151.913953,13.6958914 151.097996,13.0819486 149.387081,13.0819486 M150.064224,28.2522057 C146.413296,28.2522057 142.911339,26.6225486 141.137224,24.1080914 C138.978267,21.0485343 138.634053,17.2170343 140.238881,14.1202343 C141.852739,11.0098914 145.172996,9.22787714 149.347581,9.22787714 C153.435267,9.22787714 156.315381,10.7480629 157.252096,13.4002057 C158.03081,15.6031771 157.203567,18.1706771 155.201481,19.7856629 C153.91491,20.8194343 151.878967,21.4378914 149.752739,21.4378914 C147.070124,21.4378914 145.144781,20.4616771 144.443939,20.03282 L144.153896,19.8635343 L144.180981,20.19872 C144.265624,21.2697343 144.935996,24.77282 150.010053,24.77282 C152.243496,24.77282 154.506281,23.9207486 155.817681,22.6025771 C156.290553,22.8598914 156.607681,23.4828629 156.62461,24.1972486 C156.634767,24.8348914 156.404539,26.4329486 153.956667,27.5039629 C152.842767,27.9971486 151.495253,28.2522057 150.064224,28.2522057" id="Fill-5" fill="#4A3B32"></path>
                <path d="M47.2117543,27.9980514 C46.85174,27.9980514 46.4352971,27.9574229 45.9409829,27.88068 C40.5351257,26.5207514 40.5351257,21.27628 40.5351257,19.04058 L40.5351257,5.65798 C40.5351257,4.98196571 41.4041257,4.04863714 43.0371686,4.04863714 C44.6498971,4.04863714 45.5076114,4.98196571 45.5076114,5.65798 L45.5076114,9.22765143 L48.9711971,9.22765143 C50.88074,9.22765143 51.2407543,9.63958 51.2407543,10.4013657 C51.2407543,11.7037371 50.1437829,13.09978 48.5050971,13.09978 L45.5076114,13.09978 L45.5076114,19.0022086 C45.5076114,20.5460943 45.5076114,21.8721657 45.9466257,22.8517657 C46.4398114,23.9634086 47.4385971,24.4859371 49.0784114,24.4859371 C49.2894543,24.4859371 49.5129114,24.4735229 49.7453971,24.4577229 C49.8401971,24.79968 50.0173829,25.73188 49.4892114,26.6821371 C48.9745829,27.6301371 48.33694,27.9980514 47.2117543,27.9980514" id="Fill-7" fill="#4A3B32"></path>
                <path d="M73.0421586,27.9980514 C71.5648586,27.9980514 70.7805014,27.1527514 70.7805014,26.5421943 L70.7805014,16.5881943 C70.7805014,14.2418943 70.0277443,13.09978 68.4838586,13.09978 C66.9388443,13.09978 66.1883443,14.2418943 66.1883443,16.5881943 L66.1883443,26.5421943 C66.1883443,27.1527514 65.4039871,27.9980514 63.9312014,27.9980514 C62.4539014,27.9980514 61.6672871,27.1527514 61.6672871,26.5421943 L61.6672871,16.5881943 C61.6672871,14.2418943 60.9167871,13.09978 59.3729014,13.09978 C57.8267586,13.09978 57.0773871,14.2418943 57.0773871,16.5881943 L57.0773871,26.5421943 C57.0773871,27.1527514 56.2873871,27.9980514 54.8123443,27.9980514 C53.3395586,27.9980514 52.5552014,27.1527514 52.5552014,26.5421943 L52.5552014,16.7315229 C52.5552014,11.74888 54.84733,9.22765143 59.3729014,9.22765143 C61.2260157,9.22765143 62.7191157,9.62829429 63.80593,10.4261943 L63.9300729,10.5209943 L64.0542157,10.4261943 C65.1387729,9.62829429 66.6330014,9.22765143 68.4838586,9.22765143 C73.0049157,9.22765143 75.2981729,11.74888 75.2981729,16.7315229 L75.2981729,26.5421943 C75.2981729,27.1527514 74.5126871,27.9980514 73.0421586,27.9980514" id="Fill-9" fill="#4A3B32"></path>
                <g id="Group-13" transform="translate(77.749227, 9.067169)">
                    <mask id="mask-2" fill="white">
                        <use xlink:href="#path-1"></use>
                    </mask>
                    <g id="Clip-12"></g>
                    <path d="M9.24241343,4.03249857 C6.29458486,4.03249857 4.89741343,6.92615571 4.598342,9.40337 C4.36811343,11.3004986 4.75521343,12.97417 5.66258486,13.9921414 C6.34649914,14.7663414 7.28208486,15.1602129 8.437742,15.1602129 C10.6000849,15.1602129 12.387742,12.8421271 12.6901991,9.65504143 C12.7567849,8.95307 12.8639991,6.54244143 11.4600563,4.99968429 C10.8777134,4.35639857 10.1305991,4.03249857 9.24241343,4.03249857 M7.84298486,19.1858271 C5.66258486,19.1858271 3.65711343,18.27507 2.19787057,16.6250986 C0.494856288,14.69637 -0.243229427,12.0171414 0.119042002,9.08398429 C1.18441343,0.801398571 7.22565629,0.16037 9.05168486,0.16037 C9.92407057,0.16037 10.7964563,0.284512857 11.6440134,0.529412857 C15.3073563,1.59817 17.4064991,4.68368429 17.4064991,8.98918429 L17.4064991,11.8850986 C17.4064991,13.0746129 17.9989991,14.7426414 18.8465563,15.9298986 C19.0858134,16.2515414 19.2833134,16.7988986 19.1253134,17.35867 C18.968442,17.9150557 18.4966991,18.36197 17.7586134,18.6610414 C17.3839277,18.8156557 17.025042,18.8901414 16.693242,18.8901414 C16.0804277,18.8901414 15.5522563,18.6328271 15.0771277,18.10127 C14.686642,17.6306557 14.3379134,17.1273129 14.046742,16.6092986 L13.8740706,16.3045843 L13.6901134,16.6013986 C12.9283277,17.7909129 10.9375277,19.1858271 7.84298486,19.1858271" id="Fill-11" fill="#4A3B32" mask="url(#mask-2)"></path>
                </g>
                <path d="M101.255316,27.9980514 C99.63243,27.9980514 98.7668157,27.0568229 98.7668157,26.3774229 L98.7668157,18.8306657 C98.7668157,14.1786943 100.710216,10.8426371 104.09593,9.67908 C105.047316,9.35405143 105.744773,9.22765143 106.491887,9.22765143 C107.684787,9.22765143 108.81223,9.31906571 109.453259,10.4939086 C109.983687,11.4599657 109.803116,12.3526657 109.71283,12.6720514 C104.721159,12.7724943 103.74043,15.3343514 103.74043,19.7086943 L103.74043,26.3774229 C103.74043,27.0568229 102.875944,27.9980514 101.255316,27.9980514" id="Fill-14" fill="#4A3B32"></path>
                <g id="Group-18" transform="translate(130.914286, 1.044967)">
                    <mask id="mask-4" fill="white">
                        <use xlink:href="#path-3"></use>
                    </mask>
                    <g id="Clip-17"></g>
                    <path d="M3.31867714,26.9530849 C1.69804857,26.9530849 0.838077143,26.0118563 0.838077143,25.3324563 L0.838077143,1.67759914 C0.838077143,1.011742 1.69804857,0.0829277161 3.31867714,0.0829277161 C5.01717714,0.0829277161 5.80830571,1.035442 5.80830571,1.67759914 L5.80830571,25.3324563 C5.80830571,26.0118563 4.94269143,26.9530849 3.31867714,26.9530849" id="Fill-16" fill="#4A3B32" mask="url(#mask-4)"></path>
                </g>
                <g id="Group-21" transform="translate(111.728571, 0.038597)">
                    <mask id="mask-6" fill="white">
                        <use xlink:href="#path-5"></use>
                    </mask>
                    <g id="Clip-20"></g>
                    <path d="M9.13454429,13.2186186 C6.92818714,13.2186186 5.18003,15.3854757 4.88321571,18.4992043 C4.74214429,19.9708614 4.97801571,22.1332043 6.11110143,23.3757614 C6.69344429,24.0190471 7.44055857,24.3440757 8.32987286,24.3440757 C11.0711729,24.3440757 12.6387586,21.5373186 12.9739443,18.7486186 C13.1996586,16.89889 12.8396443,15.4283614 11.9085729,14.3765329 C11.2269157,13.6057186 10.29133,13.2186186 9.13454429,13.2186186 M8.52060143,28.2139471 C7.64934429,28.2139471 6.77583,28.0875471 5.92940143,27.8437757 C2.26380143,26.7772757 0.165787143,23.6883757 0.165787143,19.3840043 L0.165787143,2.68453286 C0.165787143,2.01754714 1.02688714,1.08986143 2.64751571,1.08986143 C4.34601571,1.08986143 5.13714429,2.04237571 5.13714429,2.68453286 L5.13714429,10.65789 L5.46104429,10.44459 C6.68103,9.63540429 8.19670143,9.18961857 9.73043,9.18961857 C11.9085729,9.18961857 13.9163014,10.0947329 15.3744157,11.7469614 C17.1124157,13.7118043 17.8098729,16.1822471 17.4532443,19.0759043 C16.5842443,25.8146043 12.2685871,28.2139471 8.52060143,28.2139471" id="Fill-19" fill="#4A3B32" mask="url(#mask-6)"></path>
                </g>
            </g>
        </g>
    </g>
</svg>